<svg xmlns="http://www.w3.org/2000/svg" version="1.1" xmlns:xlink="http://www.w3.org/1999/xlink" width="512" height="512" x="0" y="0" viewBox="0 0 512 512" style="enable-background:new 0 0 512 512" xml:space="preserve" class=""><g><path fill="#77b0fb" d="M285.307 225.715h50.283V373.45h-50.283zM176.41 225.715h50.283V373.45H176.41zM67.514 225.715h50.283V373.45H67.514z" opacity="1" data-original="#77b0fb"></path><path fill="#6b9ee2" d="M325.591 222.105h10v154.956h-10zM216.694 222.105h10v154.956h-10zM107.797 222.105h10v154.956h-10z" opacity="1" data-original="#6b9ee2"></path><path fill="#77b0fb" d="M394.203 225.715h50.283V373.45h-50.283z" opacity="1" data-original="#77b0fb"></path><path fill="#6b9ee2" d="M434.487 222.105h10v154.956h-10z" opacity="1" data-original="#6b9ee2"></path><circle cx="256" cy="127.519" r="54.129" fill="#dcc23d" opacity="1" data-original="#dcc23d"></circle><circle cx="250.3" cy="127.519" r="48.076" fill="#f4d844" transform="rotate(-45 250.295 127.575)" opacity="1" data-original="#f4d844"></circle><g fill-rule="evenodd"><path fill="#e39069" d="M248.992 98.349a7 7 0 1 1 14 0v1.617a18.21 18.21 0 0 1 9.615 10.063 6.977 6.977 0 0 1-13.015 5.031 4.17 4.17 0 0 0-3.904-2.638c-1.4 0-2.446.478-3.081 1.189a3.426 3.426 0 0 0-.621 1.055 3.297 3.297 0 0 0-.217 1.173c0 .796.33 1.614 1.054 2.261 1.079.964 2.964 1.431 4.84 1.895 4.679 1.158 9.332 2.31 13.508 8.143v.028a17.62 17.62 0 0 1 1.521 2.524c.403.827.754 1.759 1.051 2.779.487 1.669.722 3.319.722 4.908 0 3.798-1.241 7.564-3.524 10.69l-.013-.01a18.18 18.18 0 0 1-7.934 6.157v1.475a7 7 0 1 1-14 0v-1.292a19.114 19.114 0 0 1-3.942-2.038 19.077 19.077 0 0 1-7.01-8.676 6.982 6.982 0 1 1 12.961-5.195 5.043 5.043 0 0 0 1.869 2.277 5.022 5.022 0 0 0 2.816.851c.68 0 1.242-.072 1.692-.203.994-.29 1.773-.862 2.295-1.577v-.028c.512-.701.79-1.558.79-2.432 0-.399-.04-.746-.121-1.025a4 4 0 0 0-.231-.537 4.19 4.19 0 0 0-.304-.538l-.013.009c-1.196-1.671-3.327-2.199-5.469-2.729-3.54-.876-7.097-1.756-10.801-5.066-3.956-3.536-5.757-8.12-5.757-12.652 0-2.097.395-4.185 1.147-6.149a17.479 17.479 0 0 1 3.3-5.375 17.466 17.466 0 0 1 6.778-4.685v-1.281z" opacity="1" data-original="#e39069"></path><path fill="#2b4c9f" d="m128.621 119.922-89.309 56.991c-5.014 3.199-7.229 9.096-5.563 14.805s6.706 9.488 12.653 9.488h419.196c5.947 0 10.987-3.779 12.653-9.488s-.549-11.606-5.563-14.805l-89.309-56.991L272.363 49.08c-10.214-6.518-22.513-6.518-32.727 0L128.62 119.922zM256 175.347c-26.414 0-47.827-21.413-47.827-47.827S229.586 79.693 256 79.693s47.827 21.413 47.827 47.827-21.413 47.827-47.827 47.827z" opacity="1" data-original="#2b4c9f"></path><path fill="#2b4c9f" d="M132.482 218.743v-23.162H52.828v23.162c0 6.4 6.609 11.637 14.686 11.637h50.283c8.077 0 14.685-5.237 14.685-11.637zM161.725 195.581v23.162c0 6.4 6.609 11.637 14.686 11.637h50.283c8.077 0 14.685-5.237 14.685-11.637v-23.162zM270.621 195.581v23.162c0 6.4 6.609 11.637 14.686 11.637h50.283c8.077 0 14.685-5.237 14.685-11.637v-23.162zM379.518 195.581v23.162c0 6.4 6.609 11.637 14.686 11.637h50.283c8.077 0 14.685-5.237 14.685-11.637v-23.162zM117.797 368.785H67.514c-8.077 0-14.686 5.237-14.686 11.637v27.023h79.654v-27.023c0-6.4-6.608-11.637-14.685-11.637zM176.41 368.785c-8.077 0-14.686 5.237-14.686 11.637v27.023h79.654v-27.023c0-6.4-6.608-11.637-14.685-11.637zM285.307 368.785c-8.077 0-14.686 5.237-14.686 11.637v27.023h79.654v-27.023c0-6.4-6.609-11.637-14.685-11.637zM379.518 380.422v27.023h79.654v-27.023c0-6.4-6.608-11.637-14.685-11.637h-50.283c-8.077 0-14.686 5.237-14.686 11.637z" opacity="1" data-original="#2b4c9f"></path><path fill="#6b9ee2" d="M459.172 398.445H49.095c-8.441 0-15.346 6.906-15.346 15.346v27.347h444.502v-27.347c0-8.44-6.906-15.346-15.346-15.346z" opacity="1" data-original="#6b9ee2"></path><path fill="#77b0fb" d="M34.716 408.446a15.19 15.19 0 0 0-.967 5.345v27.347h434.503v-27.347c0-2.921-2.426-5.346-5.347-5.346H34.716z" opacity="1" data-original="#77b0fb"></path><path fill="#2b4c9f" d="M476.665 429.138H35.335C24.7 429.138 16 437.839 16 448.473v19.336h480v-19.336c0-10.634-8.701-19.335-19.335-19.335z" opacity="1" data-original="#2b4c9f"></path></g></g></svg>