<svg xmlns="http://www.w3.org/2000/svg" version="1.1" xmlns:xlink="http://www.w3.org/1999/xlink" width="512" height="512" x="0" y="0" viewBox="0 0 256 256" style="enable-background:new 0 0 512 512" xml:space="preserve" class=""><g><path fill="#5b5d60" d="m207.931 163.917-20.36-55.339a7 7 0 1 1 13.138-4.834l20.36 55.339a7 7 0 0 1-4.152 8.986c-3.604 1.328-7.644-.501-8.986-4.152z" opacity="1" data-original="#5b5d60"></path><path fill="#dae6f1" d="M193.093 123.589a44.244 44.244 0 0 0-9.21 6.855c-2.212 2.148-1.943 5.779.543 7.603 1.985 1.456 4.705 1.218 6.475-.492a34.2 34.2 0 0 1 5.698-4.434zM242.733 128.291C235.087 121.874 225.24 118 214.5 118c-2.823 0-5.581.276-8.256.787l3.514 9.55a34.045 34.045 0 0 1 4.743-.336c6.381 0 12.353 1.77 17.459 4.842 3.082 1.854 6.867 2.102 10.11.545 1.995-.959 2.359-3.673.663-5.097z" opacity="1" data-original="#dae6f1"></path><path fill="#5b5d60" d="M241.311 133.692c-3.064 1.184-6.505.861-9.352-.851A33.766 33.766 0 0 0 214.5 128c-1.61 0-3.192.119-4.743.336l3.566 9.693c.39-.019.782-.03 1.177-.03 13.233 0 24 10.766 24 24s-10.767 24-24 24-24-10.766-24-24c0-7.858 3.796-14.847 9.651-19.227l-3.552-9.653a34.253 34.253 0 0 0-5.698 4.434c-1.77 1.71-4.49 1.948-6.475.492a5.082 5.082 0 0 1-.42-.346 38.823 38.823 0 0 0-8.506 24.3c0 21.539 17.461 39 39 39s39-17.461 39-39c0-11.149-4.687-21.199-12.189-28.307z" opacity="1" data-original="#5b5d60"></path><path fill="#f5c84c" d="m207.931 163.917-20.36-55.339a7 7 0 1 1 13.138-4.834l20.36 55.339a7 7 0 0 1-4.152 8.986c-3.604 1.328-7.644-.501-8.986-4.152z" opacity="1" data-original="#f5c84c"></path><path fill="#5b5d60" d="M150.375 67.343a6 6 0 0 1 3.282-7.825l23.571-9.643a6 6 0 0 1 4.543 11.106L158.2 70.625a6 6 0 0 1-7.825-3.282z" opacity="1" data-original="#5b5d60"></path><path fill="#dae6f1" d="M183.507 59.887a5.98 5.98 0 0 1-1.736 1.095l-9.255 3.786 14.752 40.094a6.989 6.989 0 0 1 4.454-5.27 6.99 6.99 0 0 1 6.808 1.127z" opacity="1" data-original="#dae6f1"></path><path fill="#c7d7e5" d="M206.335 65.551a2.81 2.81 0 0 0-1.703-2.075 13.927 13.927 0 0 0-5.131-.976c-5.328 0-9.959 2.977-12.325 7.357l7.24 19.677a13.946 13.946 0 0 0 14.804-2.959c.678-.654.953-1.624.77-2.548z" opacity="1" data-original="#c7d7e5"></path><path fill="#fc657e" d="M116.413 81.681c-5.03 3.667-7.913 9.594-7.913 15.819v5.261a5.74 5.74 0 0 0 5.739 5.739h41.908c7.927 0 14.353-6.426 14.353-14.353v-1.629c0-7.135-4.233-13.613-10.801-16.399-10.04-4.258-26.012-7.033-43.286 5.562z" opacity="1" data-original="#fc657e"></path><path fill="#c18e6b" d="M108.5 102.761V97.5c0-.841.057-1.675.16-2.5H84.964c-4.603 0-9.167-.847-13.464-2.5S62.639 90 58.036 90H39.5C33.701 90 29 94.701 29 100.5S33.701 111 39.5 111h49.323a49.59 49.59 0 0 0 20.936-4.657 5.712 5.712 0 0 1-1.259-3.582z" opacity="1" data-original="#c18e6b"></path><path fill="#dae6f1" d="M29.005 100.6c-10.338 2.769-18.828 9.025-24.554 17.165-1.274 1.812-.226 4.341 1.95 4.755 3.533.672 7.128-.539 9.631-3.121a33.769 33.769 0 0 1 15.632-9.16 33.263 33.263 0 0 1 2.698-.587 10.492 10.492 0 0 1-5.357-9.052z" opacity="1" data-original="#dae6f1"></path><path fill="#5b5d60" d="M114.239 108.5a5.725 5.725 0 0 1-4.48-2.157A49.587 49.587 0 0 1 88.823 111H77.167l10.297 25.099a11.927 11.927 0 0 0 22.072 0l11.323-27.599zM187.57 108.578a6.956 6.956 0 0 1-.302-3.716l-10.073-27.377-10.226 4.369a17.88 17.88 0 0 1 3.53 10.665v1.629c0 .669-.062 1.323-.15 1.967l3.642 10.878a5.317 5.317 0 0 0 6.156 3.511l7.537-1.615z" opacity="1" data-original="#5b5d60"></path><path fill="#dae6f1" d="M180.147 110.504a5.316 5.316 0 0 1-6.156-3.511l-1.311-3.916-25.167 61.618a9.301 9.301 0 0 1-8.643 5.806h-21.831a9.295 9.295 0 0 1-8.91-6.551l-6.521-20.869c-.999.27-2.04.42-3.107.42a11.922 11.922 0 0 1-8.289-3.36l8.373 26.792c2.536 8.116 9.952 13.568 18.455 13.568h21.831c7.891 0 14.917-4.72 17.9-12.024l23.707-58.042z" opacity="1" data-original="#dae6f1"></path><path fill="#c7d7e5" d="M108.129 163.949a9.296 9.296 0 0 0 8.91 6.551h21.831a9.302 9.302 0 0 0 8.643-5.806l3.487-8.538v-1.902c0-7.015-5.739-12.754-12.754-12.754h-23.492c-4.992 0-9.325 2.913-11.417 7.117zM130.5 108.5v6.244a3.756 3.756 0 0 0 3.756 3.756h16.489a3.756 3.756 0 0 0 3.756-3.756V108.5z" opacity="1" data-original="#c7d7e5"></path><path fill="#c7d7e5" d="M131.709 141.5h20.583a6.21 6.21 0 0 0 6.209-6.209v-10.583a6.21 6.21 0 0 0-6.209-6.209h-20.583a6.21 6.21 0 0 0-6.209 6.209v10.583a6.21 6.21 0 0 0 6.209 6.209z" opacity="1" data-original="#c7d7e5"></path><path fill="#dae6f1" d="m92.923 148.815-56.044 7.393a3.923 3.923 0 0 0-3.376 4.403l.674 5.109a3.923 3.923 0 0 0 4.403 3.376l58.279-7.688z" opacity="1" data-original="#dae6f1"></path><path fill="#5b5d60" d="M65.232 165.581C63.498 177.122 53.517 186 41.5 186c-13.233 0-24-10.766-24-24s10.767-24 24-24c9.931 0 18.472 6.063 22.117 14.682l15.207-2.006C73.971 134.66 59.1 123 41.5 123c-21.539 0-39 17.461-39 39s17.461 39 39 39c21.012 0 38.134-16.619 38.96-37.428z" opacity="1" data-original="#5b5d60"></path><path fill="#dae6f1" d="M77.167 111H56.9l27.725 18.18z" opacity="1" data-original="#dae6f1"></path><path fill="#87d147" d="M244.013 89.911c-3.1-.6-5.6-3-6.2-6.1 0-.1-.3-.1-.3 0-.6 3.1-3.1 5.5-6.2 6.1-.1 0-.1.2 0 .3 3.1.6 5.6 3 6.2 6.1 0 .1.3.1.3 0 .6-3.1 3.1-5.5 6.2-6.1.1-.1.1-.3 0-.3z" opacity="1" data-original="#87d147"></path><circle cx="109.413" cy="200.611" r="3.4" fill="#f5c84c" opacity="1" data-original="#f5c84c"></circle><path fill="#70d6f9" d="M145.013 210.211h2.3v2.3c0 1.8 1.4 3.2 3.2 3.2 1.7 0 3.2-1.4 3.2-3.1v-2.4h2.3c1.8 0 3.2-1.4 3.2-3.2 0-1.7-1.4-3.2-3.1-3.2h-2.4v-2.3c0-1.8-1.4-3.2-3.2-3.2-1.7 0-3.2 1.4-3.2 3.1v2.4h-2.3c-1.8 0-3.2 1.4-3.2 3.2-.1 1.7 1.3 3.2 3.2 3.2-.1 0-.1 0 0 0z" opacity="1" data-original="#70d6f9"></path><circle cx="120.413" cy="49.111" r="3.4" fill="#fc657e" opacity="1" data-original="#fc657e"></circle><path fill="#f5c84c" d="M75.813 39.911c4.5-.8 8-4.3 8.9-8.7 0-.2.4-.2.4 0 .9 4.4 4.4 7.9 8.9 8.7.2 0 .2.3 0 .4-4.5.8-8 4.3-8.9 8.7 0 .2-.4.2-.4 0-.9-4.4-4.4-7.9-8.9-8.7-.2-.1-.2-.4 0-.4z" opacity="1" data-original="#f5c84c"></path><path d="M214.496 171.005a9.478 9.478 0 0 1-3.963-.873 9.429 9.429 0 0 1-4.949-5.352l-20.36-55.339c-1.809-4.916.72-10.387 5.636-12.196a9.436 9.436 0 0 1 7.265.292 9.438 9.438 0 0 1 4.932 5.344l20.36 55.339c1.809 4.916-.72 10.387-5.636 12.196a9.503 9.503 0 0 1-3.285.589zm-20.354-69.346a4.505 4.505 0 0 0-4.225 6.056l20.36 55.339a4.462 4.462 0 0 0 2.342 2.534c1.091.501 2.31.55 3.434.135a4.505 4.505 0 0 0 2.67-5.777l-20.36-55.339a4.466 4.466 0 0 0-2.335-2.531 4.492 4.492 0 0 0-1.886-.417z" fill="#000000" opacity="1" data-original="#000000"></path><path d="M187.351 141.504a7.426 7.426 0 0 1-4.402-1.441 7.499 7.499 0 0 1-3.05-5.539 7.453 7.453 0 0 1 2.244-5.873 46.763 46.763 0 0 1 9.048-6.854 2.5 2.5 0 0 1 2.516 4.321 41.742 41.742 0 0 0-8.081 6.12 2.43 2.43 0 0 0-.738 1.941 2.504 2.504 0 0 0 1.019 1.852c.981.719 2.353.604 3.261-.274a36.621 36.621 0 0 1 5.361-4.278 2.5 2.5 0 0 1 2.742 4.18 31.675 31.675 0 0 0-4.63 3.693 7.612 7.612 0 0 1-5.29 2.152zM237.553 136.913c-2.373 0-4.753-.647-6.883-1.929a31.36 31.36 0 0 0-19.799-4.27 2.5 2.5 0 0 1-.578-4.967 36.195 36.195 0 0 1 22.955 4.953c2.401 1.444 5.295 1.607 7.738.433a.561.561 0 0 0 .321-.449.512.512 0 0 0-.182-.477c-9.214-7.734-21.545-11.146-33.518-9.125a2.5 2.5 0 1 1-.832-4.93 46.514 46.514 0 0 1 7.724-.65 46.5 46.5 0 0 1 29.841 10.876 5.516 5.516 0 0 1 1.928 4.933 5.551 5.551 0 0 1-3.119 4.331 12.924 12.924 0 0 1-5.596 1.271zM214.5 188.5c-14.612 0-26.5-11.888-26.5-26.5 0-8.126 3.663-15.695 10.051-20.765a2.5 2.5 0 1 1 3.11 3.916C195.974 149.268 193 155.409 193 162c0 11.855 9.645 21.5 21.5 21.5S236 173.855 236 162s-9.645-21.5-21.5-21.5a2.5 2.5 0 1 1 0-5c14.612 0 26.5 11.888 26.5 26.5s-11.888 26.5-26.5 26.5z" fill="#000000" opacity="1" data-original="#000000"></path><path d="M214.5 203.5c-22.883 0-41.5-18.617-41.5-41.5 0-9.17 2.939-17.868 8.5-25.152a2.5 2.5 0 0 1 3.975 3.034C180.585 146.288 178 153.936 178 162c0 20.126 16.374 36.5 36.5 36.5S251 182.126 251 162c0-9.828-3.857-19.049-10.863-25.966a2.5 2.5 0 1 1 3.514-3.557C251.614 140.34 256 150.825 256 162c0 22.883-18.617 41.5-41.5 41.5z" fill="#000000" opacity="1" data-original="#000000"></path><path d="M214.496 171.005a9.478 9.478 0 0 1-3.963-.873 9.429 9.429 0 0 1-4.949-5.352l-20.36-55.339c-1.809-4.916.72-10.387 5.636-12.196a9.436 9.436 0 0 1 7.265.292 9.438 9.438 0 0 1 4.932 5.344l20.36 55.339c1.809 4.916-.72 10.387-5.636 12.196a9.503 9.503 0 0 1-3.285.589zm-20.354-69.346a4.505 4.505 0 0 0-4.225 6.056l20.36 55.339a4.462 4.462 0 0 0 2.342 2.534c1.091.501 2.31.55 3.434.135a4.505 4.505 0 0 0 2.67-5.777l-20.36-55.339a4.466 4.466 0 0 0-2.335-2.531 4.492 4.492 0 0 0-1.886-.417zM155.939 73.572c-3.351 0-6.532-1.994-7.878-5.282l-.001-.001c-1.773-4.338.313-9.311 4.65-11.085l23.571-9.643c4.335-1.773 9.31.31 11.085 4.648 1.774 4.34-.312 9.313-4.649 11.086l-23.571 9.643a8.442 8.442 0 0 1-3.207.634zm-3.251-7.176a3.506 3.506 0 0 0 4.564 1.915l23.572-9.643a3.504 3.504 0 0 0 1.914-4.565 3.505 3.505 0 0 0-4.563-1.914l-23.572 9.643a3.505 3.505 0 0 0-1.915 4.564z" fill="#000000" opacity="1" data-original="#000000"></path><path d="M187.191 107.153a2.501 2.501 0 0 1-2.347-1.637L170.68 67.017a2.5 2.5 0 1 1 4.693-1.726l14.165 38.499a2.5 2.5 0 0 1-2.347 3.363zM198.423 102.928a2.501 2.501 0 0 1-2.347-1.637l-14.43-39.219a2.5 2.5 0 1 1 4.693-1.726l14.43 39.219a2.5 2.5 0 0 1-2.346 3.363z" fill="#000000" opacity="1" data-original="#000000"></path><path d="M199.5 93c-1.86 0-3.705-.318-5.481-.947a2.498 2.498 0 0 1-1.522-3.19 2.495 2.495 0 0 1 3.19-1.523 11.44 11.44 0 0 0 11.795-2.565c.045-.042.077-.147.055-.264l-3.654-18.475c-.021-.109-.091-.204-.171-.235-1.343-.531-2.76-.8-4.212-.8a11.53 11.53 0 0 0-10.013 5.841 2.5 2.5 0 0 1-4.349-2.464A16.533 16.533 0 0 1 199.5 60c2.085 0 4.12.387 6.052 1.151a5.28 5.28 0 0 1 3.235 3.915l3.654 18.476c.354 1.786-.202 3.592-1.486 4.832A16.422 16.422 0 0 1 199.5 93zM156.146 111h-41.907c-4.543 0-8.239-3.696-8.239-8.239V97.5c0-7.089 3.342-13.758 8.94-17.839 18.091-13.19 34.856-10.457 45.735-5.843C168.162 76.993 173 84.333 173 92.519v1.628c0 9.293-7.561 16.853-16.854 16.853zm-13.471-35.958c-7.453 0-15.935 2.204-24.789 8.659C113.574 86.845 111 92.003 111 97.5v5.261a3.243 3.243 0 0 0 3.239 3.239h41.907c6.536 0 11.854-5.317 11.854-11.853v-1.628c0-6.174-3.642-11.708-9.277-14.097-4.393-1.864-9.868-3.38-16.048-3.38zm-26.262 6.639h.01z" fill="#000000" opacity="1" data-original="#000000"></path><path d="M88.823 113.5H39.5c-7.168 0-13-5.832-13-13s5.832-13 13-13h18.536c4.928 0 9.76.897 14.361 2.667A34.884 34.884 0 0 0 84.963 92.5h22.35a2.5 2.5 0 1 1 0 5h-22.35c-4.928 0-9.76-.897-14.361-2.667A34.884 34.884 0 0 0 58.036 92.5H39.5c-4.411 0-8 3.589-8 8s3.589 8 8 8h49.323c6.609 0 13.05-1.375 19.141-4.086a2.502 2.502 0 0 1 2.033 4.569c-6.735 2.997-13.859 4.517-21.174 4.517z" fill="#000000" opacity="1" data-original="#000000"></path><path d="M8.345 125.203a12.87 12.87 0 0 1-2.411-.228 5.555 5.555 0 0 1-4.125-3.387 5.514 5.514 0 0 1 .598-5.262c6.086-8.653 15.024-15.018 25.167-17.924a2.501 2.501 0 0 1 1.377 4.807c-9.049 2.592-17.022 8.272-22.454 15.994a.516.516 0 0 0-.054.508.566.566 0 0 0 .426.352c2.667.509 5.419-.393 7.369-2.405a36.362 36.362 0 0 1 16.785-9.836c.813-.216 1.691-.41 2.682-.592a2.507 2.507 0 0 1 2.911 2.007 2.5 2.5 0 0 1-2.007 2.911c-.861.158-1.614.324-2.302.507a31.366 31.366 0 0 0-14.479 8.483c-2.545 2.626-5.967 4.065-9.483 4.065zM98.5 146a14.378 14.378 0 0 1-13.349-8.953l-9.738-23.736a2.5 2.5 0 1 1 4.625-1.898l9.738 23.736c1.458 3.554 4.883 5.85 8.724 5.85s7.266-2.296 8.724-5.85l11.02-26.859a2.499 2.499 0 1 1 4.625 1.898l-11.02 26.859A14.378 14.378 0 0 1 98.5 146zM179.024 113.124a7.813 7.813 0 0 1-7.404-5.336l-3.642-10.879a2.5 2.5 0 0 1 4.742-1.587l3.642 10.879a2.812 2.812 0 0 0 3.261 1.86l6.707-1.437a2.5 2.5 0 1 1 1.047 4.888l-6.706 1.437a7.93 7.93 0 0 1-1.647.175zM167.833 83.985a2.5 2.5 0 0 1-.984-4.8l8.476-3.621a2.5 2.5 0 1 1 1.965 4.598l-8.476 3.621c-.32.137-.653.202-.981.202z" fill="#000000" opacity="1" data-original="#000000"></path><path d="M138.87 173h-21.831a11.783 11.783 0 0 1-11.296-8.305l-6.259-20.029a2.5 2.5 0 1 1 4.772-1.491l6.259 20.029a6.806 6.806 0 0 0 6.524 4.796h21.831a6.81 6.81 0 0 0 6.328-4.251l25.004-61.218a2.5 2.5 0 1 1 4.629 1.891l-25.004 61.218A11.792 11.792 0 0 1 138.87 173z" fill="#000000" opacity="1" data-original="#000000"></path><path d="M138.87 183h-21.831c-9.602 0-17.978-6.158-20.841-15.323l-8.204-26.254a2.5 2.5 0 1 1 4.772-1.491l8.204 26.254A16.764 16.764 0 0 0 117.039 178h21.831c6.87 0 12.988-4.109 15.586-10.47l23.339-57.141a2.5 2.5 0 1 1 4.629 1.891l-23.339 57.141A21.755 21.755 0 0 1 138.87 183z" fill="#000000" opacity="1" data-original="#000000"></path><path d="M151 158.281a2.5 2.5 0 0 1-2.5-2.5v-1.527c0-5.654-4.6-10.254-10.254-10.254h-23.492c-3.806 0-7.283 2.118-9.074 5.528a2.499 2.499 0 1 1-4.426-2.325c2.657-5.06 7.83-8.203 13.5-8.203h23.492c8.411 0 15.254 6.843 15.254 15.254v1.527a2.5 2.5 0 0 1-2.5 2.5zM150.744 121h-16.488a6.263 6.263 0 0 1-6.256-6.255v-4.995a2.5 2.5 0 1 1 5 0v4.995c0 .692.563 1.255 1.256 1.255h16.488c.692 0 1.256-.563 1.256-1.255V109.5a2.5 2.5 0 1 1 5 0v5.245a6.263 6.263 0 0 1-6.256 6.255z" fill="#000000" opacity="1" data-original="#000000"></path><path d="M152.291 144h-20.582c-4.802 0-8.709-3.907-8.709-8.708v-10.583c0-4.802 3.907-8.708 8.709-8.708h20.582c4.802 0 8.709 3.907 8.709 8.708v10.583c0 4.801-3.907 8.708-8.709 8.708zm-20.582-23a3.713 3.713 0 0 0-3.709 3.708v10.583a3.713 3.713 0 0 0 3.709 3.708h20.582a3.713 3.713 0 0 0 3.709-3.708v-10.583a3.713 3.713 0 0 0-3.709-3.708z" fill="#000000" opacity="1" data-original="#000000"></path><path d="M156.589 132.5h-29.434a2.5 2.5 0 1 1 0-5h29.434a2.5 2.5 0 1 1 0 5zM131.5 158h-9a2.5 2.5 0 1 1 0-5h9a2.5 2.5 0 1 1 0 5zM38.063 171.631a6.435 6.435 0 0 1-6.365-5.583l-.674-5.11c-.225-1.701.228-3.387 1.271-4.749s2.557-2.235 4.257-2.459l54.959-7.25a2.5 2.5 0 1 1 .655 4.957l-54.959 7.25a1.41 1.41 0 0 0-.943.545 1.414 1.414 0 0 0-.282 1.052l.674 5.109a1.428 1.428 0 0 0 1.598 1.225l57.167-7.542a2.494 2.494 0 0 1 2.806 2.151 2.5 2.5 0 0 1-2.151 2.806l-57.167 7.542a6.415 6.415 0 0 1-.846.056z" fill="#000000" opacity="1" data-original="#000000"></path><path d="M41.5 188.5C26.888 188.5 15 176.612 15 162s11.888-26.5 26.5-26.5c10.288 0 19.733 6.047 24.063 15.406a2.5 2.5 0 0 1-4.537 2.1C57.511 145.409 49.847 140.5 41.5 140.5c-11.855 0-21.5 9.645-21.5 21.5s9.645 21.5 21.5 21.5c10.195 0 19.059-7.25 21.075-17.239a2.5 2.5 0 1 1 4.9.989C64.991 179.563 54.066 188.5 41.5 188.5z" fill="#000000" opacity="1" data-original="#000000"></path><path d="M41.5 203.5C18.617 203.5 0 184.883 0 162s18.617-41.5 41.5-41.5a41.41 41.41 0 0 1 39.44 28.574 2.5 2.5 0 1 1-4.752 1.556A36.418 36.418 0 0 0 41.5 125.5C21.374 125.5 5 141.874 5 162s16.374 36.5 36.5 36.5c19.048 0 35.035-14.869 36.397-33.851a2.51 2.51 0 0 1 2.672-2.315 2.499 2.499 0 0 1 2.314 2.672C81.336 186.592 63.158 203.5 41.5 203.5zM84.623 131.681a2.49 2.49 0 0 1-1.369-.41L55.529 113.09a2.501 2.501 0 0 1 2.742-4.182l27.725 18.181a2.501 2.501 0 0 1-1.373 4.592zM161.5 42.844a2.5 2.5 0 0 1-2.5-2.5V28.656a2.5 2.5 0 1 1 5 0v11.688a2.5 2.5 0 0 1-2.5 2.5z" fill="#000000" opacity="1" data-original="#000000"></path><path d="M181.084 51.928a2.5 2.5 0 0 1-2.288-1.492l-4.11-9.322A6.904 6.904 0 0 0 168.373 37H162.5a2.5 2.5 0 1 1 0-5h5.873c4.712 0 8.985 2.786 10.887 7.096l4.11 9.323a2.5 2.5 0 0 1-2.286 3.509z" fill="#000000" opacity="1" data-original="#000000"></path></g></svg>