<svg xmlns="http://www.w3.org/2000/svg" version="1.1" xmlns:xlink="http://www.w3.org/1999/xlink" width="512" height="512" x="0" y="0" viewBox="0 0 512 512" style="enable-background:new 0 0 512 512" xml:space="preserve" class=""><g><path fill="#4c2703" d="M210.252 393.002c-6.748 1.8-13.043 3.726-19.451 5.134-9.76 2.146-19.047.08-28.243-3.45-18.24-7.002-35.727-15.62-53.18-24.315-12.465-6.21-24.977-12.357-37.153-19.101-7.172-3.972-13.774-8.99-20.514-13.706-1.007-.705-1.588-2.268-1.987-3.553-2.784-8.95-5.472-17.931-8.181-26.905-5.112-16.934-9.941-33.96-12.775-51.435-2.944-18.148-5.519-36.362-7.864-54.598-1.17-9.107-1.704-18.316-2.092-27.497-.329-7.775-.53-15.616.083-23.36 1.425-18.005 7.558-34.41 18.213-49.058C46.482 88.27 58.621 78.6 72.316 70.673c14.4-8.336 29.355-15.455 44.978-21.177a297.708 297.708 0 0 1 46.283-12.81c15.853-3.048 31.816-4.917 47.96-5.394 14.228-.42 28.396.082 42.545 1.632 12.078 1.324 23.938 3.647 35.494 7.383 11.49 3.716 22.594 8.339 32.492 15.4 5.488 3.916 10.64 8.216 13.601 14.56.257.55 1.282.865 2.011 1.05 17.692 4.497 32.77 13.655 45.885 26.11 2.739 2.6 4.78 6.042 6.724 9.343 1.608 2.731 3.478 4.917 6.382 6.22 11.77 5.285 21.935 12.812 30.9 22.05 12.93 13.321 19.843 28.992 19.307 47.787-.2 7.018-.238 14.087.362 21.072.966 11.242 4.09 22.052 8.256 32.51 6.843 17.18 14.007 34.23 20.8 51.427 5.957 15.078 11.672 30.254 17.32 45.451 1.826 4.915 3.483 9.955 4.545 15.077 2.273 10.958-1.257 20.28-8.727 28.421-14.191 15.467-30.044 29.07-46.932 41.427-15.177 11.105-30.642 21.831-46.25 32.322-5.742 3.859-12.217 6.648-18.438 9.764-3.5 1.752-7.09 3.38-10.771 4.698-5.538 1.983-11.249 1.455-16.934.526-2.813-.46-5.669-.698-8.455-1.278-5.36-1.118-9.634-4.221-13.22-8.156-5.796-6.358-11.422-12.872-17-19.423-1.338-1.573-2.587-2.079-4.596-1.554-7.08 1.85-14.333 1.58-21.56 1.481-9.585-.132-19.206-.275-28.528-2.718-5.613-1.471-11.017-3.73-16.527-5.602-1.728-.587-3.466-1.2-5.248-1.568-4.472-.927-7.713-3.798-10.079-7.284-3.47-5.113-6.368-10.625-9.37-16.043-1.96-3.535-3.673-7.206-5.274-10.375zm186.775 42.239.03.008-.808.792-.742.262-.445.359-1.825 1.175c-1.813.838-3.722 1.516-5.418 2.546-3.32 2.019-6.751 3.693-10.637 4.198-1.956.255-4.058.44-5.565-1.14-3.927-4.115-7.925-8.183-11.557-12.55-4.957-5.96-9.61-12.174-14.378-18.292-2.867-3.68-5.911-7.245-8.506-11.11-4.82-7.18-9.305-14.585-14.06-21.809-1.973-2.996-4.013-6.035-6.51-8.576-3.125-3.183-6.884-5.733-10.133-8.807-6.119-5.789-11.676-12.055-16.159-19.265-5.156-8.294-8.84-17.112-10.688-26.711-.23-1.19-.987-2.278-1.5-3.413l-1.418-3.06-.441-.782.06-.013c-.054-.375-.052-.767-.17-1.12-3.095-9.268-7.46-17.864-13.498-25.582-6.79-8.678-13.598-17.34-20.321-26.07-4.152-5.39-6.642-11.542-7.297-18.307-1.273-13.158-1.22-26.335.56-39.438 1.47-10.813 5.024-21.001 11.466-29.873 6.51-8.963 13.406-17.66 21.978-24.833l7.285-4.808-.467-.69-7.347 4.991c-1.327.86-2.683 1.676-3.975 2.584-4.356 3.06-8.805 6.022-11.998 10.422-2.417 3.331-4.933 6.598-7.204 10.026-4.333 6.538-8.378 13.242-10.378 20.944-.287 1.103-.482 2.231-.793 3.327-2.362 8.317-4.07 16.755-3.901 25.433.089 4.602.852 9.188 1.056 13.792.302 6.83 1.65 13.353 4.429 19.637 4.41 9.971 11.227 18.14 18.695 25.883 4.497 4.662 8.736 9.549 11.46 15.524 2.47 5.413 4.878 10.853 7.314 16.282-.025.887-.287 1.848-.04 2.652 3.274 10.613 6.872 21.103 12.067 30.972 4.24 8.055 9.228 15.599 15.227 22.456.255.292.694.424 1.048.63l.648.722.851 1.189.301.302.779.842-.018-.01c-.097 1.122.353 1.81 1.526 1.926l-.015-.011 1.53 1.922-.013-.012.843 1.14.664.782.849 1.125.293.4.863 1.12.294.36 1.159 1.558-.014-.011.439.751v-.04l.725.819-.016-.013.869 1.137.682.974.809.94.3.353.853 1.167.285.37 1.174 1.54-.017-.011.864 1.141.682.983.765.928-.02-.01 1.24 1.526.264.374.81 1.147-.02-.005c-.106.938.142 1.585 1.252 1.526l.263.318.795 1.203-.02-.003c-.112 1.134.334 1.825 1.528 1.92 0 0-.018-.009-.019-.008.416.885.712 1.856 1.27 2.64 1.9 2.674 3.869 5.3 5.857 7.91 3.249 4.263 6.435 8.58 9.83 12.723 3.4 4.148 7.107 8.044 10.53 12.172 5.297 6.388 10.748 12.606 17.554 17.456 5.067 3.61 8.259 4.95 13.924 1.032 4.981-3.444 9.944-6.918 14.846-10.472a4968.422 4968.422 0 0 0 31.625-23.122c.805-.593 1.278-1.635 1.905-2.468 4.166-3.4 8.348-6.778 12.493-10.203 4.483-3.706 8.93-7.454 13.394-11.184 2.095-1.535 4.169-3.09 5.664-5.225l-.349-.38-5.63 4.659c-.355-.002-.808-.147-1.051.018a112.639 112.639 0 0 0-5.15 3.676c-.34.258-.442.826-.653 1.25l.005-.02-1.132.8-.003-.024-1.137.786-.005-.022-1.533 1.15.005-.02-1.142.79.001-.024-1.15.85-.329.277-1.605 1.152-1.08.746c-1.078.065-2.174.104-2.316 1.56l.004-.02c-2.03 1.049-4.21 1.884-6.062 3.185-6.245 4.386-12.383 8.924-18.53 13.446-.549.403-.875 1.107-1.304 1.67l-.001-.02-1.15.844-.354.277-1.18.788.01-.018-1.155.775.01-.016-1.132.799-.002-.025-.775.553c-.637.44-1.274.878-1.912 1.317l-1.153.783.012-.012-1.16.778-1.048.763-1.223.799-1.515 1.08-1.17.77-.667.397-1.942 1.187-.007-.023-.754.423zM197.035 288.146l-.375-1.142c-.002-.757.072-1.524-.022-2.27-.135-1.063-.393-2.11-.598-3.163a46.014 46.014 0 0 1-.015-.608l1.015-1.192 1.258 1.13.276 2.666c-.133.592-.342 1.178-.386 1.776-.415 5.681 2.264 10.384 4.878 15.08 2.823 5.074 5.92 10.004 8.567 15.165 2.386 4.65 4.438 9.483 6.439 14.318 3.6 8.695 7.152 17.413 10.53 26.197 2.651 6.895 5.024 13.897 7.492 20.861 1.874 5.288 3.661 10.607 5.575 15.88.578 1.59 1.451 3.072 2.19 4.603a.839.839 0 0 1 .046.296l.79 1.614a.172.172 0 0 1-.007.21l.315.922c.024.102.036.206.034.312l.363.455.52 1.445c-.094.314-.353.693-.258.932 1.804 4.57 3.464 9.213 5.576 13.639.85 1.783 1.812 3.956 4.225 4.495l1.738 1.56c1.083 2.246 3.157 3.42 5.35 3.728 3.984.559 8.041.81 12.068.813 9.181.008 18.363-.212 27.544-.339.063 0 .136.02.189-.004.537-.232 1.344-.343 1.533-.744.21-.443-.056-1.192-.284-1.737-.212-.51-.651-.923-.98-1.386-1.798-2.539-3.88-4.365-7.298-3.018-.331.13-.755.022-1.135.033-8.314.238-16.047-2.235-23.752-4.964-6.23-2.207-11.147-6.074-15.135-11.238-3.475-4.502-4.993-9.912-6.792-15.15-2.934-8.54-5.662-17.152-8.373-25.767-3.174-10.085-7.187-19.834-11.543-29.453-2.527-5.579-4.789-11.292-7.577-16.737-4.228-8.257-8.823-16.327-13.238-24.49-2.738-5.062-3.86-10.55-4.76-16.207-1.193-7.504-2.9-14.939-4.681-22.332-1.018-4.224-2.605-8.312-3.992-12.443-.145-.433.048-1.777-1.193-.854-.743-1.944-1.458-3.9-2.234-5.831-2.771-6.891-4.612-14.047-6.11-21.302.13-.586.446-1.201.359-1.753-.6-3.788-1.18-7.584-1.965-11.337-1.11-5.307-1.062-10.65-.574-15.98.594-6.49 2.282-12.739 4.501-18.883 3.684-10.2 9.507-19.056 16.385-27.317 1.133-1.361 2.021-2.925 3.023-4.396l1.026-1.133 1.595-1.56-.018.017c2.007-.973 3.685-2.251 4.249-4.566l.688-.734c.566-.206 1.235-.283 1.677-.641a54.797 54.797 0 0 0 3.809-3.404 141.516 141.516 0 0 0 4.758-4.903c1.224-1.321 2.344-2.74 3.567-4.063.203-.218.703-.154 1.06-.239 1.283-.305 2.726-.341 3.814-.98 3.043-1.787 5.84-4.003 8.915-5.723 5.284-2.954 10.602-5.884 16.092-8.42 9.725-4.49 19.561-8.754 30.128-10.978.597-.125 1.12-.6 1.676-.912 4.394-.503 8.779-1.142 13.186-1.466 3.467-.255 6.962-.12 10.444-.159.432.092.86.23 1.295.267 8.124.687 16.246 1.402 24.375 2.026 7.95.611 15.641 2.097 22.678 6.096.688.39 1.521.526 2.287.78.023.054.037.117.075.157.016.017.083-.013.127-.021l-.206-.13c-.323-.411-.57-.938-.983-1.211a80.669 80.669 0 0 0-4.684-2.891c-7.354-4.171-15.53-5.34-23.73-6.104-6.422-.598-12.896-.624-19.347-.905-.507-.233-1.02-.674-1.522-.664-2.39.048-4.786.132-7.164.365-4.183.41-8.357.914-12.529 1.425-1.852.227-3.692.564-5.537.851l-.1-.664c1.005-.163 2.035-.239 3.011-.509 1.492-.413 2.948-.96 4.419-1.45l1.116-.112 1.172-.352 2.247-.045 1.177-.25 1.12-.104c.883.143 1.793.491 2.644.383 1.556-.2 3.078-.668 4.614-1.024l8.001.003c.62 1.04 1.253 1.018 1.9.026h.766c.515.22 1.028.623 1.546.631 3.528.057 7.058.046 10.587.013.527-.005 1.052-.243 1.578-.373l1.375-.308c-.435-.27-.567-.407-.723-.443-9.283-2.145-18.703-1.906-28.126-1.603-4.098.399-8.21.683-12.289 1.22-8.722 1.146-17.499 2.053-26.121 3.735-12.38 2.415-23.946 7.38-35.375 12.598-5.005 2.285-10.077 4.457-14.924 7.043-4.46 2.38-8.628 5.3-12.981 7.889-9.318 5.54-17.01 13.009-24.052 21.06-3.582 4.093-6.528 8.936-8.906 13.854-7.807 16.147-12.858 33.17-14.606 51.07-1.221 12.508 1.044 24.466 6.266 35.882.889 1.944 1.713 3.917 2.566 5.878.217.775.278 1.643.675 2.31 2.133 3.581 4.407 7.08 6.517 10.674 1.272 2.165 2.564 4.369 3.43 6.71 1.114 3.008 1.74 6.192 2.709 9.259.632 2.002 1.498 3.93 2.26 5.892a.36.36 0 0 1 .01.252l.336 1.257a.31.31 0 0 1 .048.255c.494 2.203.926 4.423 1.493 6.608 2.549 9.823 5.028 19.666 7.742 29.443 2.327 8.386 4.87 16.714 7.446 25.029 2.502 8.077 4.986 16.168 7.81 24.136 3.185 8.98 6.651 17.865 10.17 26.722 2.02 5.085 4.149 10.155 6.662 15.008 2.607 5.032 5.605 9.879 8.706 14.628 1.194 1.828 1.995 4.825 5.4 3.809.25-.075.596.169.896.269 3.527 1.177 7.038 2.403 10.586 3.512 1.672.522 3.414.82 5.124 1.219l.482-.713c-.745-1.335-1.464-2.686-2.241-4.002-1.727-2.928-3.945-5.662-5.146-8.788-4.888-12.734-9.453-25.59-14.188-38.383-.366-.99-1.12-1.835-1.694-2.747l-1.44-3.773c-.002-.618.164-1.296-.033-1.844-1.538-4.27-3.18-8.504-4.725-12.772-2.149-5.935-4.218-11.9-6.394-17.825-.222-.603-.944-1.023-1.434-1.529l-.01-.114.108-.04c-.094-.803.011-1.699-.312-2.396-3.182-6.875-6.263-13.806-9.727-20.54-2.448-4.76-5.43-9.249-8.215-13.833-.222-.365-.779-.526-1.18-.782l-.383-1.328-.386-.925-.258-.786c.183-.363.55-.743.515-1.084-.106-1.043-.365-2.072-.564-3.106zm82.217-237.71 6.387.34.029-.808-7.143-.19c-2.578-.022-5.16-.154-7.734-.045-4.561.194-9.13.391-13.67.85-4.428.45-8.822 1.227-13.23 1.86-.442.004-.89-.043-1.322.019-6.209.879-12.432 1.67-18.618 2.691-6.433 1.063-12.907 2.042-19.224 3.617-9.256 2.308-17.443 7.21-25.565 11.984-4.594 2.7-8.765 6.237-12.769 9.8-6.97 6.201-13.42 12.94-17.542 21.474-4.769 9.873-9.419 19.806-14.014 29.762-3.888 8.423-5.687 17.362-5.524 26.599.14 7.98.555 15.97 1.24 23.921.422 4.898 1.198 9.836 2.483 14.575 2.665 9.825 7.207 19.083 8.85 29.242 1.273 7.868 2.975 15.67 4.095 23.557 1.102 7.763 1.628 15.606 2.571 23.394.517 4.27 1.396 8.496 2.07 12.748 1.896 11.946 3.646 23.917 5.7 35.836 1.331 7.73 3.121 15.38 4.655 23.077 1.273 6.389 2.472 12.792 3.703 19.189-.108.397-.364.82-.301 1.19 1.232 7.247 3.312 14.255 6.3 20.963.575 1.292 1.743 2.496 2.936 3.293 1.501 1.002 3.278 1.634 4.995 2.263 2.052.751 4.247 2.07 6.24 1.853 7.749-.845 14.885-3.807 21.684-7.535.587-.321 1.218-1.55 1.04-2.108-.76-2.39-1.774-4.703-2.805-6.995-.157-.35-1.066-.754-1.321-.605-1.927 1.117-3.778 2.367-5.652 3.575l-7.744 2.724-7.138-1.782c-3.43-2.592-6.443-5.488-7.36-9.947-.085-.414-.367-.788-.557-1.18-.384-1.708-.719-3.428-1.16-5.12-4-15.332-7.827-30.697-10.336-46.366-2.945-18.389-6.001-36.76-9.07-55.13-1.765-10.557-3.576-21.108-5.506-31.636-1.382-7.537-2.593-15.141-4.613-22.514-2.189-7.987-5.426-15.68-7.846-23.612-2.997-9.819-3.814-19.907-2.306-30.09 1.335-9.011 4.85-17.33 8.938-25.361 3.156-6.202 6.817-12.149 10.312-18.174 3.082-5.314 5.934-10.798 9.437-15.823 7.365-10.566 15.847-20.122 27.013-26.918 11.359-6.914 23.5-11.488 36.843-12.822 5.895-.59 11.72-1.883 17.577-2.857.758-.002 1.524.066 2.272-.017 5.458-.612 10.902-1.384 16.372-1.848 5.43-.461 10.884-.62 16.328-.912zM238.91 263.804l-.678-.807c-.557-.914-1.093-1.842-1.675-2.74-5.263-8.123-8.112-17.113-9.522-26.609-1.283-8.646-.944-17.283-.07-25.96 1.22-12.128 4.076-23.71 10.183-34.364.799-1.394 1.527-2.829 2.289-4.245l-.408-.305c-.384.348-.832.646-1.142 1.05-4.507 5.88-9.403 11.51-13.408 17.715-9.82 15.22-12.963 32.01-10.334 49.877.57 3.872 1.529 7.687 2.308 11.528.12.244.238.49.357.734.053.091.074.189.061.293.156.99.142 2.045.494 2.959 3.135 8.119 8.206 15.011 13.805 21.561 4.026 4.711 8.101 9.375 10.347 15.31a15.539 15.539 0 0 0 2.442 4.268c4.467 5.468 7.474 11.717 9.68 18.33 3.333 9.997 6.423 20.075 9.577 30.132 2.454 7.826 6.095 15.106 10.173 22.176 2.934 5.085 6.005 10.093 9.085 15.094 4.572 7.425 9.001 14.95 13.858 22.187 8.378 12.486 17.612 24.343 27.54 35.64 5.798 6.598 11.72 13.088 17.68 19.54 1.266 1.37 2.149 3.113 5.081 2.222 2.997-.91 6.478-.169 9.743-.277 1.882-.062 3.765-.31 5.631-.587 4.357-.65 8.71-1.326 13.048-2.09.892-.158 1.708-.75 2.56-1.141l-.02-.687c-1.069-.599-2.071-1.428-3.218-1.757-5.75-1.652-9.673-5.883-13.757-9.789-2.772-2.65-5.119-5.749-7.627-8.672-5.302-6.18-10.762-12.235-15.83-18.602-5.773-7.25-11.188-14.787-16.763-22.195-5.198-6.908-10.394-13.817-15.607-20.713-5.591-7.396-11.507-14.57-16.7-22.233-3.847-5.676-7.23-11.714-9.633-18.251-4.183-11.381-8.47-22.729-12.985-33.981-2.557-6.37-6.432-12.032-10.89-17.263a2867.749 2867.749 0 0 0-14.045-16.397c-.393-.454-1.088-.648-1.642-.963zm-87.658-40.814-1.903-9.333c-.454.473-.617.574-.603.638.615 2.894 1.246 5.786 1.875 8.677.033.501.018 1.01.105 1.501.975 5.485 1.951 10.97 2.957 16.45 1.772 9.653 3.566 19.303 5.35 28.955.983 5.807 2.005 11.608 2.94 17.424 1.88 11.698 3.377 23.47 5.654 35.089 2.533 12.926 5.63 25.748 8.749 38.55 1.162 4.77 2.882 9.438 4.733 13.996 1.138 2.803 3.723 4.016 6.818 3.85 4.69.76 8.702-1.06 12.533-3.397 2.315-1.414 2.422-2.113 1.566-4.715-4.056-12.325-8.584-24.523-12-37.023-4.954-18.129-9.174-36.46-13.55-54.743-2.07-8.647-4.211-17.236-8.904-24.917-2.307-3.776-5.085-7.296-7.093-11.218-3.313-6.473-6.175-13.177-9.227-19.784zM275.465 414c6.61 2.325 13.366 3.616 20.776 3.055-2.037-2.818-4.045-5.261-5.688-7.929-6.243-10.137-12.547-20.245-18.485-30.561-5.312-9.23-9.93-18.83-13.09-29.054-.558-1.806-.864-3.701-1.539-5.458-1.79-4.663-3.972-9.189-5.534-13.923-2.38-7.216-4.275-14.59-6.55-21.843-2.17-6.916-5.679-12.994-10.867-18.249-5.329-5.397-10.43-11.093-15.042-17.109-8.57-11.18-13.777-23.85-15.191-37.974-1.443-14.41 1.315-28.151 6.6-41.476 4.173-10.52 10.891-19.403 18.277-27.817 7.362-8.386 15.256-16.235 23.929-23.278 3.585-2.477 7.086-5.088 10.77-7.409 18.73-11.8 39.255-19.175 60.666-24.288 5.1-1.218 10.269-2.154 15.406-3.22 13.64-1.704 27.28-2.304 40.954.195-.281-.532-.573-.858-.93-1.076-3.568-2.174-7.125-4.366-10.726-6.483-5.737-3.37-11.465-6.851-18.016-8.397-8.85-2.088-17.894-2.75-26.96-3.115-1.51-.115-3.02-.305-4.533-.331-2.854-.049-5.709.008-8.563.003-8.63-.017-17.235.145-25.716 2.08-18.963 4.33-35.828 13.226-51.707 24.076-14.869 10.16-27.06 23.07-36.878 38.153-7.798 11.98-12.027 25.12-11.504 39.515.522 14.393 4.122 28.16 9.118 41.598.13.42.232.85.395 1.255 5.032 12.517 8.868 25.371 10.962 38.72.032 7.14 2.36 13.661 5.54 19.907 5.564 10.928 11.457 21.695 16.8 32.729 6.043 12.478 10.936 25.45 15.367 38.591 3.374 10.007 6.708 20.028 10.224 29.985 3.663 10.373 11.495 16.154 21.735 19.128zm11.828-343.425c2.907-.114 5.814-.248 8.722-.338 9.171-.283 18.343-.548 27.515-.828.454-.014.905-.1 1.933-.22-2.906-1.896-5.314-3.48-7.735-5.046-9.71-6.28-20.238-10.403-31.888-10.274-10.434.116-20.859 1.08-31.288 1.67-.44-.01-.89-.085-1.32-.021-9.403 1.392-18.81 2.762-28.204 4.214-10.393 1.607-20.384 4.467-29.659 9.586-12.565 6.933-21.952 17.263-30.13 28.707-3.875 5.424-6.779 11.546-10.09 17.37-3.723 6.546-7.72 12.96-11.031 19.708-4.149 8.455-6.905 17.392-7.356 26.94-.388 8.232 1.711 16.087 3.257 24.035.123.553.194 1.124.377 1.656 1.649 4.79 3.32 9.574 4.98 14.361.967 2.788 1.927 5.579 2.89 8.368.221-1.139.102-2.192.099-3.245-.03-10.497.934-20.887 3.715-31.039 3.442-12.563 6.608-25.22 13.28-36.637 4.04-6.915 8.404-13.557 13.998-19.336 7.774-8.031 16.787-14.433 26.394-20.03 6.448-3.758 13.002-7.335 19.508-10.992 5.479-2.296 10.931-4.659 16.442-6.874 9.576-3.85 19.361-7.057 29.525-8.971 5.34-1.006 10.71-1.848 16.066-2.764zm-198.06 2.001.004-.012c-.41.148-.852.24-1.226.452-5.45 3.086-10.993 6.025-16.314 9.322-11.484 7.119-21.36 16.004-28.82 27.377-6.784 10.34-11.483 21.52-13.487 33.784-1.437 8.795-1.709 17.62-1.162 26.504.408 6.618.609 13.249.902 19.874-.134 1.54-.513 3.105-.361 4.616.653 6.512 1.448 13.011 2.22 19.511.757 6.377 1.385 12.774 2.366 19.116 1.338 8.644 2.726 17.294 4.517 25.852 2.219 10.607 4.796 21.143 7.366 31.673 1.435 5.877 3.193 11.675 4.767 17.52 2.147 7.973 4.182 15.979 6.461 23.915.375 1.303 1.572 2.574 2.718 3.406 1.985 1.441 4.204 2.572 6.368 3.754 6.034 3.297 12.002 6.73 18.158 9.782 8.325 4.127 16.814 7.92 25.207 11.908 6.39 3.037 12.715 6.207 19.114 9.22 5.135 2.418 10.299 4.784 15.521 7.004 6.981 2.969 14.014 5.82 21.072 8.602 1.063.42 2.383.186 3.584.254-.195-1.079-.289-2.188-.604-3.23a1068.298 1068.298 0 0 0-4.646-14.982c-.458-1.44-1.078-2.83-1.623-4.242l-.858-1.513c-.81-4.551-1.448-9.141-2.463-13.646-3.666-16.265-6.79-32.62-9.033-49.148-2.54-18.709-5.202-37.401-7.916-56.086-1.743-12.003-4.274-23.84-8.693-35.182-2.584-6.636-4.745-13.364-5.824-20.422-1.664-10.885-2.117-21.82-1.538-32.809.445-8.437 2.1-16.61 5.657-24.293 3.967-8.565 8.074-17.068 12.239-25.539 2.999-6.099 6.423-11.99 10.974-17.067 12.328-13.75 26.782-24.63 44.2-31.079 6.446-2.386 13.256-3.79 19.9-5.642 4.34-.528 8.674-1.104 13.02-1.573 10.202-1.1 20.409-2.162 30.616-3.209 1.764-.18 3.541-.25 5.314-.302 1.69-.05 3.382-.01 5.073-.01l.008-.52c-.48-.122-.958-.261-1.442-.367-17.37-3.766-34.99-5.053-52.701-4.784-9.554.145-19.115.918-28.638 1.79-13.338 1.22-26.437 3.9-39.384 7.315-.474.157-.939.353-1.423.465-14.294 3.316-28.228 7.745-41.596 13.823-5.7 2.591-11.242 5.534-16.856 8.317l-.738.501zm153.865 108.563c-3.321 6.607-4.725 13.741-5.64 20.984-1.284 10.161-1.243 20.356-.424 30.551.7 8.714 3.227 16.824 8.723 23.73 6.624 8.325 13.657 16.329 20.161 24.744 8.36 10.814 14.17 22.921 16.868 36.401 1.454 7.27 3.947 14.123 7.643 20.556 4.847 8.437 11.177 15.659 18.218 22.28 7.416 6.974 14.057 14.587 19.627 23.114 4.155 6.36 7.996 12.945 12.46 19.078 5.623 7.724 11.823 15.024 17.613 22.63 4.544 5.967 9.417 11.603 15.005 16.613 1.123 1.007 2.206 1.873 3.881 1.202 7.277-2.911 14.038-6.698 20.116-11.67.703-.414 1.44-.78 2.104-1.25 13.088-9.293 26.2-18.553 39.236-27.92 6.613-4.753 13.082-9.705 19.617-14.567.644-.387 1.327-.721 1.926-1.168 8.612-6.43 16.318-13.832 23.51-21.796 1.1-1.218 1.495-2.385.971-3.951-2.146-6.416-4.25-12.845-6.368-19.27-3.192-9.686-6.206-19.435-9.632-29.036-2.572-7.208-5.771-14.19-8.52-21.338a5565.054 5565.054 0 0 1-18.075-47.597c-3.29-8.797-6.004-17.757-6.785-27.204a4983.15 4983.15 0 0 0-3.339-38.474c-.695-7.686-2.488-15.111-5.567-22.218-3.552-8.197-8.944-15.032-14.918-21.615-7.275-8.016-16.32-12.664-26.422-15.661-9.556-2.836-19.409-2.712-29.244-2.614l-.769-.01-2.651.024c-.126-.014-.255-.055-.376-.038-14.848 2.077-29.628 4.474-43.867 9.396-2.272.776-4.59 1.442-6.799 2.37-1.289.54-2.412 1.485-3.59 2.278-.624.42-1.167.968-1.81 1.351-6.625 3.946-13.266 7.862-19.895 11.8-5.04 2.994-9.329 6.88-13.224 11.226-3.928 4.262-7.977 8.42-11.75 12.816-3.596 4.19-6.372 8.924-8.014 14.253zm177.327-41.999-.543.415c.327.512.661 1.019.98 1.536 2.09 3.394 4.376 6.685 6.223 10.207 4.312 8.226 6.82 17.002 7.709 26.28 1.015 10.6 2.323 21.172 3.387 31.768.748 7.454 1.299 14.984 3.828 22.06 5.973 16.703 12.18 33.324 18.455 49.918 4.279 11.318 8.995 22.471 13.2 33.815 2.661 7.18 4.659 14.605 7.108 21.867 2.104 6.24 4.44 12.401 6.642 18.608.444 1.25.75 2.55 1.119 3.828l.598-.085c.105-1.098.406-2.22.278-3.29-.441-3.699-.6-7.51-1.665-11.037-1.717-5.688-4.003-11.21-6.164-16.757-6.325-16.233-12.752-32.426-19.051-48.668-5.314-13.7-10.654-27.394-15.696-41.196-3.003-8.22-5.466-16.705-6.018-25.462-.618-9.792-.428-19.634-.632-29.454-.083-4.048.17-8.17-.509-12.125-1.58-9.207-6.066-17.143-11.967-24.276-2.289-2.766-4.847-5.308-7.282-7.952zM239.5 168.267c-.046.043-.127.084-.13.129-.003.046.072.096.113.145.044-.046.122-.09.123-.137.002-.047-.072-.096-.106-.137z" opacity="1" data-original="#4c2703" class=""></path><path fill="#fcfae0" d="M458.306 387.614c-6.535 4.862-13.004 9.814-19.617 14.567-13.035 9.368-26.148 18.627-39.236 27.92-.663.47-1.401.836-2.104 1.25-.835-.774-1.703-1.516-2.498-2.33-5.144-5.253-10.3-10.494-15.388-15.802-1.482-1.545-2.813-3.247-4.108-4.957-3.235-4.273-6.302-8.676-9.634-12.869-4.477-5.634-9.047-11.2-13.752-16.644-4.056-4.694-8.307-9.284-13.972-12.093-7.05-3.495-13.326-7.936-18.607-13.804-3.658-4.064-6.842-8.437-9.425-13.254-2.96-5.521-4.67-11.485-5.878-17.563-2.717-13.674-8.467-26.08-15.772-37.78-4.715-7.553-11.148-13.735-17.45-19.972-5.44-5.385-10-11.448-13.04-18.476-1.693-3.916-3.63-8.07-3.859-12.206-.487-8.77-.012-17.602.258-26.402.073-2.36.604-4.77 1.315-7.036 2.466-7.85 6.28-15.012 11.299-21.558 5.008-6.532 10.737-12.224 17.81-16.534 6.333-3.859 11.434-9.164 16.521-14.469.593-.617 1.301-1.141 2.012-1.627 3.525-2.41 6.914-4.884 7.946-9.434.993-4.374-.42-8.062-2.947-11.497 14.239-4.922 29.019-7.32 43.867-9.396.121-.017.25.024.376.038l2.651-.024.77.01c.197.245.356.54.599.727 5.604 4.308 11.238 8.576 16.823 12.908 7.151 5.548 13.741 11.573 19.231 18.924 3.933 5.266 9.097 9.603 13.628 14.433 3.01 3.21 6.465 6.208 8.677 9.922 4.542 7.625 8.368 15.676 12.526 23.53.749 1.414.353 2.335-.601 3.546-1.217 1.543-2.675 3.393-2.798 5.194-.23 3.404-.077 6.998.792 10.282 2.81 10.614 6.026 21.12 9.063 31.675 1.081 3.757 2.098 7.532 3.145 11.3-.632-.019-1.263-.053-1.895-.052-2.667.004-4.44 1.175-5.29 3.479-.956 2.59-.372 5.024 1.605 6.698 2.44 2.065 5.479 1.679 8.607-1.095.132.678.211 1.372.404 2.033 1.13 3.865 2.21 7.747 3.448 11.578 3.49 10.793 6.726 21.685 10.682 32.307 3.344 8.98 7.633 17.603 11.324 26.46a20.823 20.823 0 0 1 1.537 6.924c.229 4.997.089 10.012.053 15.02-.006.933.005 1.997-.419 2.764-.448.81-1.362 1.4-2.162 1.958-.377.262-.973.19-1.454.327-6.026 1.704-7.398 7.528-6.82 13.186.272 2.67 1.152 5.278 1.757 7.914zM406.388 249.68c-3.337-.023-5.95 2.479-5.992 5.737-.043 3.235 2.589 6.021 5.732 6.068 3.32.05 6.075-2.633 6.075-5.914 0-3.39-2.446-5.868-5.815-5.89zm-65.8-115.056c-.037-2.932-2.875-5.712-5.769-5.652-2.931.061-5.722 2.965-5.617 5.846.103 2.831 2.985 5.537 5.795 5.439 2.957-.103 5.629-2.794 5.592-5.633zm-34.884 121.922c-2.687.034-4.383 1.95-4.334 4.898.04 2.418 1.926 4.235 4.398 4.236 2.651 0 4.838-2.246 4.728-4.857-.094-2.213-2.44-4.306-4.792-4.277zm81.914 41.513c2.76.02 4.703-1.744 4.755-4.316.045-2.25-2.329-4.473-4.757-4.452-2.178.018-4.228 2.133-4.318 4.453-.085 2.192 2.024 4.298 4.32 4.315zm-18.077-59.192c.01 2.413 1.893 4.291 4.33 4.322 2.024.025 4.297-2.211 4.365-4.294.073-2.247-2.175-4.452-4.524-4.436-2.43.017-4.182 1.868-4.171 4.408zm-52.09-37.918c2.297-.017 4.13-1.816 4.117-4.04-.014-2.396-1.792-4.253-4.127-4.309-2.185-.053-4.278 2.034-4.24 4.227.04 2.377 1.857 4.14 4.25 4.122zm97.044 172.28c-.009-2.242-1.764-4.011-3.918-3.95-2.139.06-3.749 1.763-3.718 3.931.034 2.444 1.535 4.032 3.81 4.033 2.211 0 3.835-1.703 3.826-4.014zm-150-144.114c-2.157-.013-3.816 1.538-3.842 3.592-.026 1.963 1.99 4.048 3.857 3.989 1.92-.061 3.728-2.062 3.726-4.122-.002-1.947-1.624-3.446-3.741-3.459zm183.892 95.87c-.026-2.203-1.518-3.717-3.658-3.71-1.898.008-3.923 1.921-3.902 3.686.024 1.894 2.084 3.901 3.972 3.87 2.01-.034 3.613-1.75 3.588-3.846zm-22.819-31.13c-2.235-.017-3.834 1.577-3.81 3.798.02 1.681 1.815 3.372 3.646 3.432 1.925.064 3.75-1.704 3.805-3.687.052-1.88-1.64-3.528-3.64-3.543zM302.522 161.727c.01 1.858 1.631 3.442 3.496 3.414 2-.03 3.647-1.616 3.673-3.536.021-1.56-2.15-3.677-3.753-3.66-1.893.02-3.426 1.717-3.416 3.782zm78.848 228.71c.004-2.046-1.557-3.683-3.487-3.656-1.819.025-3.37 1.601-3.37 3.423 0 1.795 1.914 3.835 3.63 3.728 1.684-.105 3.614-1.689 3.227-3.496zm73.502-24.545c.054-2.128-1.062-3.403-3.05-3.485-2.047-.085-3.771 1.432-3.819 3.359-.052 2.124 1.122 3.444 3.113 3.498 2.079.057 3.707-1.405 3.757-3.372zm-91.082-39.677c-1.674.019-3.32 1.578-3.36 3.182-.041 1.678 1.642 3.318 3.408 3.322 2.175.004 3.48-1.286 3.425-3.382-.054-1.996-1.332-3.145-3.473-3.122zm26.307-106.59c.007 2.12 1.222 3.394 3.237 3.394 1.64.001 3.212-1.654 3.213-3.385.002-1.526-1.758-3.114-3.432-3.098-1.892.018-3.024 1.177-3.018 3.09zm-35.233 56.351c-1.55.009-3.17 1.615-3.2 3.172-.03 1.538 1.638 3.278 3.112 3.247 1.615-.033 3.352-1.748 3.319-3.277-.033-1.545-1.683-3.15-3.23-3.142zm26.168 80.342c-1.615-.044-2.994 1.162-3.086 2.698-.097 1.61 1.25 2.987 2.956 3.019 1.584.03 2.974-1.235 3.049-2.775.065-1.344-1.482-2.904-2.919-2.942zm-14.74-172.515c1.377.014 2.822-1.264 2.816-2.489-.007-1.228-1.457-2.495-2.835-2.478-1.505.019-2.355.769-2.421 2.279-.072 1.636.902 2.673 2.44 2.688zm3.658 24.215c.081-1.597-.884-2.304-2.282-2.45-1.237-.13-2.793 1.353-2.587 2.496.233 1.296.851 2.38 2.451 2.403 1.598.023 2.408-.775 2.418-2.45zm-71.282 7.266c-.814-.587-1.566-1.517-2.457-1.677-1.22-.22-2.12.51-2.09 2.009.03 1.537.773 2.142 2.25 2.098 1.322-.039 1.97-.667 2.297-2.43zm48.81-1.426.882-.025c.568-.825 1.53-1.614 1.61-2.484.112-1.25-.97-1.974-2.25-2-1.43-.029-2.18 1.059-2.025 2.173.118.845 1.155 1.562 1.783 2.336zm-17.511 24.458c.162-1.321-.83-2.072-2.032-1.852-.81.149-1.862 1.118-2.07 1.912-.333 1.272.593 2.098 1.976 2.17 1.416.074 2.125-.605 2.126-2.23zm69.726 98.078-.014.917c.801.602 1.553 1.601 2.417 1.71a1.789 1.789 0 0 0 1.982-2.16c-.175-.826-1.208-1.986-1.93-2.04-.774-.059-1.633 1-2.455 1.573zM328.81 322.98c.132-1.446-.778-2.01-2.055-2.05-1.358-.044-2.33.783-2.032 2.073.184.799 1.184 1.797 1.982 1.977 1.177.266 2.195-.435 2.105-2zm78.55-135.384c-1.454-.083-1.975.867-1.977 2.121-.002 1.415 1.13 2.161 2.233 1.937.75-.153 1.648-1.267 1.84-2.098.316-1.373-.68-2.01-2.096-1.96zm-24.84-39.023c-.04-1.79-.618-2.463-1.863-2.483-1.203-.02-2.154.568-1.875 1.757.182.776 1.086 1.76 1.834 1.934 1.003.233 1.93-.466 1.904-1.208z" opacity="1" data-original="#fcfae0"></path><path fill="#e79a44" d="M217.98 51.129c-6.644 1.852-13.454 3.256-19.9 5.642-17.418 6.449-31.872 17.329-44.2 31.08-4.55 5.075-7.975 10.967-10.974 17.066-4.165 8.471-8.272 16.974-12.239 25.539-3.558 7.683-5.212 15.856-5.657 24.293-.58 10.989-.126 21.924 1.538 32.808 1.08 7.059 3.24 13.787 5.824 20.423 4.419 11.341 6.95 23.179 8.693 35.182 2.714 18.685 5.376 37.377 7.916 56.086 2.243 16.528 5.367 32.883 9.033 49.148 1.015 4.505 1.652 9.095 2.463 13.646-.313-.04-.655-.011-.935-.128-5.537-2.303-11.193-4.364-16.567-7.002-7.143-3.506-14.039-7.515-21.09-11.212-7.004-3.672-13.026-8.633-18.939-13.804-4.416-3.86-9.129-7.38-13.64-11.135-2.272-1.893-4.772-3.69-6.498-6.026-3.821-5.174-7.314-10.602-10.739-16.053-1.288-2.05-2.388-4.364-2.927-6.706-1.354-5.889-2.396-11.852-3.46-17.804-2.373-13.268-4.882-26.515-6.945-39.832-1.349-8.703-2.07-17.507-2.962-26.277-.51-5.018-.84-10.056-1.184-15.089-.534-7.805-1.202-15.607-1.458-23.422-.25-7.669-.055-15.352-.061-23.029 0-.633-.075-1.266-.065-1.898.073-4.407-.463-8.937.383-13.191 1.385-6.961 3.198-13.924 5.739-20.538 1.821-4.742 5.07-8.949 7.781-13.332 3.382-5.467 8.43-9.396 13-13.755 1.965-1.873 4.127-3.54 6.08-5.423 1.199-1.155 2.173-2.541 3.247-3.823l-.004.012.738-.501c5.614-2.783 11.156-5.726 16.856-8.317 13.368-6.078 27.302-10.507 41.596-13.823.484-.112.95-.308 1.423-.465 1.162.214 2.318.574 3.486.617 5.05.184 10.105.276 15.158.4 5.37.133 10.738.346 16.108.376 10.385.06 20.77.01 31.156.026.742 0 1.483.157 2.225.24z" opacity="1" data-original="#e79a44"></path><path fill="#faeaa2" d="M308.18 125.044c2.527 3.435 3.94 7.123 2.947 11.497-1.032 4.55-4.42 7.024-7.946 9.434-.71.486-1.419 1.01-2.012 1.627-5.087 5.305-10.188 10.61-16.52 14.469-7.074 4.31-12.803 10.002-17.811 16.534-5.02 6.546-8.833 13.707-11.299 21.558-.711 2.265-1.242 4.676-1.315 7.036-.27 8.8-.745 17.631-.258 26.402.23 4.135 2.166 8.29 3.86 12.206 3.04 7.028 7.598 13.09 13.04 18.476 6.3 6.237 12.734 12.418 17.45 19.972 7.304 11.7 13.054 24.106 15.77 37.78 1.209 6.078 2.919 12.042 5.879 17.563 2.583 4.817 5.766 9.19 9.425 13.254 5.281 5.868 11.558 10.31 18.607 13.804 5.665 2.809 9.916 7.4 13.972 12.093 4.705 5.444 9.275 11.01 13.752 16.644 3.332 4.193 6.4 8.596 9.634 12.869 1.295 1.71 2.626 3.412 4.108 4.957 5.087 5.308 10.243 10.55 15.387 15.803.796.813 1.664 1.555 2.499 2.33-6.078 4.97-12.84 8.758-20.116 11.669-1.675.67-2.758-.195-3.88-1.202-5.59-5.01-10.462-10.646-15.006-16.614-5.79-7.605-11.99-14.905-17.612-22.629-4.465-6.133-8.306-12.718-12.461-19.078-5.57-8.527-12.211-16.14-19.627-23.113-7.04-6.622-13.37-13.844-18.218-22.28-3.696-6.434-6.189-13.288-7.643-20.557-2.698-13.48-8.509-25.588-16.868-36.401-6.504-8.415-13.537-16.419-20.161-24.744-5.496-6.906-8.022-15.016-8.723-23.73-.82-10.195-.86-20.39.424-30.551.915-7.243 2.319-14.377 5.64-20.984.362-.213.82-.348 1.072-.652 5.735-6.93 11.5-13.836 17.12-20.856 1.218-1.52 2.764-3.231 1.572-5.561 3.896-4.346 8.183-8.232 13.224-11.226 6.629-3.938 13.27-7.855 19.895-11.8.643-.383 1.186-.931 1.81-1.351 1.178-.793 2.302-1.737 3.59-2.278 2.209-.928 4.527-1.594 6.799-2.37zm-1.077 212.05c.007-2.145-1.354-4.02-2.906-4.005-1.718.017-3.402 2.025-3.453 4.117-.043 1.781 1.4 3.43 3.044 3.477 1.723.05 3.309-1.667 3.315-3.59zm56.728 73.298c.007 1.873 1.308 3.088 3.274 3.058 1.608-.025 2.857-1.411 2.817-3.126-.041-1.71-1.825-3.404-3.505-3.327-1.5.068-2.593 1.503-2.586 3.395z" opacity="1" data-original="#faeaa2"></path><path fill="#e46e20" d="M89.237 72.563c-1.074 1.282-2.048 2.668-3.246 3.823-1.954 1.883-4.116 3.55-6.08 5.423-4.571 4.358-9.619 8.288-13 13.755-2.713 4.383-5.96 8.59-7.782 13.332-2.54 6.613-4.354 13.577-5.739 20.538-.846 4.254-.31 8.784-.383 13.19-.01.633.064 1.266.065 1.9.006 7.676-.19 15.36.061 23.028.256 7.815.924 15.617 1.458 23.422.344 5.033.674 10.07 1.184 15.089.893 8.77 1.613 17.574 2.962 26.277 2.063 13.317 4.572 26.564 6.945 39.832 1.064 5.952 2.106 11.915 3.46 17.804.539 2.342 1.64 4.657 2.927 6.706 3.425 5.451 6.918 10.879 10.74 16.053 1.725 2.337 4.225 4.133 6.498 6.026 4.51 3.756 9.223 7.274 13.639 11.135 5.913 5.17 11.935 10.132 18.938 13.804 7.052 3.697 13.947 7.706 21.091 11.212 5.374 2.638 11.03 4.7 16.567 7.002.28.117.622.088.935.128l.858 1.513 2.15 11.033c-1.168-.605-2.373-1.149-3.497-1.828-2.377-1.434-4.603-3.161-7.087-4.366-4.194-2.035-8.509-3.834-12.829-5.596-12.829-5.232-25.59-10.61-37.756-17.283-9.98-5.473-20.007-10.863-29.874-16.531-4.974-2.858-9.643-6.246-14.442-9.407-1.62-1.068-3.217-2.174-4.824-3.262-1.25-4.776-2.396-9.582-3.77-14.322-5.21-17.96-9.577-36.113-12.572-54.58-1.094-6.748-2.212-13.493-3.134-20.265-1.202-8.841-2.227-17.707-3.314-26.564-.438-3.567-.838-7.138-1.256-10.708-.293-6.625-.494-13.256-.902-19.874-.546-8.883-.275-17.71 1.162-26.503 2.004-12.264 6.704-23.444 13.487-33.785 7.46-11.373 17.336-20.258 28.82-27.377 5.32-3.297 10.864-6.235 16.314-9.322.374-.212.816-.304 1.226-.452z" opacity="1" data-original="#e46e20"></path><path fill="#fbf9de" d="M339.903 107.467c-5.137 1.066-10.305 2.002-15.406 3.22-21.41 5.113-41.936 12.487-60.667 24.288-3.683 2.32-7.184 4.931-10.77 7.409-2.038-.16-4.08-.29-6.114-.489-1.428-.14-2.495.323-3.537 1.354-.998.986-2.295 2.33-3.48 2.349-4.048.067-6.945 2.09-9.575 4.736-3.658 3.681-7.487 7.235-10.767 11.234-3.22 3.925-6.44 8.054-8.601 12.598-4.173 8.774-7.597 17.904-11.338 26.884-2.104 5.051-3.312 10.329-3.717 15.762-.295 3.967-.214 7.96-.473 11.93-.108 1.663-.663 3.296-1.016 4.943-4.996-13.438-8.596-27.206-9.118-41.599-.522-14.395 3.706-27.534 11.504-39.514 9.818-15.084 22.009-27.994 36.878-38.154 15.879-10.85 32.744-19.746 51.707-24.075 8.48-1.936 17.086-2.098 25.716-2.081 2.854.005 5.71-.051 8.563-.003 1.513.026 3.023.216 4.534.332.445.47.806 1.102 1.348 1.382 2.074 1.07 4.231 1.98 6.309 3.043 1.455.744 2.604 1.805 2.629 3.63.045 3.4 1.409 6.193 3.816 8.56.644.632 1.056 1.5 1.575 2.26zm-89.256 12.716c-3.013-.051-4.823 1.523-4.886 4.249-.072 3.073 1.533 4.865 4.409 4.924 2.603.054 4.763-2.14 4.731-4.807-.029-2.483-1.824-4.326-4.254-4.366zm34.497-13.692c-1.912.008-3.237 1.227-3.199 2.942.034 1.538 1.354 2.734 3.023 2.74 1.421.005 3.054-1.498 3.072-2.827.02-1.519-1.341-2.861-2.896-2.855zm-90.435 84.169c-1.636.016-2.955 1.25-2.987 2.795-.035 1.618 1.352 2.972 3 2.928 1.786-.048 3.082-1.327 3.005-2.965-.075-1.605-1.355-2.775-3.018-2.758zm22.638-46.562c-1.32-.996-2.054-1.992-2.861-2.056-1.255-.1-2.265.699-2.217 2.245.045 1.45 1.071 2.216 2.202 2.056.852-.12 1.571-1.175 2.876-2.245zm96.106-39.488c1.398-.005 2.314-.57 2.36-1.95.047-1.428-.79-2.192-2.204-2.247-1.326-.051-1.928.653-1.968 1.958-.041 1.344.44 2.185 1.812 2.24z" opacity="1" data-original="#fbf9de"></path><path fill="#fcfbf2" d="M458.306 387.614c-.605-2.636-1.485-5.244-1.757-7.914-.578-5.658.794-11.482 6.82-13.186.481-.136 1.077-.065 1.454-.327.8-.558 1.715-1.148 2.162-1.958.424-.767.413-1.83.42-2.765.035-5.007.175-10.022-.054-15.019a20.823 20.823 0 0 0-1.537-6.924c-3.691-8.857-7.98-17.48-11.324-26.46-3.956-10.622-7.191-21.514-10.682-32.307-1.238-3.83-2.318-7.713-3.448-11.578-.193-.66-.272-1.354-.403-2.032.832-2.374 1.424-4.772-.45-6.923-.72-.825-1.71-1.413-2.578-2.109-1.046-3.767-2.064-7.542-3.145-11.3-3.037-10.554-6.254-21.06-9.063-31.674-.869-3.284-1.022-6.878-.791-10.282.122-1.801 1.58-3.65 2.797-5.194.954-1.211 1.35-2.132.601-3.545-4.158-7.855-7.984-15.906-12.526-23.53-2.212-3.715-5.666-6.712-8.677-9.922-4.53-4.831-9.695-9.168-13.627-14.433-5.49-7.352-12.08-13.377-19.232-18.924-5.584-4.333-11.22-8.601-16.823-12.909-.243-.186-.402-.482-.6-.727 9.836-.098 19.688-.222 29.245 2.614 10.1 2.997 19.146 7.645 26.421 15.661 5.974 6.583 11.366 13.418 14.918 21.615 3.079 7.107 4.872 14.532 5.568 22.219 1.16 12.82 2.277 25.645 3.338 38.474.781 9.446 3.495 18.406 6.785 27.203a5565.054 5565.054 0 0 0 18.075 47.597c2.749 7.148 5.948 14.13 8.52 21.338 3.427 9.601 6.44 19.35 9.632 29.035 2.117 6.426 4.222 12.855 6.368 19.271.524 1.566.13 2.733-.97 3.95-7.193 7.966-14.899 15.368-23.51 21.797-.6.447-1.283.781-1.927 1.168z" opacity="1" data-original="#fcfbf2"></path><path fill="#fbf9de" d="M140.02 186.078c-1.547-7.949-3.646-15.804-3.257-24.037.45-9.547 3.206-18.484 7.355-26.939 3.312-6.748 7.308-13.162 11.03-19.708 3.312-5.824 6.216-11.946 10.092-17.37 8.177-11.444 17.564-21.774 30.13-28.707 9.275-5.119 19.265-7.979 29.658-9.586 9.394-1.452 18.801-2.822 28.205-4.214.43-.064.879.01 1.32.02.934.607 1.797 1.405 2.815 1.79 5.952 2.253 11.939 4.416 17.924 6.582.277.1.648-.056.975-.093l2.638 1.145c.364.38.66.903 1.103 1.114 1.799.856 3.7 1.511 5.446 2.457.759.411 1.235 1.345 1.84 2.042-5.357.916-10.727 1.758-16.067 2.764-10.163 1.914-19.948 5.121-29.525 8.97-5.51 2.216-10.963 4.578-16.441 6.874-.221-.353-.358-.874-.676-1.033-2.293-1.146-4.685-2.002-7.272-1.143-5.377 1.784-10.356 4.357-14.826 7.847-5.61 4.38-11.231 8.75-16.734 13.263-2.772 2.274-5.293 4.856-7.926 7.296-1.8-1.217-2.995-1.237-4.125.175-.98 1.223-1.182 2.597.073 3.86l.008.756c-2.675 3.344-5.602 6.52-7.966 10.07-3.539 5.314-6.647 10.913-10.01 16.345-1.121 1.81-2.466 3.48-3.709 5.214-1.509-1.936-2.734-2.372-4.253-1.513-1.581.893-2.305 2.566-1.317 4.111.578.905 1.945 1.306 2.956 1.934-.083.367-.075.789-.262 1.092-3.638 5.902-5.5 12.399-6.709 19.17-.57 3.197-1.646 6.304-2.493 9.452zm60.07-100.227c-.024-1.841-1.547-3.371-3.333-3.348-1.953.026-3.53 1.576-3.517 3.457.014 1.87 1.63 3.434 3.515 3.402 1.99-.035 3.36-1.478 3.334-3.51zm21.16-8.69c-1.738-.032-2.852.84-2.888 2.261-.042 1.664.95 2.665 2.688 2.716 1.604.047 2.602-.81 2.642-2.267.044-1.621-.913-2.683-2.442-2.71zm20.71-10.626c-.407-1.763-1.114-2.406-2.419-2.319-1.256.084-2.265.521-2.146 2.048.103 1.326.892 2.302 2.171 2.047.881-.175 1.602-1.156 2.394-1.776z" opacity="1" data-original="#fbf9de"></path><path fill="#f9e9a0" d="M194.442 233.685c.352-1.647.908-3.28 1.016-4.943.26-3.97.177-7.963.473-11.93.405-5.433 1.613-10.71 3.717-15.762 3.74-8.98 7.165-18.11 11.338-26.885 2.16-4.543 5.381-8.672 8.6-12.597 3.28-3.999 7.11-7.553 10.768-11.233 2.63-2.647 5.527-4.67 9.575-4.737 1.185-.02 2.482-1.363 3.48-2.35 1.042-1.03 2.109-1.492 3.537-1.353 2.035.199 4.076.33 6.115.489-8.673 7.043-16.568 14.891-23.929 23.277-7.386 8.415-14.104 17.297-18.277 27.817-5.285 13.325-8.043 27.066-6.6 41.476 1.414 14.124 6.62 26.794 15.191 37.975 4.612 6.016 9.713 11.71 15.042 17.108 5.188 5.256 8.696 11.333 10.867 18.25 2.275 7.252 4.17 14.626 6.55 21.842 1.562 4.734 3.744 9.26 5.534 13.923.675 1.757.981 3.652 1.54 5.458 3.159 10.225 7.777 19.824 13.09 29.054 5.937 10.316 12.24 20.424 18.484 30.562 1.643 2.667 3.651 5.11 5.688 7.928-7.41.562-14.167-.73-20.777-3.055l-3.755-7.062c.314.01.628.03.943.029 2.06-.01 3.38-1.257 3.203-3.02-.187-1.856-1.88-3.207-3.751-2.609-.913.292-1.553 1.438-2.316 2.198-.157-.103-.38-.17-.463-.315-2.799-4.862-5.631-9.706-8.348-14.614-1.035-1.871-1.8-3.892-2.687-5.845l-.418.54c-1.105-.601-2.514-.958-3.24-1.864-1.006-1.253-.603-2.688.639-3.894.31-.302.202-1.292-.02-1.844a3791.11 3791.11 0 0 0-9.47-23.38c-3.584-8.78-6.974-17.647-10.834-26.304-5.01-11.238-11.802-21.508-18.12-32.032-2.864-4.77-5.47-9.697-8.145-14.578-1.03-1.878-1.926-3.829-2.883-5.746-2.094-13.348-5.93-26.203-10.962-38.72-.163-.405-.265-.836-.395-1.254zm30.464 55.211c-1.82-.02-3.07 1.081-3.12 2.752-.056 1.87 1.329 3.36 3.09 3.324 1.442-.03 2.947-1.597 2.995-3.121.052-1.604-1.285-2.936-2.965-2.955zm14.97 36.576c1.619.011 3.055-1.107 3.108-2.42.08-1.946-1.021-3.238-2.81-3.297-1.703-.057-3.124 1.224-3.14 2.831-.015 1.53 1.31 2.875 2.842 2.886zm18.177 56.845c1.9-.964 1.678-2.43 1.274-3.578-.454-1.287-1.678-1.725-3.303-1.233l2.029 4.811z" opacity="1" data-original="#f9e9a0"></path><path fill="#e3963f" d="m302.5 80.93-1.12.104-1.177.25-2.248.045-1.171.352-1.116.111c-3.857.606-7.727 1.14-11.568 1.83-14.742 2.643-28.49 7.995-41.452 15.42-.699.4-1.098 1.322-1.637 2.002l.462.667c1.024-.316 2.16-.443 3.054-.977 11.595-6.939 24.094-11.49 37.29-14.2 10.062-2.065 20.25-3.156 30.495-3.775l.891 1.616c-3.482.039-6.978-.096-10.444.159-4.408.324-8.792.963-13.186 1.466-5.65 1.443-11.493 2.377-16.902 4.447-8.31 3.18-16.422 6.938-24.422 10.85-4.642 2.27-8.902 5.322-13.334 8.023l-.277-.268c.574-.734 1.22-1.423 1.702-2.213.507-.833.858-1.761 1.278-2.648l-.665-.53c-1.126.74-2.321 1.393-3.367 2.232-10.267 8.236-21.448 15.303-30.903 24.587-6.563 6.445-12.4 13.328-16.38 21.71-4.382 9.226-6.865 19.041-9.327 28.872-.156.626.097 1.354.16 2.034l.707.173c.407-.698.966-1.35 1.197-2.102 1.32-4.297 2.527-8.628 3.835-12.93 4.58-15.07 12.174-28.205 24.641-38.188 2.903-2.325 5.83-4.619 8.746-6.927.072.041.14.087.206.138l-2.391 3.002-.688.735-4.249 4.566s.017-.018.018-.017l-1.595 1.56-1.027 1.133c-1.218 1.283-2.47 2.535-3.648 3.854-6.55 7.333-11.988 15.4-15.889 24.45-7.257 16.835-6.985 34.005-2.19 51.362 1.497 7.255 3.338 14.41 6.108 21.302.777 1.93 1.492 3.886 2.235 5.83l1.446 4.934L191 245.1l-3.161-9.503c-4.032-12.106-7.218-24.4-8.196-37.175-.273-3.564-.377-7.14-.558-10.712-2.788.299-3.093.625-2.9 3.288.168 2.334.39 4.665.59 6.997.829 9.685 2.717 19.166 5.497 28.473 1.666 5.58 3.355 11.152 5.034 16.727-.672-.132-1.344-.269-2.017-.396-6.083-1.152-11.752-4.526-18.258-3.407l-.79-.929c-.855-1.96-1.678-3.933-2.568-5.877-5.221-11.416-7.487-23.374-6.265-35.882 1.748-17.9 6.799-34.923 14.606-51.07 2.377-4.918 5.324-9.761 8.905-13.855 7.043-8.05 14.735-15.52 24.053-21.06 4.353-2.587 8.52-5.508 12.98-7.888 4.848-2.586 9.92-4.758 14.925-7.043 11.429-5.217 22.994-10.183 35.374-12.598 8.623-1.682 17.4-2.589 26.122-3.736 4.079-.536 8.191-.82 12.289-1.22l.057 1.657-4.22 1.04z" opacity="1" data-original="#e3963f"></path><path fill="#e1953f" d="M164.68 363.928c-1.231-6.397-2.43-12.8-3.703-19.189-1.534-7.696-3.324-15.346-4.656-23.077-2.053-11.919-3.803-23.89-5.699-35.836-.674-4.252-1.553-8.478-2.07-12.748-.943-7.788-1.469-15.63-2.571-23.394-1.12-7.887-2.822-15.69-4.095-23.557-1.643-10.16-6.185-19.417-8.85-29.242-1.285-4.74-2.061-9.677-2.483-14.575-.685-7.952-1.1-15.94-1.24-23.921-.163-9.237 1.636-18.176 5.524-26.6 4.595-9.955 9.245-19.887 14.014-29.761 4.122-8.534 10.573-15.273 17.542-21.475 4.004-3.562 8.175-7.099 12.77-9.8 8.121-4.773 16.308-9.675 25.564-11.983 6.317-1.575 12.79-2.554 19.224-3.617 6.186-1.022 12.409-1.812 18.618-2.691.432-.062.88-.015 1.321-.019l.39.771c-5.857.974-11.682 2.267-17.577 2.856-13.344 1.335-25.484 5.91-36.843 12.822-11.166 6.797-19.648 16.353-27.013 26.919-3.503 5.025-6.355 10.509-9.437 15.822-3.495 6.026-7.156 11.973-10.312 18.175-4.087 8.03-7.603 16.35-8.938 25.36-1.508 10.184-.691 20.272 2.306 30.091 2.42 7.931 5.657 15.625 7.846 23.612 2.02 7.373 3.231 14.977 4.613 22.514 1.93 10.528 3.741 21.079 5.505 31.637 3.07 18.369 6.126 36.74 9.071 55.13 2.509 15.668 6.335 31.033 10.335 46.365.442 1.692.777 3.412 1.16 5.12-.45-.216-.891-.459-1.355-.642-2.651-1.048-5.307-2.082-7.962-3.121l-.999-1.946z" opacity="1" data-original="#e1953f"></path><path fill="#e26e20" d="M167.03 239.392c6.507-1.119 12.176 2.255 18.259 3.407.673.127 1.345.263 2.016.395 1.973 5.293 3.9 10.605 5.933 15.875 2.384 6.178 2.702 12.654 2.945 19.151l-.16 2.742.018.61.16 5.46.098 1.115.784 4.189.259.786.386.925.383 1.328c.8 1.64 1.434 3.387 2.427 4.899 5.285 8.05 9.673 16.568 13.542 25.371 1.08 2.46 2.306 4.856 3.464 7.281l-.107.04s.01.114.01.114c.238.774.445 1.558.715 2.32 1.167 3.29 2.353 6.574 3.532 9.86-.222.642-.588 1.272-.64 1.927a133.85 133.85 0 0 0-.394 7.364c-.159 7.017-.35 14.035-.352 21.052 0 3.01.449 6.02.67 9.031.254 3.45.483 6.9.722 10.35-1-1.899-2.175-3.727-2.961-5.71-1.704-4.298-3.226-8.67-4.79-13.022-4.137-11.506-8.743-22.87-12.276-34.56-6.34-20.979-12.025-42.156-18.015-63.241-.332-1.168-.949-2.255-1.433-3.38a.31.31 0 0 0-.048-.253l-.336-1.257a.36.36 0 0 0-.01-.252c.056-.172.2-.37.157-.512-1.182-4.016-2.525-7.991-3.548-12.047-1.452-5.76-4.237-10.806-7.643-15.587-1.332-1.87-2.515-3.844-3.766-5.771z" opacity="1" data-original="#e26e20"></path><path fill="#f9e9a0" d="M159.034 269.876c-1.785-9.651-3.579-19.301-5.35-28.955a2993.05 2993.05 0 0 1-2.958-16.45c-.087-.49-.072-1-.105-1.499l.63.017c3.053 6.607 5.915 13.311 9.228 19.784 2.008 3.922 4.786 7.442 7.093 11.218 4.693 7.68 6.834 16.27 8.904 24.917 4.376 18.282 8.596 36.614 13.55 54.742 3.416 12.501 7.944 24.699 12 37.024.856 2.601.75 3.301-1.566 4.714-3.83 2.339-7.843 4.158-12.533 3.397-.16-.911-.268-1.836-.493-2.73-.314-1.253-.716-2.483-1.08-3.723.729-.182 1.51-.254 2.177-.567 1.55-.729 2.74-1.807 2.797-3.695.058-1.908-.564-3.435-2.356-4.369-1.728-.9-3.26-.598-4.71.595-.237.195-.537.314-.808.469-.763-3.508-1.623-6.998-2.265-10.527-.89-4.884-1.614-9.798-2.41-14.7.36.112.778.399 1.07.303 1.006-.333 2.512-.57 2.809-1.273.37-.878.051-2.423-.56-3.237-.662-.884-1.99-.938-3.049-.067-.282.232-.65.36-.979.536-1.68-7.203-3.344-14.41-5.045-21.61-.706-2.985-1.493-5.952-2.243-8.927 1.19-.076 2.747.557 3.17-1.182.173-.712-.083-1.753-.535-2.347-1.062-1.397-2.25-.252-3.376.124-.568-2.107-1.04-4.246-1.72-6.316a2400.986 2400.986 0 0 0-8.034-24.056c-.206-.608-.826-1.076-1.254-1.61z" opacity="1" data-original="#f9e9a0"></path><path fill="#e3963f" d="M216.87 249.97a.457.457 0 0 0-.06-.293l-.357-.734c-.78-3.841-1.738-7.656-2.308-11.528-2.63-17.867.513-34.658 10.334-49.877 4.004-6.205 8.901-11.835 13.408-17.714.31-.405.758-.703 1.142-1.051l.407.305c-.76 1.416-1.49 2.851-2.289 4.245-6.106 10.653-8.963 22.235-10.183 34.364-.873 8.677-1.213 17.314.071 25.96 1.41 9.496 4.259 18.486 9.522 26.61.582.897 1.118 1.825 1.675 2.739l.678.808-.012-.013c.904 1.207 1.774 2.442 2.72 3.617 5.573 6.925 11.163 13.836 16.748 20.751-.573-.002-1.176.115-1.712-.026-3.511-.918-6.997-1.938-10.515-2.832-2.031-.516-4.107-.859-6.162-1.28-2.263-2.886-4.463-5.825-6.803-8.648-5.75-6.94-11.294-14.004-14.785-22.432-.424-1.024-1.008-1.982-1.518-2.971z" opacity="1" data-original="#e3963f"></path><path fill="#f9f5dc" d="M205.799 273.659c.957 1.917 1.854 3.867 2.883 5.745 2.675 4.882 5.281 9.808 8.145 14.578 6.318 10.525 13.11 20.795 18.12 32.033 3.86 8.657 7.25 17.524 10.833 26.303a3791.11 3791.11 0 0 1 9.472 23.38c.22.552.329 1.543.018 1.844-1.241 1.207-1.644 2.641-.638 3.895.726.905 2.135 1.262 3.24 1.864l.418-.54c.888 1.952 1.652 3.974 2.687 5.845 2.717 4.908 5.55 9.752 8.348 14.614.084.146.306.211.463.314l1.921 3.403 3.755 7.062c-10.24-2.974-18.071-8.755-21.734-19.128-3.516-9.957-6.85-19.978-10.224-29.985-4.431-13.14-9.324-26.113-15.367-38.59-5.344-11.035-11.236-21.801-16.8-32.73-3.18-6.245-5.508-12.767-5.54-19.907z" opacity="1" data-original="#f9f5dc"></path><path fill="#e04f1c" d="M245.037 400.8c.001-.105-.01-.209-.035-.311l-.315-.922a.171.171 0 0 0 .007-.21l-.79-1.614a.84.84 0 0 0-.046-.296c-.03-.246-.014-.508-.095-.736-2.64-7.512-5.277-15.025-7.942-22.528-4.677-13.169-9.372-26.331-14.06-39.496.136-.662.295-1.32.405-1.985.401-2.414.786-4.831 1.177-7.247.5 1.02.998 2.04 1.501 3.057 5.377 10.874 9.638 22.186 13.406 33.703 3.585 10.956 7.139 21.927 11.014 32.782 3.009 8.429 8.262 15.235 16.256 19.621 5.885 3.23 12.202 5.332 18.812 6.362 3.483.543 7.17 1.14 10.562.552 3.724-.647 6.484.876 7.892 5.034-.374.049-.731.132-1.089.136-4.186.046-8.373.118-12.56.107-6.461-.016-12.927.033-19.382-.192-3.244-.114-6.646.287-9.64-1.569-.96-.594-1.942-1.148-2.914-1.72l-1.738-1.56-9.543-19.067-.52-1.445-.363-.455z" opacity="1" data-original="#e04f1c"></path><path fill="#e2501c" d="M221.7 394.984c-.24-3.45-.468-6.9-.722-10.35-.221-3.011-.67-6.02-.67-9.03.002-7.018.193-14.036.353-21.053.055-2.457.202-4.914.394-7.364.05-.655.418-1.285.64-1.926.315.757.652 1.505.943 2.272 2.47 6.503 4.931 13.01 7.395 19.517l1.44 3.773c.264.908.49 1.828.797 2.72 3.132 9.078 6.245 18.163 9.43 27.224 2.874 8.177 5.556 16.462 11.56 23.08.085.094.01.332.01.596-.28-.018-.534.012-.758-.056-5.374-1.645-10.756-3.267-16.104-4.993-.696-.225-1.383-.893-1.789-1.535-2.094-3.314-4.191-6.634-6.106-10.053-2.365-4.222-4.55-8.543-6.813-12.822z" opacity="1" data-original="#e2501c"></path><path fill="#f9e9a0" d="M152.098 151.832c1.242-1.734 2.587-3.405 3.708-5.214 3.364-5.432 6.472-11.03 10.01-16.344 2.365-3.551 5.292-6.727 7.967-10.071 3.206-.214 4.726-1.844 3.733-4.137l-3.74 3.38c-1.256-1.262-1.054-2.636-.074-3.859 1.13-1.412 2.325-1.392 4.125-.175 2.633-2.44 5.154-5.022 7.926-7.296 5.503-4.513 11.124-8.883 16.734-13.263 4.47-3.49 9.45-6.063 14.826-7.847 2.587-.859 4.979-.003 7.272 1.143.318.159.455.68.676 1.033-6.507 3.658-13.06 7.235-19.51 10.992-9.605 5.598-18.619 12-26.392 20.03-5.595 5.78-9.958 12.421-14 19.337-6.67 11.416-9.837 24.074-13.279 36.637-2.781 10.151-3.745 20.541-3.715 31.038.003 1.054.122 2.107-.099 3.246-.963-2.79-1.923-5.58-2.89-8.368-1.66-4.787-3.33-9.57-4.98-14.361-.183-.532-.253-1.103-.376-1.655.847-3.148 1.923-6.255 2.494-9.453 1.208-6.77 3.07-13.267 6.708-19.17.187-.302.18-.724.262-1.09 2.864-.812 3.51-1.932 2.614-4.533z" opacity="1" data-original="#f9e9a0"></path><path fill="#f2d576" d="M217.98 51.129c-.743-.084-1.484-.24-2.226-.241-10.386-.015-20.77.034-31.156-.026-5.37-.03-10.739-.243-16.108-.375-5.053-.125-10.107-.217-15.158-.401-1.168-.043-2.324-.403-3.486-.617 12.947-3.415 26.046-6.095 39.384-7.316 9.523-.872 19.084-1.644 28.638-1.789 17.71-.269 35.332 1.018 52.701 4.784.484.105.961.244 1.442.368l-.008.518c-1.691 0-3.383-.039-5.073.011-1.773.053-3.55.121-5.314.302A5829.365 5829.365 0 0 0 231 49.557c-4.346.468-8.68 1.044-13.02 1.572z" opacity="1" data-original="#f2d576"></path><path fill="#ebc96d" d="M420.425 139.139c2.435 2.644 4.994 5.186 7.282 7.952 5.901 7.133 10.387 15.069 11.967 24.276.679 3.955.426 8.077.51 12.125.203 9.82.013 19.662.63 29.454.553 8.757 3.015 17.243 6.019 25.462 5.042 13.802 10.382 27.496 15.696 41.196 6.3 16.242 12.726 32.435 19.05 48.668 2.162 5.547 4.448 11.07 6.165 16.757 1.065 3.527 1.224 7.338 1.665 11.037.128 1.07-.173 2.192-.278 3.29l-.598.085c-.37-1.277-.675-2.577-1.119-3.828-2.202-6.207-4.538-12.368-6.642-18.608-2.45-7.262-4.447-14.686-7.108-21.867-4.205-11.344-8.921-22.498-13.2-33.815-6.274-16.594-12.482-33.215-18.455-49.918-2.53-7.076-3.08-14.606-3.828-22.06-1.064-10.596-2.372-21.168-3.388-31.768-.888-9.278-3.396-18.055-7.708-26.28-1.847-3.522-4.133-6.813-6.223-10.207-.319-.517-.653-1.024-.98-1.536.18-.139.362-.277.543-.415z" opacity="1" data-original="#ebc96d"></path><path fill="#fcfbf2" d="M276.267 63.816c-.327.037-.698.193-.976.093-5.984-2.166-11.97-4.328-17.923-6.582-1.018-.385-1.881-1.183-2.816-1.79 10.429-.59 20.854-1.553 31.288-1.669 11.65-.129 22.177 3.994 31.888 10.274 2.42 1.565 4.83 3.15 7.735 5.046-1.028.12-1.48.206-1.933.22-9.172.28-18.344.545-27.515.828-2.908.09-5.815.224-8.722.338-.605-.696-1.08-1.63-1.84-2.042-1.745-.945-3.646-1.601-5.445-2.456-.444-.211-.74-.735-1.103-1.115.393-.199.823-.348 1.172-.606 1.411-1.046 1.54-2.62.353-3.907-.987-1.069-2.584-1.04-3.692.058-.996.987-.934 2.119-.471 3.31z" opacity="1" data-original="#fcfbf2"></path><path fill="#f9f5dc" d="M170.783 305.263c.75 2.975 1.536 5.942 2.242 8.928 1.702 7.199 3.366 14.406 5.044 21.61l.71 3.737c.796 4.902 1.521 9.816 2.41 14.7.642 3.53 1.502 7.02 2.264 10.526l-.101.69c-1.856 2.126-.67 5.41 2.215 6.131l.786.747c.365 1.24.767 2.47 1.081 3.722.225.895.333 1.82.493 2.731-3.095.166-5.68-1.046-6.818-3.85-1.851-4.558-3.57-9.225-4.733-13.996-3.12-12.801-6.216-25.623-8.749-38.55-2.277-11.619-3.774-23.39-5.654-35.088-.935-5.816-1.957-11.617-2.94-17.424.428.533 1.048 1 1.255 1.609a2400.986 2400.986 0 0 1 8.034 24.056c.678 2.07 1.151 4.209 1.718 6.316l.743 3.405z" opacity="1" data-original="#f9f5dc"></path><path fill="#511900" d="M258.366 288.16c-5.585-6.916-11.175-13.827-16.748-20.752-.946-1.175-1.816-2.41-2.72-3.617.554.315 1.249.51 1.642.964a2860.878 2860.878 0 0 1 14.046 16.396c4.457 5.232 8.333 10.893 10.889 17.263 4.516 11.253 8.802 22.6 12.985 33.981 2.403 6.538 5.786 12.576 9.632 18.251 5.194 7.664 11.11 14.838 16.7 22.233 5.214 6.896 10.41 13.806 15.609 20.713 5.575 7.409 10.989 14.945 16.762 22.196 5.068 6.366 10.528 12.422 15.83 18.602 2.509 2.923 4.855 6.02 7.627 8.672 4.085 3.906 8.006 8.136 13.757 9.788 1.147.33 2.15 1.159 3.218 1.758l.02.686c-.852.392-1.667.984-2.56 1.141-4.337.765-8.69 1.441-13.047 2.09-1.866.278-3.75.525-5.632.588-3.265.107-6.746-.634-9.743.276-2.932.89-3.815-.852-5.08-2.222-5.961-6.452-11.883-12.942-17.68-19.539-9.929-11.297-19.163-23.154-27.541-35.64-4.856-7.237-9.286-14.762-13.858-22.188-3.08-5-6.151-10.008-9.085-15.094-4.078-7.07-7.72-14.35-10.173-22.176-3.154-10.056-6.244-20.135-9.577-30.132-2.205-6.612-5.212-12.861-9.68-18.33a15.534 15.534 0 0 1-2.442-4.267c-2.246-5.936-6.32-10.6-10.347-15.31-5.598-6.55-10.67-13.443-13.805-21.562-.352-.914-.338-1.969-.494-2.958.51.988 1.094 1.946 1.519 2.97 3.49 8.428 9.034 15.492 14.785 22.432 2.34 2.824 4.539 5.763 6.802 8.649.604 1.323 1.09 2.716 1.832 3.958 2.693 4.512 5.593 8.904 8.191 13.469 4.11 7.219 6.245 15.222 8.687 23.08 2.915 9.38 5.52 18.86 9.674 27.807 6.53 14.061 14.9 27.066 23.065 40.188.084.17.151.35.254.507 9.833 14.915 20.524 29.205 31.98 42.896 5.965 7.13 12.52 13.769 18.809 20.63 1.39 1.517 3.09 1.959 5.135 1.873 8.536-.359 17.051-.895 25.477-2.391 1.017-.18 2-.557 2.999-.842-.553-.686-1.004-.9-1.476-1.05-3.735-1.186-7.139-2.987-10.008-5.662-1.896-1.768-3.673-3.67-5.43-5.58-5.057-5.494-10.19-10.923-15.077-16.567-4.053-4.682-7.797-9.632-11.677-14.463-6.607-9.045-13.1-18.177-19.851-27.112-6.944-9.19-14.311-18.062-21.18-27.305-7.445-10.02-13.262-21.01-17.29-32.828-4.05-11.882-8.167-23.706-14.401-34.666-.367-.644-.88-1.205-1.324-1.805z" opacity="1" data-original="#511900"></path><path fill="#e1953f" d="M273.22 307.177c-2.435-5.429-4.844-10.869-7.312-16.282-2.725-5.975-6.964-10.862-11.46-15.524-7.469-7.743-14.286-15.912-18.696-25.883-2.78-6.284-4.127-12.807-4.429-19.637-.204-4.604-.967-9.19-1.056-13.792-.169-8.678 1.54-17.116 3.901-25.433.311-1.096.506-2.223.793-3.327 2-7.702 6.045-14.406 10.378-20.943 2.272-3.429 4.787-6.696 7.204-10.027 3.193-4.4 7.642-7.362 11.998-10.422 1.292-.907 2.648-1.725 3.975-2.583l.529.506c-8.572 7.174-15.469 15.87-21.978 24.833-6.442 8.872-9.996 19.06-11.465 29.873-1.781 13.103-1.834 26.28-.56 39.438.654 6.765 3.144 12.916 7.296 18.308 6.723 8.728 13.532 17.391 20.321 26.069 6.038 7.718 10.403 16.315 13.498 25.582.118.353.116.746.17 1.12l-2.487-1.051-.62-.825z" opacity="1" data-original="#e1953f"></path><path fill="#fcfbf2" d="M339.903 107.467c-.519-.76-.931-1.629-1.575-2.262-2.407-2.366-3.77-5.158-3.816-8.559-.025-1.825-1.175-2.886-2.63-3.63-2.077-1.064-4.234-1.973-6.308-3.043-.543-.28-.904-.912-1.348-1.382 9.065.364 18.11 1.026 26.96 3.114 6.55 1.546 12.277 5.026 18.014 8.397 3.602 2.117 7.159 4.31 10.726 6.483.358.218.65.545.93 1.077-13.673-2.5-27.313-1.9-40.953-.195z" opacity="1" data-original="#fcfbf2"></path><path fill="#da691f" d="m273.84 308.001 2.487 1.051-.06.014.44.781 1.42 3.06c1.063 7.437 3.127 14.592 6.219 21.432 6.166 13.639 16.167 24.286 27.201 33.99 5.056 4.445 9.4 9.359 13.064 14.936 5.348 8.14 10.554 16.375 16.016 24.437 2.689 3.97 5.817 7.641 8.746 11.447l-5.707-1.146c-3.322-4.224-6.642-8.45-9.965-12.674-2.381-3.026-4.767-6.048-7.15-9.072l.017.01-1.528-1.921.02.003-.794-1.203-.264-.319-1.252-1.525.02.005-.81-1.147-.263-.374-1.24-1.526.02.01-.765-.928-.683-.983-.863-1.141.017.011-1.174-1.54-.286-.37-.851-1.167-.302-.353-.808-.94-.682-.974-.869-1.137.016.013-.725-.818v.04l-.44-.752.015.012-1.158-1.558-.295-.36-.862-1.122-.294-.398-.849-1.125-.664-.783-.843-1.14.013.013-1.53-1.923.015.012-1.526-1.927.018.01c-.26-.28-.52-.561-.778-.842l-.302-.302-.85-1.188-.65-.723c-.55-.905-1.015-1.877-1.663-2.707-8.466-10.854-15.532-22.524-20.27-35.486-2.128-5.82-3.846-11.79-5.75-17.693zM223.343 325.455c-.39 2.416-.776 4.833-1.177 7.247-.11.666-.269 1.323-.405 1.984-.75-1.599-1.536-3.182-2.245-4.799-4.678-10.675-9.584-21.213-16.023-31.002-1.833-2.785-2.813-6.179-3.898-9.39-.633-1.877-.7-3.946-1.021-5.928l-.276-2.666c-.103-3.77-.106-7.545-.336-11.307-.306-5.035-1.945-9.748-3.693-14.44-1.23-3.3-2.189-6.7-3.269-10.054l3.597.871c.852 2.492 1.912 4.935 2.52 7.485 1.622 6.798 3.355 13.591 4.471 20.48 1.241 7.66 2.51 15.21 6.574 22.013 2.4 4.018 4.673 8.12 6.798 12.29 2.897 5.686 5.598 11.473 8.383 17.216z" opacity="1" data-original="#da691f"></path><path fill="#e04f1c" d="m343.666 418.003 5.707 1.147c.262.267.563.506.78.805 6.018 8.284 12.658 16.041 19.768 23.404 1.281 1.327 2.697 2.04 4.631 2.145 7.481.406 13.025-3.736 18.686-7.667l1.824-1.175.445-.359.742-.263.808-.79-.03-.01c.252-.142.504-.282.755-.422l.007.023 1.942-1.187.668-.397 1.169-.77 1.515-1.08 1.223-.799 1.049-.763 1.159-.778-.011.012 1.153-.782 1.911-1.318c.259-.185.517-.369.776-.552v.024l1.133-.8-.01.017 1.155-.774-.01.017 1.18-.788.355-.277 1.149-.844v.02c.383-.208.782-.39 1.145-.628 2.645-1.73 5.282-3.47 7.922-5.206l2.395 1.747c-.663.575-1.287 1.202-1.994 1.717-10.544 7.684-21.054 15.417-31.677 22.99-3.647 2.6-7.535 4.876-11.409 7.135-2.122 1.239-4.407 1.137-6.443-.387-2.886-2.162-6.005-4.106-8.526-6.64-5.177-5.204-10.074-10.692-14.985-16.155-2.79-3.104-5.378-6.388-8.057-9.592z" opacity="1" data-original="#e04f1c"></path><path fill="#4e2100" d="M234.915 109.32c4.432-2.7 8.692-5.753 13.334-8.023 8-3.912 16.112-7.67 24.422-10.85 5.41-2.07 11.253-3.004 16.902-4.447-.557.312-1.08.787-1.676.912-10.567 2.224-20.403 6.489-30.128 10.978-5.49 2.535-10.808 5.466-16.092 8.42-3.076 1.72-5.872 3.936-8.915 5.722-1.088.64-2.531.676-3.814.981-.358.085-.857.02-1.06.24-1.223 1.322-2.343 2.74-3.567 4.062a141.514 141.514 0 0 1-4.759 4.903 54.849 54.849 0 0 1-3.809 3.404c-.44.358-1.11.435-1.676.64l2.391-3.002.667-.25-.232-.433-.641.545c-2.916 2.308-5.843 4.602-8.745 6.926-12.468 9.984-20.062 23.12-24.642 38.19-1.308 4.3-2.516 8.632-3.835 12.929-.231.752-.79 1.404-1.197 2.102l-.707-.173c-.063-.68-.316-1.408-.16-2.034 2.463-9.83 4.945-19.646 9.326-28.872 3.981-8.382 9.818-15.265 16.381-21.71 9.455-9.284 20.636-16.351 30.903-24.587 1.046-.84 2.241-1.492 3.367-2.231l.665.529c-.42.887-.77 1.815-1.278 2.648-.482.79-1.128 1.48-1.701 2.213-.19.143-.39.273-.556.438-.03.03.087.205.136.312l.696-.482z" opacity="1" data-original="#4e2100"></path><path fill="#511900" d="M29.13 189.876c.418 3.57.818 7.14 1.256 10.708 1.087 8.857 2.112 17.722 3.314 26.564.921 6.772 2.04 13.517 3.134 20.264 2.995 18.468 7.361 36.62 12.571 54.581 1.375 4.74 2.52 9.546 3.77 14.322 1.299 4.625 2.733 9.218 3.838 13.888.555 2.349 1.66 3.981 3.683 5.226 11.137 6.855 22.81 12.689 34.67 18.15a13110.958 13110.958 0 0 0 61.182 27.961c3.429 1.558 7.004 2.793 11.08 4.4l-4.142-11.352-2.152-11.033c.546 1.413 1.166 2.802 1.624 4.242 1.585 4.983 3.135 9.976 4.646 14.981.315 1.043.408 2.153.604 3.231-1.201-.068-2.521.165-3.584-.254a854.68 854.68 0 0 1-21.072-8.602c-5.222-2.22-10.386-4.585-15.52-7.003-6.4-3.014-12.726-6.184-19.115-9.22-8.394-3.99-16.882-7.782-25.207-11.909-6.156-3.051-12.125-6.485-18.159-9.782-2.163-1.182-4.382-2.312-6.367-3.754-1.146-.832-2.344-2.103-2.718-3.406-2.28-7.936-4.314-15.942-6.461-23.916-1.574-5.844-3.332-11.642-4.767-17.519-2.57-10.53-5.148-21.065-7.367-31.673-1.79-8.558-3.178-17.207-4.516-25.852-.982-6.342-1.609-12.74-2.366-19.116-.772-6.5-1.567-12.999-2.22-19.511-.152-1.511.227-3.076.361-4.616zM223.343 325.455c-2.785-5.743-5.486-11.53-8.384-17.216a209.552 209.552 0 0 0-6.797-12.29c-4.063-6.804-5.333-14.353-6.574-22.014-1.116-6.888-2.85-13.681-4.47-20.478-.61-2.551-1.669-4.994-2.521-7.486l-1.445-4.933c1.24-.923 1.048.42 1.193.854 1.387 4.13 2.974 8.219 3.991 12.443 1.782 7.393 3.488 14.828 4.682 22.332.9 5.657 2.022 11.146 4.76 16.207 4.415 8.163 9.01 16.233 13.238 24.49 2.788 5.445 5.05 11.158 7.577 16.737 4.356 9.62 8.368 19.368 11.542 29.453 2.711 8.615 5.44 17.228 8.374 25.767 1.8 5.238 3.317 10.648 6.792 15.15 3.987 5.164 8.905 9.03 15.135 11.237 7.705 2.73 15.438 5.203 23.751 4.965.38-.01.804.097 1.135-.033 3.42-1.347 5.5.48 7.299 3.018.328.463.768.876.98 1.386.227.545.493 1.294.284 1.737-.19.401-.996.512-1.533.744-.054.024-.126.003-.19.004-9.18.127-18.362.347-27.543.339-4.027-.003-8.085-.254-12.069-.813-2.192-.308-4.267-1.482-5.35-3.728.973.573 1.956 1.127 2.914 1.721 2.995 1.856 6.397 1.455 9.641 1.569 6.455.225 12.921.176 19.382.192 4.187.01 8.374-.061 12.56-.107.358-.004.715-.087 1.089-.135-1.408-4.16-4.168-5.682-7.892-5.035-3.393.589-7.079-.008-10.562-.552-6.61-1.03-12.927-3.131-18.812-6.361-7.994-4.387-13.247-11.193-16.256-19.622-3.876-10.855-7.429-21.826-11.014-32.782-3.768-11.517-8.03-22.83-13.406-33.703-.503-1.017-1-2.038-1.501-3.057z" opacity="1" data-original="#511900"></path><path fill="#e04f1c" d="m182.914 380.764 7.14 1.782 9.134 1.164c1.295.165 2.262.017 2.059-1.713-.124-1.059-.027-2.144-.03-3.218l2.556-2.05c.887 2.291 1.617 4.36 2.49 6.365.548 1.262.295 1.955-.985 2.487-3.792 1.577-7.481 3.432-11.343 4.806-5.015 1.785-10.133 3.392-15.286.152-1.326-.835-2.912-1.25-4.275-2.037-.84-.486-1.786-1.176-2.158-2.01-1.286-2.88-2.34-5.862-3.482-8.806 2.17.629 4.315 1.37 6.516 1.857 2.523.56 4.893 2.202 7.664 1.22z" opacity="1" data-original="#e04f1c"></path><path fill="#511900" d="M221.7 394.984c2.263 4.279 4.448 8.6 6.813 12.822 1.914 3.42 4.011 6.739 6.106 10.053.406.642 1.093 1.31 1.789 1.535 5.348 1.726 10.73 3.348 16.104 4.993.224.068.478.038.759.056 0-.264.074-.502-.01-.596-6.005-6.618-8.687-14.903-11.562-23.08-3.185-9.06-6.297-18.146-9.43-27.225-.307-.891-.532-1.812-.796-2.719.573.912 1.328 1.758 1.694 2.747 4.734 12.792 9.3 25.65 14.188 38.383 1.2 3.126 3.418 5.86 5.145 8.788.777 1.317 1.497 2.667 2.242 4.003l-.483.712c-1.71-.4-3.452-.697-5.124-1.22-3.548-1.108-7.059-2.334-10.585-3.511-.3-.1-.647-.344-.897-.27-3.405 1.017-4.205-1.98-5.4-3.808-3.1-4.75-6.098-9.597-8.705-14.628-2.514-4.853-4.643-9.923-6.663-15.008-3.518-8.857-6.985-17.742-10.169-26.722-2.825-7.968-5.308-16.059-7.81-24.136-2.577-8.314-5.12-16.643-7.447-25.03-2.714-9.777-5.193-19.62-7.741-29.442-.567-2.185-.999-4.405-1.493-6.609.484 1.125 1.101 2.211 1.433 3.38 5.99 21.084 11.674 42.262 18.015 63.24 3.533 11.69 8.14 23.054 12.276 34.56 1.565 4.353 3.086 8.724 4.79 13.022.786 1.983 1.962 3.812 2.961 5.71z" opacity="1" data-original="#511900"></path><path fill="#4e2100" d="M191 245.1c1.08 3.355 2.04 6.754 3.269 10.053 1.748 4.693 3.387 9.407 3.693 14.44.23 3.763.233 7.538.336 11.308-.42-.377-.84-.753-1.258-1.13l-.857-1.55c-.242-6.498-.561-12.974-2.945-19.152-2.033-5.27-3.96-10.582-5.933-15.875-1.678-5.575-3.367-11.147-5.033-16.726-2.78-9.307-4.668-18.788-5.497-28.473-.2-2.332-.422-4.663-.59-6.997-.193-2.663.112-2.99 2.9-3.288.181 3.572.285 7.148.558 10.712.978 12.774 4.164 25.07 8.196 37.175L191 245.1z" opacity="1" data-original="#4e2100"></path><path fill="#511900" d="M393.237 437.837c-5.66 3.93-11.204 8.073-18.685 7.667-1.934-.106-3.35-.818-4.632-2.145-7.11-7.363-13.75-15.12-19.767-23.404-.217-.3-.518-.538-.78-.805-2.93-3.807-6.057-7.479-8.746-11.448-5.462-8.062-10.669-16.297-16.016-24.437-3.664-5.577-8.008-10.491-13.064-14.937-11.034-9.703-21.035-20.35-27.201-33.989-3.092-6.84-5.156-13.995-6.22-21.431.513 1.135 1.27 2.223 1.5 3.413 1.848 9.599 5.532 18.417 10.688 26.71 4.483 7.21 10.04 13.477 16.159 19.266 3.249 3.074 7.008 5.624 10.134 8.807 2.496 2.541 4.536 5.58 6.508 8.576 4.756 7.224 9.241 14.629 14.061 21.809 2.595 3.865 5.64 7.43 8.506 11.11 4.767 6.118 9.42 12.332 14.378 18.292 3.632 4.367 7.63 8.435 11.556 12.55 1.508 1.58 3.61 1.395 5.566 1.14 3.885-.505 7.316-2.18 10.637-4.198 1.696-1.03 3.605-1.708 5.418-2.546z" opacity="1" data-original="#511900"></path><path fill="#4e2100" d="M312.312 82.76c-10.244.618-20.433 1.71-30.495 3.775-13.196 2.708-25.695 7.26-37.29 14.199-.893.534-2.03.66-3.053.977l-.463-.667c.539-.68.939-1.602 1.637-2.002 12.962-7.426 26.71-12.777 41.452-15.42 3.842-.69 7.711-1.224 11.568-1.83-1.471.49-2.926 1.038-4.419 1.451-.976.27-2.006.346-3.011.509l.1.664c1.845-.287 3.685-.624 5.538-.851 4.171-.51 8.345-1.016 12.528-1.425 2.378-.233 4.774-.317 7.164-.365.503-.01 1.015.431 1.522.664l-2.778.32z" opacity="1" data-original="#4e2100"></path><path fill="#511900" d="M343.666 418.003c2.679 3.204 5.267 6.489 8.057 9.592 4.91 5.463 9.807 10.95 14.985 16.155 2.52 2.534 5.64 4.478 8.526 6.64 2.036 1.524 4.32 1.626 6.443.387 3.873-2.26 7.762-4.535 11.408-7.135 10.624-7.573 21.133-15.306 31.677-22.99.707-.515 1.332-1.142 1.995-1.718l7.134-4.805c-.627.833-1.1 1.876-1.905 2.468a4965.576 4965.576 0 0 1-31.625 23.122c-4.902 3.554-9.865 7.028-14.846 10.472-5.665 3.918-8.857 2.579-13.924-1.032-6.806-4.85-12.257-11.068-17.554-17.456-3.423-4.128-7.13-8.024-10.529-12.171-3.396-4.144-6.582-8.461-9.83-12.724-1.99-2.61-3.957-5.236-5.858-7.91-.558-.784-.854-1.755-1.27-2.64 2.384 3.023 4.77 6.045 7.15 9.07 3.324 4.224 6.644 8.45 9.966 12.675z" opacity="1" data-original="#511900"></path><path fill="#ebc96d" d="m312.312 82.76 2.778-.32c6.45.28 12.925.305 19.346.904 8.2.765 16.377 1.933 23.731 6.104a80.635 80.635 0 0 1 4.684 2.891c.414.273.66.8.982 1.21l.005-.005c-.766-.254-1.6-.39-2.288-.78-7.036-3.999-14.728-5.485-22.678-6.096-8.128-.624-16.25-1.34-24.374-2.026-.436-.037-.864-.175-1.295-.267l-.89-1.616z" opacity="1" data-original="#ebc96d"></path><path fill="#511900" d="M198.574 283.567c.322 1.982.388 4.05 1.021 5.928 1.085 3.211 2.065 6.605 3.898 9.39 6.439 9.789 11.345 20.327 16.023 31.002.71 1.617 1.495 3.2 2.245 4.8 4.688 13.165 9.383 26.327 14.06 39.496 2.665 7.503 5.302 15.017 7.943 22.528.08.228.065.49.094.736-.738-1.531-1.611-3.013-2.189-4.603-1.914-5.273-3.701-10.592-5.575-15.88-2.468-6.964-4.84-13.966-7.492-20.861-3.378-8.784-6.931-17.501-10.53-26.197-2.001-4.835-4.053-9.668-6.439-14.318-2.648-5.161-5.744-10.09-8.567-15.164-2.614-4.697-5.294-9.4-4.878-15.081.044-.598.254-1.184.386-1.776z" opacity="1" data-original="#511900"></path><path fill="#e26e20" d="M182.914 380.764c-2.77.981-5.141-.66-7.664-1.22-2.201-.489-4.346-1.229-6.516-1.858l-3.055-11.812c2.655 1.039 5.311 2.073 7.962 3.12.464.184.905.427 1.356.642.19.393.472.767.557 1.181.917 4.46 3.93 7.355 7.36 9.947z" opacity="1" data-original="#e26e20"></path><path fill="#da691f" d="m433.89 414.129-7.133 4.805-2.395-1.746c1.957-1.478 3.902-2.973 5.875-4.43 3.643-2.69 7.303-5.359 10.955-8.037l-.004.02 2.317-1.56 1.079-.746 1.605-1.152.329-.277 1.15-.85-.001.023 1.142-.79-.005.02 1.533-1.15a.6.6 0 0 0 .005.023c.378-.263.758-.525 1.137-.786l.002.022 1.133-.797-.005.02c2.242-1.427 4.485-2.852 6.728-4.278l.44.279c-4.462 3.73-8.91 7.478-13.393 11.183-4.145 3.426-8.327 6.805-12.493 10.204z" opacity="1" data-original="#da691f"></path><path fill="#4e2100" d="M184.808 213.905c-4.794-17.357-5.066-34.527 2.191-51.362 3.901-9.05 9.339-17.117 15.889-24.45 1.177-1.319 2.43-2.57 3.648-3.853-1 1.47-1.89 3.034-3.022 4.395-6.878 8.261-12.701 17.117-16.385 27.317-2.22 6.144-3.907 12.393-4.501 18.883-.488 5.329-.536 10.673.573 15.98.785 3.753 1.366 7.55 1.966 11.337.087.552-.23 1.167-.359 1.753z" opacity="1" data-original="#4e2100"></path><path fill="#f2d576" d="M262.862 154.069c1.192 2.33-.354 4.04-1.571 5.56-5.622 7.021-11.386 13.927-17.12 20.857-.253.305-.711.439-1.073.652 1.642-5.33 4.418-10.064 8.015-14.253 3.773-4.395 7.821-8.554 11.75-12.816z" opacity="1" data-original="#f2d576"></path><path fill="#511900" d="m165.68 365.874 3.054 11.812c1.142 2.944 2.197 5.927 3.482 8.807.372.833 1.318 1.524 2.158 2.009 1.363.787 2.949 1.202 4.276 2.037 5.152 3.24 10.27 1.633 15.285-.152 3.862-1.374 7.55-3.229 11.343-4.806 1.28-.532 1.533-1.225.985-2.487-.873-2.006-1.602-4.073-2.49-6.366l-2.556 2.051-3.42 1.043c1.874-1.208 3.724-2.458 5.651-3.575.256-.149 1.165.255 1.322.605 1.03 2.292 2.045 4.606 2.805 6.995.177.557-.454 1.787-1.04 2.109-6.8 3.727-13.936 6.69-21.685 7.534-1.993.218-4.188-1.102-6.24-1.853-1.717-.63-3.493-1.26-4.995-2.263-1.193-.797-2.36-2-2.936-3.292-2.988-6.709-5.068-13.717-6.3-20.964-.063-.37.194-.792.301-1.19l1 1.946zM273.84 308.001c1.903 5.903 3.62 11.873 5.748 17.693 4.739 12.962 11.804 24.632 20.271 35.486.648.83 1.113 1.802 1.664 2.707-.354-.206-.793-.338-1.048-.63-5.999-6.858-10.987-14.4-15.227-22.456-5.195-9.869-8.793-20.36-12.066-30.972-.248-.804.014-1.765.039-2.652l.619.824z" opacity="1" data-original="#511900"></path><path fill="#ebc96d" d="M306.719 79.89c-.02-.551-.038-1.103-.057-1.655 9.423-.304 18.843-.542 28.126 1.603.155.036.288.172.723.443l-1.375.308c-.343-.122-.685-.351-1.027-.35-4.228.006-8.456.047-12.684.079h-.767l-1.899-.026-8.001-.004-3.04-.397zM244.28 53.214l-.39-.77c4.409-.634 8.803-1.412 13.23-1.86 4.54-.46 9.11-.657 13.671-.85 2.573-.11 5.156.022 7.735.045l.727.658c-5.444.291-10.9.451-16.33.912-5.47.464-10.913 1.237-16.37 1.848-.75.083-1.515.015-2.273.017z" opacity="1" data-original="#ebc96d"></path><path fill="#511900" d="M217.544 332.926c-1.159-2.425-2.384-4.821-3.464-7.28-3.869-8.805-8.257-17.322-13.542-25.372-.993-1.512-1.627-3.26-2.427-4.899.4.256.958.417 1.18.782 2.786 4.584 5.766 9.073 8.215 13.834 3.463 6.733 6.545 13.664 9.727 20.54.323.696.218 1.592.311 2.395zM167.03 239.392c1.252 1.927 2.435 3.902 3.767 5.771 3.406 4.781 6.19 9.828 7.643 15.587 1.023 4.056 2.366 8.031 3.549 12.047.042.143-.102.34-.158.512-.762-1.962-1.628-3.89-2.26-5.892-.968-3.067-1.595-6.251-2.709-9.26-.866-2.34-2.158-4.544-3.43-6.71-2.11-3.594-4.384-7.092-6.517-10.673-.397-.667-.458-1.535-.675-2.31l.79.928zM441.192 404.722c-3.652 2.677-7.312 5.346-10.955 8.036-1.973 1.457-3.918 2.952-5.875 4.43-2.64 1.737-5.278 3.477-7.922 5.206-.363.237-.762.42-1.145.628.43-.563.756-1.267 1.304-1.67 6.148-4.521 12.286-9.06 18.53-13.446 1.854-1.3 4.033-2.136 6.063-3.184z" opacity="1" data-original="#511900"></path><path fill="#da691f" d="m197.796 379.822 3.421-1.043c.003 1.074-.094 2.16.03 3.218.203 1.73-.764 1.878-2.06 1.713l-9.134-1.164 7.743-2.724z" opacity="1" data-original="#da691f"></path><path fill="#511900" d="M230.033 367.05c-2.464-6.507-4.926-13.014-7.396-19.517-.29-.767-.627-1.515-.943-2.272-1.179-3.287-2.365-6.57-3.532-9.861-.27-.762-.477-1.546-.714-2.32.489.506 1.21.926 1.433 1.53 2.176 5.925 4.245 11.889 6.393 17.824 1.545 4.268 3.187 8.502 4.726 12.772.197.548.03 1.226.033 1.844zM245.92 402.701l9.543 19.066c-2.413-.54-3.374-2.712-4.225-4.495-2.112-4.426-3.773-9.069-5.576-13.64-.095-.238.164-.617.258-.931z" opacity="1" data-original="#511900"></path><path fill="#4e2100" d="M320.425 80.318c4.228-.032 8.456-.073 12.684-.08.342 0 .684.229 1.026.351-.525.13-1.05.367-1.577.372-3.529.034-7.059.045-10.587-.012-.518-.008-1.03-.41-1.546-.631z" opacity="1" data-original="#4e2100"></path><path fill="#da691f" d="m269.045 143.83-.529-.506 7.347-4.992.467.69-7.285 4.808z" opacity="1" data-original="#da691f"></path><path fill="#e1953f" d="m459.778 392.742-.44-.279.126-.667 5.63-4.659.348.38c-1.495 2.135-3.57 3.69-5.664 5.225z" opacity="1" data-original="#e1953f"></path><path fill="#da691f" d="m151.252 222.99-.631-.018c-.629-2.892-1.26-5.784-1.875-8.678-.013-.064.15-.165.603-.638l1.903 9.333z" opacity="1" data-original="#da691f"></path><path fill="#511900" d="m459.464 391.796-.127.667-6.728 4.278c.212-.425.314-.993.652-1.25a112.639 112.639 0 0 1 5.15-3.677c.244-.165.697-.02 1.053-.018z" opacity="1" data-original="#511900"></path><path fill="#e1953f" d="m279.252 50.437-.727-.658 7.143.189-.03.809-6.385-.34z" opacity="1" data-original="#e1953f"></path><path fill="#4e2100" d="m306.719 79.89 3.039.398c-1.536.357-3.058.826-4.614 1.024-.851.11-1.761-.24-2.644-.382l4.219-1.04zM209.14 131.563l4.249-4.566c-.565 2.315-2.243 3.593-4.249 4.566z" opacity="1" data-original="#4e2100"></path><path fill="#511900" d="m196.201 287.033-.16-5.461c.204 1.053.462 2.1.597 3.162.094.746.02 1.513.022 2.27l-.459.029zM196.183 278.22c.285.517.57 1.034.857 1.55l-1.016 1.193c.052-.915.105-1.829.159-2.743zM197.083 292.336l-.784-4.19h.736c.2 1.034.458 2.063.564 3.106.034.34-.332.721-.516 1.084zM443.505 403.181l-2.317 1.56c.141-1.456 1.238-1.495 2.317-1.56zM304.084 366.932l1.526 1.926c-1.173-.116-1.623-.804-1.526-1.926z" opacity="1" data-original="#511900"></path><path fill="#511900" d="m305.595 368.846 1.53 1.923-1.53-1.922zM325.04 394.346l1.528 1.92c-1.193-.095-1.639-.786-1.528-1.92z" opacity="1" data-original="#511900"></path><path fill="#4e2100" d="m317.76 80.292 1.898.026c-.646.992-1.28 1.015-1.899-.026zM207.563 133.105l1.595-1.56-1.595 1.56z" opacity="1" data-original="#4e2100"></path><path fill="#511900" d="m399.73 433.654-1.941 1.187c.648-.395 1.295-.79 1.942-1.187zM450.337 398.26l-1.533 1.15 1.533-1.15zM322.75 391.302l1.252 1.525c-1.109.06-1.357-.587-1.251-1.525zM320.458 388.26zM317.01 383.689zM310.919 375.684l1.158 1.558-1.158-1.558z" opacity="1" data-original="#511900"></path><path fill="#fcfbf2" d="m355.074 115.662-2.65.024 2.65-.024z" opacity="1" data-original="#fcfbf2"></path><path fill="#511900" d="M446.189 401.283z" opacity="1" data-original="#511900"></path><path fill="#4e2100" d="M197.035 288.146h-.736l-.098-1.114.459-.028.375 1.142z" opacity="1" data-original="#4e2100"></path><path fill="#511900" d="m243.904 397.744.79 1.613-.79-1.613z" opacity="1" data-original="#511900"></path><path fill="#4e2100" d="m296.784 81.681 1.171-.351-1.171.351zM300.203 81.284z" opacity="1" data-original="#4e2100"></path><g fill="#511900"><path d="m318.166 385.218.863 1.141-.863-1.141zM302.171 364.61zM321.96 390.16l.81 1.147-.81-1.147zM315.872 382.152l.851 1.167-.851-1.167zM313.211 378.748zM324.266 393.146l.794 1.203-.794-1.203zM452.614 396.72l-1.132.799 1.132-.798zM451.479 397.496c-.38.262-.759.523-1.137.786l1.137-.786zM448.81 399.39a861.373 861.373 0 0 0 0 0zM401.568 432.488l-1.169.77 1.169-.77zM447.668 400.156l-1.15.85 1.15-.85zM404.305 430.609zM307.112 370.757l.843 1.14-.843-1.14zM308.619 372.68l.849 1.124-.849-1.125zM181.841 273.561l.336 1.257-.336-1.257zM406.514 429.067l-1.16.778 1.16-.778zM407.655 428.297l-1.153.782 1.153-.782zM411.476 425.652l-1.133.799 1.133-.8zM412.621 424.893l-1.156.775 1.156-.775zM309.761 374.203l.863 1.12-.863-1.12zM413.79 424.123zM415.294 423.002l-1.149.844 1.15-.844zM319.712 387.342l.765.928-.765-.928zM314.762 380.86l.808.938-.808-.939zM303.323 366.1l.779.842-.779-.842zM312.502 377.942zM397.057 435.25l-.808.79.808-.79zM197.728 294.048l-.386-.926.386.925zM238.91 263.803l-.678-.807.678.807zM216.453 248.943l.357.734-.357-.734zM410.342 426.427l-.775.552.775-.552z" fill="#511900" opacity="1" data-original="#511900"></path></g><path fill="#e46e20" d="m89.971 72.074-.738.501.738-.501z" opacity="1" data-original="#e46e20"></path><path fill="#e1953f" d="m276.708 309.847-.441-.78.44.78z" opacity="1" data-original="#e1953f"></path><path fill="#511900" d="M397.782 434.818zM312.063 377.23l.439.752-.44-.751zM244.687 399.567l.315.922-.315-.922z" opacity="1" data-original="#511900"></path><path fill="#ebc96d" d="m363.833 93.55.206.13c-.043.008-.11.038-.126.02-.038-.039-.052-.102-.075-.156l-.005.005z" opacity="1" data-original="#ebc96d"></path><path fill="#511900" d="m245.037 400.8.363.456-.363-.455z" opacity="1" data-original="#511900"></path><path fill="#e3963f" d="M239.5 168.267c.034.04.108.09.106.137-.001.047-.079.091-.123.137-.04-.049-.116-.1-.113-.145.003-.045.084-.086.13-.129z" opacity="1" data-original="#e3963f"></path><path fill="#511900" d="m395.507 436.303-.445.359.445-.359z" opacity="1" data-original="#511900"></path><path fill="#f9e991" d="M406.387 249.68c3.37.023 5.817 2.501 5.816 5.89 0 3.282-2.755 5.965-6.075 5.915-3.143-.047-5.775-2.833-5.732-6.068.043-3.258 2.655-5.76 5.991-5.737zM436.929 258.112c.867.696 1.858 1.284 2.578 2.11 1.874 2.15 1.282 4.548.45 6.922-3.13 2.773-6.169 3.16-8.608 1.094-1.977-1.674-2.56-4.109-1.605-6.698.85-2.304 2.623-3.475 5.29-3.48.632 0 1.263.034 1.895.052zM340.589 134.624c.037 2.839-2.635 5.53-5.592 5.633-2.81.098-5.692-2.607-5.795-5.439-.105-2.88 2.685-5.785 5.617-5.845 2.894-.06 5.732 2.72 5.77 5.651zM305.704 256.546c2.353-.03 4.698 2.064 4.791 4.277.111 2.611-2.076 4.858-4.728 4.857-2.47-.001-4.357-1.818-4.397-4.236-.049-2.948 1.647-4.864 4.334-4.898zM387.618 298.06c-2.296-.018-4.405-2.124-4.32-4.316.09-2.32 2.14-4.435 4.318-4.453 2.428-.02 4.802 2.201 4.757 4.452-.052 2.572-1.996 4.337-4.755 4.316zM369.541 238.867c-.011-2.54 1.74-4.391 4.171-4.408 2.349-.016 4.598 2.19 4.524 4.436-.068 2.083-2.341 4.319-4.364 4.293-2.438-.03-4.32-1.908-4.331-4.32zM317.45 200.95c-2.392.018-4.21-1.746-4.25-4.123-.037-2.193 2.056-4.28 4.24-4.227 2.336.056 4.115 1.913 4.128 4.309.013 2.224-1.82 4.023-4.118 4.04zM414.495 373.229c.01 2.311-1.615 4.015-3.826 4.014-2.275 0-3.776-1.59-3.81-4.033-.03-2.168 1.58-3.87 3.718-3.931 2.154-.062 3.91 1.708 3.918 3.95zM264.495 229.115c2.117.013 3.74 1.512 3.741 3.459.002 2.06-1.807 4.06-3.726 4.122-1.866.059-3.883-2.026-3.857-3.989.026-2.054 1.685-3.605 3.842-3.592zM448.387 324.985c.025 2.095-1.577 3.812-3.588 3.846-1.888.031-3.948-1.976-3.971-3.87-.022-1.765 2.003-3.678 3.901-3.685 2.14-.008 3.632 1.506 3.658 3.71zM425.568 293.855c2 .015 3.693 1.662 3.641 3.543-.055 1.983-1.88 3.75-3.805 3.687-1.831-.06-3.627-1.751-3.645-3.432-.025-2.221 1.574-3.815 3.81-3.798zM302.522 161.727c-.01-2.065 1.523-3.762 3.416-3.782 1.603-.017 3.774 2.1 3.753 3.66-.025 1.92-1.673 3.505-3.673 3.536-1.865.028-3.486-1.556-3.496-3.414zM381.37 390.436c.387 1.807-1.543 3.39-3.227 3.496-1.716.107-3.63-1.933-3.63-3.728 0-1.822 1.551-3.398 3.37-3.423 1.93-.027 3.491 1.61 3.487 3.655zM454.873 365.892c-.05 1.967-1.678 3.429-3.757 3.372-1.991-.054-3.165-1.374-3.113-3.498.048-1.927 1.772-3.444 3.82-3.36 1.987.083 3.103 1.358 3.05 3.486zM363.79 326.215c2.14-.023 3.42 1.126 3.473 3.122.056 2.096-1.25 3.386-3.425 3.382-1.766-.004-3.45-1.644-3.408-3.322.04-1.604 1.686-3.163 3.36-3.182zM390.097 219.625c-.006-1.912 1.126-3.07 3.018-3.089 1.674-.016 3.434 1.572 3.432 3.098-.001 1.73-1.573 3.386-3.213 3.385-2.015 0-3.23-1.275-3.237-3.394zM354.865 275.976c1.547-.008 3.197 1.597 3.23 3.142.033 1.53-1.704 3.244-3.319 3.277-1.474.03-3.141-1.709-3.112-3.247.03-1.557 1.65-3.164 3.2-3.172zM381.032 356.318c1.437.038 2.984 1.598 2.919 2.942-.075 1.54-1.465 2.805-3.05 2.775-1.705-.032-3.052-1.408-2.955-3.019.092-1.536 1.47-2.742 3.086-2.698zM366.291 183.803c-1.537-.015-2.511-1.052-2.44-2.688.067-1.51.917-2.26 2.422-2.279 1.378-.017 2.828 1.25 2.835 2.478.006 1.225-1.44 2.503-2.817 2.49zM369.948 208.02c-.007 1.672-.818 2.47-2.415 2.447-1.6-.022-2.22-1.107-2.452-2.403-.206-1.143 1.35-2.625 2.587-2.496 1.398.146 2.363.853 2.28 2.452zM298.668 215.284c-.327 1.763-.975 2.391-2.297 2.43-1.477.044-2.22-.561-2.25-2.098-.03-1.5.87-2.228 2.09-2.01.89.16 1.643 1.09 2.457 1.678zM347.478 213.858c-.628-.774-1.665-1.491-1.784-2.336-.155-1.114.596-2.202 2.025-2.173 1.281.026 2.364.75 2.25 2-.079.87-1.041 1.66-1.609 2.484l-.882.025zM329.967 238.316c0 1.625-.71 2.304-2.126 2.23-1.383-.072-2.309-.898-1.976-2.17.208-.794 1.26-1.763 2.07-1.912 1.203-.22 2.194.53 2.032 1.852zM399.693 336.394c.822-.572 1.68-1.632 2.456-1.574.72.055 1.754 1.215 1.928 2.04a1.789 1.789 0 0 1-1.981 2.162c-.864-.11-1.616-1.109-2.417-1.71l.014-.919zM328.81 322.98c.091 1.565-.927 2.266-2.104 2-.798-.18-1.797-1.178-1.982-1.977-.297-1.29.674-2.117 2.032-2.073 1.277.04 2.187.604 2.055 2.05zM407.36 187.596c1.417-.05 2.413.587 2.096 1.96-.191.831-1.089 1.945-1.839 2.098-1.103.224-2.235-.522-2.233-1.937.002-1.254.523-2.204 1.977-2.121zM382.52 148.572c.027.743-.9 1.442-1.903 1.209-.748-.174-1.652-1.158-1.834-1.934-.28-1.189.672-1.777 1.875-1.757 1.244.02 1.824.693 1.863 2.482z" opacity="1" data-original="#f9e991"></path><path fill="#f7db65" d="M307.103 337.094c-.006 1.922-1.592 3.64-3.315 3.59-1.644-.048-3.087-1.697-3.043-3.478.05-2.092 1.734-4.1 3.452-4.117 1.552-.015 2.913 1.86 2.906 4.005zM363.831 410.392c-.007-1.892 1.086-3.327 2.586-3.395 1.68-.077 3.464 1.616 3.505 3.327.04 1.715-1.209 3.101-2.817 3.126-1.966.03-3.267-1.185-3.274-3.058z" opacity="1" data-original="#f7db65"></path><path fill="#e2501c" d="m163.486 374.588 4.142 11.353c-4.076-1.608-7.651-2.843-11.08-4.401a13110.958 13110.958 0 0 1-61.183-27.961c-11.86-5.461-23.532-11.296-34.67-18.15-2.021-1.245-3.127-2.877-3.682-5.226-1.105-4.67-2.54-9.263-3.837-13.888 1.607 1.088 3.203 2.194 4.824 3.262 4.799 3.16 9.468 6.549 14.442 9.406 9.867 5.669 19.895 11.059 29.874 16.532 12.167 6.672 24.927 12.05 37.756 17.283 4.32 1.762 8.635 3.561 12.829 5.596 2.483 1.204 4.71 2.931 7.087 4.366 1.124.679 2.33 1.223 3.498 1.828z" opacity="1" data-original="#e2501c"></path><path fill="#f9e991" d="M250.647 120.183c2.43.04 4.225 1.883 4.254 4.366.031 2.667-2.128 4.861-4.731 4.807-2.877-.059-4.481-1.851-4.41-4.924.064-2.726 1.874-4.3 4.887-4.25zM285.144 106.491c1.555-.006 2.917 1.336 2.896 2.855-.018 1.329-1.651 2.832-3.072 2.827-1.67-.006-2.99-1.202-3.023-2.74-.038-1.715 1.287-2.934 3.199-2.942zM194.71 190.66c1.662-.017 2.942 1.153 3.017 2.758.077 1.638-1.219 2.917-3.006 2.965-1.647.044-3.034-1.31-3-2.928.033-1.545 1.352-2.779 2.988-2.795zM217.347 144.098c-1.305 1.07-2.024 2.125-2.876 2.245-1.13.16-2.157-.607-2.202-2.056-.048-1.546.962-2.346 2.217-2.246.808.065 1.54 1.06 2.86 2.057zM313.453 104.61c-1.373-.054-1.853-.895-1.812-2.239.04-1.305.642-2.01 1.967-1.958 1.415.055 2.252.82 2.205 2.246-.046 1.381-.962 1.946-2.36 1.951zM200.09 85.851c.025 2.033-1.346 3.476-3.335 3.51-1.886.033-3.501-1.53-3.515-3.401-.013-1.88 1.564-3.431 3.517-3.457 1.786-.023 3.309 1.507 3.332 3.348zM152.098 151.832c.896 2.601.25 3.72-2.614 4.532-1.012-.628-2.378-1.029-2.956-1.934-.988-1.545-.264-3.218 1.317-4.111 1.519-.859 2.744-.423 4.253 1.513zM221.25 77.16c1.529.028 2.486 1.09 2.442 2.711-.04 1.458-1.038 2.314-2.642 2.267-1.739-.05-2.73-1.052-2.688-2.716.036-1.42 1.15-2.293 2.888-2.262z" opacity="1" data-original="#f9e991"></path><path fill="#faeaa2" d="M276.267 63.816c-.463-1.191-.525-2.323.47-3.31 1.109-1.099 2.706-1.127 3.693-.058 1.187 1.286 1.058 2.861-.353 3.907-.35.258-.78.407-1.172.606l-2.638-1.145z" opacity="1" data-original="#faeaa2"></path><path fill="#f9e991" d="M241.96 66.535c-.793.62-1.513 1.6-2.394 1.776-1.279.255-2.068-.721-2.171-2.047-.119-1.527.89-1.964 2.146-2.048 1.305-.087 2.012.556 2.419 2.319z" opacity="1" data-original="#f9e991"></path><path fill="#f7db65" d="m173.775 119.446 3.741-3.38c.993 2.293-.527 3.923-3.733 4.137l-.008-.757zM224.906 288.896c1.68.02 3.017 1.35 2.965 2.954-.048 1.525-1.553 3.092-2.995 3.122-1.761.036-3.146-1.454-3.09-3.324.05-1.671 1.3-2.773 3.12-2.752zM239.876 325.472c-1.533-.01-2.857-1.356-2.842-2.886.016-1.606 1.437-2.888 3.14-2.831 1.789.06 2.89 1.35 2.81 3.297-.053 1.313-1.49 2.431-3.108 2.42zM271.71 406.937l-1.922-3.403c.763-.76 1.403-1.905 2.316-2.197 1.872-.598 3.564.752 3.75 2.608.178 1.764-1.141 3.01-3.202 3.02-.314.002-.629-.018-.943-.028zM258.053 382.317l-2.029-4.811c1.625-.492 2.849-.054 3.303 1.233.404 1.147.627 2.614-1.274 3.578zM183.352 365.454c.033-.23.066-.46.101-.69.272-.154.572-.273.81-.468 1.449-1.193 2.98-1.495 4.71-.595 1.791.934 2.413 2.461 2.355 4.368-.058 1.889-1.246 2.967-2.796 3.696-.668.313-1.45.385-2.179.567l-.786-.747-2.215-6.13zM178.78 339.538l-.71-3.738c.329-.175.697-.303.979-.536 1.058-.87 2.387-.816 3.05.067.61.815.93 2.359.559 3.237-.297.703-1.803.94-2.81 1.273-.29.096-.709-.191-1.068-.303zM170.783 305.263l-.742-3.405c1.126-.375 2.314-1.521 3.376-.124.452.594.708 1.635.535 2.347-.423 1.74-1.98 1.106-3.17 1.182z" opacity="1" data-original="#f7db65"></path><path fill="#e26e20" d="M291.426 392.524c-8.166-13.122-16.535-26.127-23.065-40.189-4.155-8.947-6.759-18.427-9.674-27.807-2.442-7.857-4.578-15.86-8.687-23.08-2.598-4.564-5.498-8.957-8.191-13.469-.741-1.241-1.228-2.634-1.832-3.957 2.056.42 4.131.763 6.163 1.279 3.517.894 7.003 1.913 10.515 2.832.535.14 1.139.024 1.71.026.446.6.958 1.16 1.324 1.805 6.235 10.96 10.352 22.784 14.402 34.666 4.028 11.817 9.844 22.808 17.29 32.827 6.869 9.244 14.236 18.115 21.18 27.305 6.751 8.936 13.244 18.067 19.85 27.113-.424-.106-.895-.126-1.26-.332-3.738-2.113-7.48-4.222-11.18-6.398-6.529-3.841-13.03-7.729-19.543-11.597-2.847-1.69-5.792-2.518-9.002-1.024z" opacity="1" data-original="#e26e20"></path><path fill="#f9e9a0" d="m183.352 365.454 2.215 6.13c-2.885-.721-4.07-4.004-2.215-6.13z" opacity="1" data-original="#f9e9a0"></path><path fill="#e2501c" d="M291.426 392.524c3.21-1.494 6.155-.667 9.002 1.024 6.513 3.868 13.014 7.756 19.543 11.597 3.7 2.177 7.442 4.285 11.18 6.398.365.206.836.226 1.26.332 3.881 4.831 7.625 9.78 11.678 14.463 4.886 5.643 10.02 11.073 15.077 16.567 1.757 1.909 3.534 3.811 5.43 5.58 2.869 2.674 6.273 4.475 10.007 5.661.472.15.924.365 1.477 1.05-1 .286-1.982.662-3 .842-8.425 1.497-16.94 2.033-25.476 2.391-2.045.086-3.746-.356-5.136-1.872-6.287-6.862-12.843-13.5-18.81-20.63-11.454-13.692-22.145-27.982-31.978-42.897-.103-.156-.17-.337-.254-.506z" opacity="1" data-original="#e2501c"></path><path fill="#e3963f" d="m216.262 123.122.64-.545.233.433-.667.25a1.762 1.762 0 0 0-.206-.138zM234.915 109.32l-.696.482c-.05-.107-.165-.283-.136-.312.166-.165.367-.295.556-.438l.276.268z" opacity="1" data-original="#e3963f"></path></g></svg>