<svg xmlns="http://www.w3.org/2000/svg" version="1.1" xmlns:xlink="http://www.w3.org/1999/xlink" width="512" height="512" x="0" y="0" viewBox="0 0 512 512" style="enable-background:new 0 0 512 512" xml:space="preserve" class=""><g><path d="M476.476 300.433c0 8.979-3.636 17.1-9.515 22.979-5.889 5.879-14.01 9.515-22.979 9.515H68.018c-17.939 0-32.494-14.545-32.494-32.494 0-4.808 1.04-9.363 2.909-13.464a32.556 32.556 0 0 1 6.606-9.515c5.889-5.879 14.01-9.515 22.979-9.515h375.965c13.141 0 24.464 7.798 29.585 19.03a32.383 32.383 0 0 1 2.908 13.464z" style="" fill="#884d00" data-original="#884d00"></path><path d="M473.567 286.969a32.714 32.714 0 0 1-6.606 9.505c-5.889 5.879-14.01 9.515-22.979 9.515H68.018c-13.131 0-24.454-7.798-29.585-19.019a32.556 32.556 0 0 1 6.606-9.515c5.889-5.879 14.01-9.515 22.979-9.515h375.965c13.14-.001 24.463 7.797 29.584 19.029z" style="" fill="#aa6100" data-original="#aa6100"></path><path d="M504.425 359.158c0 41.867-19.383 72.977-50.715 93.612-31.342 20.646-74.633 30.817-122.45 30.817H180.74c-95.633 0-173.165-40.695-173.165-124.429 0-4.666 1.162-9.091 3.262-13.07 1.778-3.394 4.232-6.454 7.212-9.06 6.464-5.666 15.414-9.171 25.282-9.171h425.337c14.414 0 26.837 7.474 32.494 18.232 2.101 3.978 3.263 8.402 3.263 13.069z" style="" fill="#ffa733" data-original="#ffa733"></path><path d="M501.162 346.088c-6.747 27.878-23.656 49.594-47.453 65.27-31.342 20.646-74.633 30.817-122.45 30.817H180.74c-84.138 0-154.257-31.494-169.902-96.087 1.778-3.394 4.232-6.454 7.212-9.06 6.464-5.666 15.414-9.171 25.282-9.171h425.337c14.413-.001 26.837 7.473 32.493 18.231z" style="" fill="#ffb655" data-original="#ffb655"></path><path d="m394.173 254.303-84.057 84.057a45.994 45.994 0 0 1-6.747 5.565c-17.797 12.05-42.18 10.202-57.947-5.565l-84.057-84.057h232.808z" style="" fill="#eebf00" data-original="#eebf00"></path><path d="m394.173 254.303-84.057 84.057a45.994 45.994 0 0 1-6.747 5.565 45.374 45.374 0 0 1-17.545-10.949l-78.674-78.674h187.023z" style="" fill="#ffd422" data-original="#ffd422"></path><path d="M494.991 266.03c0 4.404-.727 8.909-2.303 13.303-6.171 17.222-22.696 23.908-35.574 14.393l-15.444-11.404c-10.777-7.969-24.524-4.707-32.322 7.676l-.657 1.04c-7.485 11.899-20.535 15.434-31.191 8.464l-34.584-22.615c-7.979-5.212-17.545-4.646-25.1 1.505L290.1 300.938c-7.959 6.474-18.1 6.747-26.272.697l-31.615-23.433c-8.08-5.99-18.1-5.798-26.029.505l-28.787 22.858c-7.727 6.131-17.444 6.485-25.433.939l-37.271-25.898c-7.333-5.091-16.171-5.232-23.605-.374l-34.766 22.736c-23.151 2.98-34.413-14.02-34.413-14.02-5.545-9.636-6.101-21.06-3.101-30.645 3.566-11.454 12.202-20.282 23.433-20.282H469.77c11.01 0 19.807 8.697 23.423 20.232a39.094 39.094 0 0 1 1.798 11.777z" style="" fill="#6dc82a" data-original="#6dc82a"></path><path d="M493.193 254.253c-.152.505-.323 1-.505 1.505-6.171 17.232-22.696 23.918-35.574 14.403l-15.444-11.414c-10.777-7.959-24.524-4.697-32.322 7.676l-.657 1.05c-7.485 11.899-20.535 15.434-31.191 8.464l-34.584-22.615c-7.979-5.222-17.545-4.646-25.1 1.505L290.1 277.373c-7.959 6.475-18.1 6.737-26.272.687l-31.615-23.433c-8.08-5.99-18.1-5.788-26.029.505L177.397 278c-7.727 6.121-17.444 6.485-25.433.939l-37.271-25.898c-7.333-5.101-16.171-5.242-23.605-.374l-34.766 22.726c-23.151 2.99-34.413-14.02-34.413-14.02a36.184 36.184 0 0 1-3.101-7.07c3.566-11.454 12.202-20.282 23.433-20.282H469.77c11.009 0 19.807 8.697 23.423 20.232z" style="" fill="#7ed63e" data-original="#7ed63e"></path><path d="M486.365 213.234a32.814 32.814 0 0 1-1.242 9.666c-3.909 13.616-16.454 23.575-31.322 23.575-58.382 0-213.88-1.313-237.334-.535-.525.02-1.05.04-1.566.051-29.615 1.121-36.362 5.868-36.362 21.656v57.765c0 2.97-1.202 5.666-3.151 7.616a10.718 10.718 0 0 1-7.606 3.151c-5.949 0-10.767 4.818-10.767 10.767v25.161c0 2.555-.303 5.03-.889 7.414-3.323 13.757-15.737 23.969-30.645 23.969h-.798c-16.949 0-30.665-13.767-30.615-30.716l.141-45.544a12.65 12.65 0 0 1 3.727-8.949 12.657 12.657 0 0 1 8.969-3.707c7.01 0 12.696-5.687 12.696-12.696v-34.231c0-11.697-9.474-21.171-21.171-21.171H58.816c-17.828 0-32.827-14.07-33.191-31.898-.364-18.292 14.363-33.241 32.574-33.241h394.954c17.838-.001 32.858 14.07 33.212 31.897z" style="" fill="#ff3501" data-original="#ff3501"></path><path d="M486.365 213.234a32.814 32.814 0 0 1-1.242 9.666c-61.806-.061-209.487-1.283-232.294-.535-30.948 1.02-37.928 5.656-37.928 21.716v1.909c-29.615 1.121-36.362 5.868-36.362 21.656v57.765c0 2.97-1.202 5.666-3.151 7.616a10.718 10.718 0 0 1-7.606 3.151c-5.949 0-10.767 4.818-10.767 10.767v25.161c0 2.555-.303 5.03-.889 7.414-14.605-2.353-25.746-15.05-25.696-30.322l.141-45.534a12.633 12.633 0 0 1 3.727-8.949 12.657 12.657 0 0 1 8.969-3.707c7.01 0 12.696-5.687 12.696-12.696v-34.231c0-11.697-9.474-21.171-21.171-21.171H95.178c-17.828 0-32.827-14.07-33.191-31.898a32.593 32.593 0 0 1 1.252-9.676h389.914c17.838 0 32.858 14.071 33.212 31.898z" style="" fill="#ff5023" data-original="#ff5023"></path><path d="m300.029 148.227-72.068 72.098c-7.222 7.222-15.737 12.363-24.807 15.403-22.363 7.555-48.059 2.414-65.856-15.403L65.2 148.227h234.829z" style="" fill="#eebf00" data-original="#eebf00"></path><path d="m300.029 148.227-72.068 72.098c-7.222 7.222-15.737 12.363-24.807 15.403-9.06-3.04-17.575-8.182-24.787-15.403l-72.098-72.098h193.76z" style="" fill="#ffd422" data-original="#ffd422"></path><path d="M504.425 158.368c0 .535-.02 1.061-.05 1.586a26.754 26.754 0 0 1-7.808 17.393 26.747 26.747 0 0 1-18.979 7.858H34.413c-14.818 0-26.837-12.02-26.837-26.837 0-32.16 14.909-56.372 37.423-74.583C63.27 68.997 86.562 58.16 110.945 50.21 179.165 27.999 256 28.413 256 28.413s248.425-1.343 248.425 129.955z" style="" fill="#ffa733" data-original="#ffa733"></path><path d="M504.425 158.368c0 .535-.02 1.061-.05 1.586H88.956c-14.818 0-26.837-12.02-26.837-26.837 0-32.16 14.909-56.372 37.423-74.583a144.727 144.727 0 0 1 11.404-8.323C179.165 27.999 256 28.413 256 28.413s248.425-1.343 248.425 129.955z" style="" fill="#ffb655" data-original="#ffb655"></path><path d="M389.528 75.363c4.308 4.559 4.104 11.747-.455 16.055s-11.747 4.104-16.055-.455c-4.308-4.558-12.237-20.354-7.677-24.662 4.56-4.307 19.879 4.502 24.187 9.062zM329.328 131.491c2.248 5.855-.676 12.425-6.531 14.673s-12.425-.676-14.673-6.531-3.57-23.479 2.286-25.727c5.855-2.248 16.67 11.73 18.918 17.585zM267.357 84.78c0 6.272-5.085 11.357-11.357 11.357s-11.357-5.085-11.357-11.357c0-6.272 5.085-23.198 11.357-23.198s11.357 16.925 11.357 23.198zM204.912 138.608c-1.569 6.072-7.763 9.725-13.836 8.156-6.072-1.569-9.725-7.763-8.156-13.836 1.569-6.072 10.724-21.189 16.797-19.62 6.073 1.567 6.763 19.227 5.195 25.3zM142.432 89.138c-2.734 5.644-9.527 8.004-15.172 5.269-5.644-2.734-8.004-9.527-5.269-15.172 2.734-5.644 14.689-18.661 20.335-15.926 5.644 2.735 2.841 20.185.106 25.829z" style="" fill="#fff5cc" data-original="#fff5cc"></path><path d="M502.707 381.47c-4.04-1.03-8.171 1.414-9.212 5.464-14.242 55.776-74.896 89.077-162.246 89.077H180.74c-43.382 0-81.421-8.485-110.026-24.544a7.585 7.585 0 0 0-10.313 2.899 7.585 7.585 0 0 0 2.899 10.313c30.857 17.323 71.472 26.484 117.44 26.484h150.51c76.221 0 158.066-26.633 176.932-100.481a7.58 7.58 0 0 0-5.475-9.212zM285.514 294.904l.008-.006a.055.055 0 0 0-.008.006z" fill="#000000" opacity="1" data-original="#000000"></path><path d="M478.195 321.247a39.775 39.775 0 0 0 5.836-19.501c22.244-12.847 25.184-50.693 4.717-68.048 7.171-12.617 7.265-29.062-1.828-42.2 14.454-4.081 25.08-17.393 25.08-33.13 0-86.766-99.135-120.557-185.558-132.288a7.58 7.58 0 0 0-8.535 6.485 7.585 7.585 0 0 0 6.495 8.525C400.938 51.484 496.85 80.798 496.85 158.368c0 10.616-8.646 19.262-19.262 19.262H34.414c-10.616 0-19.262-8.646-19.262-19.262 0-49.725 38.645-85.36 114.864-105.915 40.498-10.923 90.751-16.366 126.278-16.464 1.656 0 16.737.051 38.291 1.848a7.577 7.577 0 1 0 1.263-15.1c-13.095-1.09-26.944-1.834-40.14-1.899-66.052 0-163.687 15.17-215.476 57.058C13.535 99.491 0 126.571 0 158.368c0 15.676 10.545 28.938 24.908 33.079-8.393 12.368-9.289 28.795-1.586 42.13-14.125 11.999-18.731 36.448-7.979 55.149 1.97 3.202 6.798 8.192 12.606 11.757a39.882 39.882 0 0 0 5.853 20.757C14.483 325.149 0 340.663 0 359.158c0 35.029 12.565 64.27 37.332 86.916a7.546 7.546 0 0 0 5.101 1.98c6.884 0 10.207-8.51 5.121-13.161-21.494-19.656-32.403-45.14-32.403-75.734 0-13.08 12.646-23.726 28.181-23.726h43.271l-.111 37.312c-.063 21.238 17.101 38.322 38.19 38.322h.798c21.565 0 39.11-17.474 39.11-38.958v-25.161a3.192 3.192 0 0 1 3.192-3.192c6.414 0 12.07-3.313 15.343-8.323h47.301c4.485 3.313 17.568 23.888 45.988 23.888 28.353 0 41.53-20.588 45.998-23.888h146.257c15.383 0 28.029 10.535 28.181 23.494.04 4.151 3.424 7.485 7.565 7.485h.091c4.182-.04 7.535-3.475 7.495-7.656-.218-18.279-14.682-33.613-33.806-37.509zM266.202 192.78H466.78c22.056 13.599 11.456 45.584-12.979 45.584-162.792 0-12.686-.42-237.598 0 15.188-8.075 19.911-16.527 49.999-45.584zm-237.89 88.108c-7.018-12.53-3.414-28.788 4.909-35.827 7.03 5.606 15.949 8.99 25.595 8.99H98.43c7.202 0 13.111 5.626 13.565 12.717a27.806 27.806 0 0 0-9.383-1.636c-11.413 0-16.081 5.029-48.907 26.494-11.15.902-20.436-4.081-25.393-10.738zm59.573 39.392H52.997c-4.492-3.407-7.803-8.291-9.18-13.929 4.044.635 13.218 1.193 16.656-1.05l34.766-22.726c8.926-5.845 16.103 1.142 16.787 1.404v17.898a5.121 5.121 0 0 1-5.121 5.121c-8.707 0-16.161 5.535-19.02 13.282zm83.078-23.443v28.575a3.19 3.19 0 0 1-3.182 3.192c-10.148 0-18.343 8.276-18.343 18.343v25.161c0 21.599-26.621 31.521-41.079 17.03-7.903-7.94-6.708-18.03-6.716-16.797l.14-45.089a5.13 5.13 0 0 1 5.121-5.101c11.095 0 20.272-9.014 20.272-20.272v-34.231c0-11.515-6.808-21.474-16.616-26.049-9.554-4.502-15.217-1.968-51.745-2.697-25.418 0-35.287-32.663-13.969-46.119h54.19l32.898 32.898c12.728 12.738 29.405 20.094 47.273 20.926-11.228 9.058-7.582 21.596-8.244 50.23zm-28.312-81.866L120.46 192.78h124.328l-22.181 22.191c-22.156 22.136-57.906 22.07-79.956 0zm43.463 105.309v-15.969l7.353-5.838 21.807 21.807h-29.16zm114.632 15.151c-15.002 12.46-37.273 11.622-51.321-2.424l-44.018-44.018c2.694-1.34 11.245-12.898 22.302-4.707l31.615 23.433c10.772 8.008 24.769 7.874 35.554-.899l27.716-22.545c5.03-4.091 10.929-4.475 16.181-1.04l9.262 6.05c-52.24 51.137-45.848 44.962-47.291 46.15zm158.265-15.151H337.562l22.878-22.878 9.444 6.171c1.727.783 11.051 9.489 25.009 6.424 13.93-3.043 20.588-15.659 20.868-15.969 5.078-8.065 13.755-11.276 21.413-5.616 12.475 8.239 18.54 16.596 31.181 17.222-1.263 5.945-4.664 11.098-9.344 14.646zm2.607-32.645c-16.118-11.903-15.481-11.463-16.393-12.09-13.924-9.509-32.114-5.682-42.291 10.414-.261.303-4.052 7.661-11.262 9.232-6.673 1.47-7.409-.301-44.614-24.635-10.808-7.07-23.837-6.323-34.019 1.96-15.833 12.878-27.568 22.42-27.275 22.185-.221.18-.144.117-.162.131l-.038.031a1.243 1.243 0 0 0-.065.053l.015-.012-.035.029c-.056.045-.142.116-.156.126-5.262 4.283-11.616 4.464-16.979.485-31.574-23.403-36.319-29.187-48.614-29.272-10.404-.074-16.961 5.035-25.1 11.939l-8.515 6.757v-17.323c0-20.052 4.304-13.595 267.686-13.595 9.262 0 18.03-3.111 25.13-8.828 7.401 6.394 10.906 19.653 6.636 31.544-4.086 11.39-14.564 17.791-23.949 10.869z" fill="#000000" opacity="1" data-original="#000000"></path><path d="M360.139 60.795c-4.498 4.248-4.952 11.135-1.351 20.469 4.265 11.058 10.702 20.831 22.5 20.831 16.431 0 25.184-19.832 13.746-31.935v-.001c-4.301-4.553-24.731-18.972-34.895-9.364zm21.028 26.147a3.764 3.764 0 0 1-2.641-1.183c-2.257-2.39-5.198-8.281-6.42-12.301 3.943 1.448 9.659 4.716 11.918 7.106 2.302 2.44.509 6.459-2.857 6.378zM301.053 142.35a18.81 18.81 0 0 0 9.975 10.51c15.272 6.795 31.439-8.295 25.372-24.085v.001c-2.245-5.847-15.643-26.956-28.706-21.942-13.06 5.016-8.887 29.669-6.641 35.516zm12.887-19.251c3.095 2.84 7.136 8.038 8.316 11.108v.001a3.782 3.782 0 0 1-7.061 2.711c-1.178-3.07-1.654-9.637-1.255-13.82zM237.067 84.78c0 10.44 8.493 18.933 18.933 18.933s18.933-8.493 18.933-18.933c0-6.263-4.942-30.774-18.933-30.774s-18.933 24.509-18.933 30.774zM256 88.561a3.787 3.787 0 0 1-3.782-3.782c0-3.288 1.91-9.59 3.782-13.351 1.873 3.761 3.782 10.063 3.782 13.351A3.787 3.787 0 0 1 256 88.561zM183.56 115.717c-6.891 9.225-11.825 19.703-5.954 29.664 8.553 14.512 30.447 11.353 34.64-4.881 1.567-6.065 2.912-31.029-10.635-34.53-5.99-1.544-12.063 1.733-18.051 9.747zm14.017 20.996c-.062.101-.272 1.447-1.741 2.313-2.905 1.715-6.417-.967-5.581-4.204.822-3.183 4.247-8.808 7-11.98.872 4.109 1.144 10.687.322 13.871zM115.173 75.934c-6.092 12.577 3.145 27.185 17.007 27.185 7.034 0 13.802-3.934 17.069-10.677 3.301-6.812 8.363-30.141-3.621-35.947-11.738-5.69-26.942 12.186-30.455 19.439zm20.442 9.901a3.786 3.786 0 0 1-5.051 1.755 3.787 3.787 0 0 1-1.755-5.053c1.433-2.958 5.9-7.798 9.224-10.366.043 4.201-.985 10.706-2.418 13.664z" fill="#000000" opacity="1" data-original="#000000"></path></g></svg>