<svg xmlns="http://www.w3.org/2000/svg" version="1.1" xmlns:xlink="http://www.w3.org/1999/xlink" width="512" height="512" x="0" y="0" viewBox="0 0 682.667 682.667" style="enable-background:new 0 0 512 512" xml:space="preserve" class=""><g><defs><clipPath id="a" clipPathUnits="userSpaceOnUse"><path d="M0 512h512V0H0Z" fill="#000000" opacity="1" data-original="#000000"></path></clipPath></defs><g clip-path="url(#a)" transform="matrix(1.33333 0 0 -1.33333 0 682.667)"><path d="M0 0v-149.72c0-5.52-4.48-10-10-10h-431.82c-5.52 0-10 4.48-10 10V0Z" style="fill-opacity:1;fill-rule:nonzero;stroke:none" transform="translate(481.91 181.2)" fill="#aa6a50" data-original="#aa6a50"></path><path d="M0 0v-149.72c0-5.52-4.48-10-10-10h-47.77c5.52 0 10 4.48 10 10V0Z" style="fill-opacity:1;fill-rule:nonzero;stroke:none" transform="translate(481.91 181.2)" fill="#935b44" data-original="#935b44"></path><path d="M0 0h19.28C13.38-3 6.81-4.59 0-4.59Z" style="fill-opacity:1;fill-rule:nonzero;stroke:none" transform="translate(30.09 181.2)" fill="#feb541" data-original="#feb541"></path><path d="M0 0h85.19v-10.92c0-23.49-19.11-42.59-42.6-42.59-.5 0-1.02.01-1.53.03C18.04-52.67 0-33.73 0-10.38Z" style="fill-opacity:1;fill-rule:nonzero;stroke:none" transform="translate(77.86 181.2)" fill="#935b44" data-original="#935b44"></path><path d="M0 0h38.24A42.193 42.193 0 0 0 17.5-4.56C11.13-4.34 5.23-2.74 0 0" style="fill-opacity:1;fill-rule:nonzero;stroke:none" transform="translate(282.15 181.2)" fill="#feb541" data-original="#feb541"></path><path d="M0 0h85.19v-10.92c0-23.49-19.11-42.59-42.59-42.59-.51 0-1.03.01-1.54.03C18.04-52.67 0-33.73 0-10.38Z" style="fill-opacity:1;fill-rule:nonzero;stroke:none" transform="translate(348.95 181.2)" fill="#935b44" data-original="#935b44"></path><path d="M0 0v0c0-5.523 4.477-10 10-10h431.818c5.523 0 10 4.477 10 10v149.715H0V32.991" style="stroke-width:15;stroke-linecap:round;stroke-linejoin:round;stroke-miterlimit:10;stroke-dasharray:none;stroke-opacity:1" transform="translate(30.09 31.48)" fill="none" stroke="#000000" stroke-width="15" stroke-linecap="round" stroke-linejoin="round" stroke-miterlimit="10" stroke-dasharray="none" stroke-opacity="" data-original="#000000"></path><path d="M481.91 80.34H30.09v42h451.82z" style="fill-opacity:1;fill-rule:nonzero;stroke:none" fill="#ffe7c7" data-original="#ffe7c7"></path><path d="M481.91 80.34h-47.77v42h47.77z" style="fill-opacity:1;fill-rule:nonzero;stroke:none" fill="#ffd693" data-original="#ffd693"></path><path d="M0 0h-115.212v-42.003h451.818V0H32.99" style="stroke-width:15;stroke-linecap:round;stroke-linejoin:round;stroke-miterlimit:10;stroke-dasharray:none;stroke-opacity:1" transform="translate(145.303 122.339)" fill="none" stroke="#000000" stroke-width="15" stroke-linecap="round" stroke-linejoin="round" stroke-miterlimit="10" stroke-dasharray="none" stroke-opacity="" data-original="#000000"></path><path d="M481.91 170.19H30.09v136.23h451.82z" style="fill-opacity:1;fill-rule:nonzero;stroke:none" fill="#fe4855" data-original="#fe4855"></path><path d="M0 0v-129.81c11.38 0 22.07 4.43 30.12 12.47 8.04 8.05 12.47 18.74 12.47 30.12a2.59 2.59 0 0 0 2.59 2.59h.12c1.29-.05 2.47-1.54 2.47-3.13v-47.84c0-.21 0-.42.01-.63h85.18v73.39c0 1.59 1.18 3.08 2.47 3.13h.12c1.42 0 2.59-1.16 2.59-2.59 0-23.48 19.1-42.59 42.59-42.59 23.48 0 42.59 19.11 42.59 42.59a2.59 2.59 0 0 0 2.59 2.59h.11c1.3-.05 2.48-1.54 2.48-3.13v-19.43c0-26.68 17.27-46.67 41.06-47.51.51-.02 1.02-.03 1.53-.03 23.49 0 42.59 19.11 42.59 42.59 0 1.43 1.17 2.59 2.59 2.59h.12c1.29-.05 2.47-1.54 2.47-3.13v-47.84c0-.21 0-.42.01-.63h132.95V0z" style="fill-opacity:1;fill-rule:nonzero;stroke:none" transform="translate(30.09 306.42)" fill="#fb2b3b" data-original="#fb2b3b"></path><path d="M481.909 170.194H30.091v136.224h451.818z" style="stroke-width:15;stroke-linecap:round;stroke-linejoin:round;stroke-miterlimit:10;stroke-dasharray:none;stroke-opacity:1" fill="none" stroke="#000000" stroke-width="15" stroke-linecap="round" stroke-linejoin="round" stroke-miterlimit="10" stroke-dasharray="none" stroke-opacity="" data-original="#000000"></path><path d="M0 0c10.847-18.031 10.527-39.665 1.035-56.846-19.626-.336-38.898 9.512-49.745 27.543-9.531 15.842-10.437 34.46-4.085 50.391 1.628 4.085 5.828 6.61 10.199 6.134C-25.544 25.365-9.531 15.843 0 0" style="fill-opacity:1;fill-rule:nonzero;stroke:none" transform="translate(210.373 410.818)" fill="#80d361" data-original="#80d361"></path><path d="M0 0c-4.18-.07-8.35.32-12.42 1.16 2.71 13.43.6 27.87-7.02 40.53C-27.98 55.88-41.72 65-56.76 68.08c.68 3.37 1.66 6.67 2.93 9.86 1.63 4.08 5.83 6.61 10.2 6.13 17.05-1.86 33.06-11.38 42.59-27.22C9.81 38.82 9.49 17.18 0 0" style="fill-opacity:1;fill-rule:nonzero;stroke:none" transform="translate(211.41 353.97)" fill="#67cb44" data-original="#67cb44"></path><path d="M0 0c10.847-18.031 10.527-39.665 1.035-56.846-19.626-.336-38.898 9.512-49.745 27.543-9.531 15.842-10.437 34.46-4.085 50.391 1.628 4.085 5.828 6.61 10.199 6.134C-25.544 25.365-9.531 15.843 0 0Z" style="stroke-width:15;stroke-linecap:round;stroke-linejoin:round;stroke-miterlimit:10;stroke-dasharray:none;stroke-opacity:1" transform="translate(210.373 410.818)" fill="none" stroke="#000000" stroke-width="15" stroke-linecap="round" stroke-linejoin="round" stroke-miterlimit="10" stroke-dasharray="none" stroke-opacity="" data-original="#000000"></path><path d="M0 0c-10.847-18.031-10.527-39.665-1.035-56.846 19.626-.336 38.898 9.512 49.745 27.543 9.531 15.842 10.437 34.46 4.085 50.391-1.628 4.085-5.828 6.61-10.199 6.134C25.544 25.365 9.531 15.843 0 0" style="fill-opacity:1;fill-rule:nonzero;stroke:none" transform="translate(301.627 410.818)" fill="#80d361" data-original="#80d361"></path><path d="M0 0c-10.85-18.04-30.12-27.88-49.75-27.55-.61 1.11-1.19 2.24-1.72 3.38C-39.61-19.89-29.08-11.66-22.07 0c10.15 16.87 10.52 36.9 2.75 53.47a57.362 57.362 0 0 0 13.054 3.036c4.425.495 8.7-1.987 10.349-6.123C10.435 34.455 9.527 15.84 0 0" style="fill-opacity:1;fill-rule:nonzero;stroke:none" transform="translate(350.34 381.52)" fill="#67cb44" data-original="#67cb44"></path><path d="M0 0c-10.847-18.031-10.527-39.665-1.035-56.846 19.626-.336 38.898 9.512 49.745 27.543 9.531 15.842 10.437 34.46 4.085 50.391-1.628 4.085-5.828 6.61-10.199 6.134C25.544 25.365 9.531 15.843 0 0Z" style="stroke-width:15;stroke-linecap:round;stroke-linejoin:round;stroke-miterlimit:10;stroke-dasharray:none;stroke-opacity:1" transform="translate(301.627 410.818)" fill="none" stroke="#000000" stroke-width="15" stroke-linecap="round" stroke-linejoin="round" stroke-miterlimit="10" stroke-dasharray="none" stroke-opacity="" data-original="#000000"></path><path d="M0 0c0 36.521 17.112 69.044 43.753 89.997 7.889 6.204 19.04 6.205 26.929.002C97.331 69.045 114.434 36.521 114.434 0c0-26.556-25.617-48.084-57.217-48.084C25.617-48.084 0-26.556 0 0" style="fill-opacity:1;fill-rule:nonzero;stroke:none" transform="translate(198.783 395.87)" fill="#fe4855" data-original="#fe4855"></path><path d="M0 0c0-26.56-25.62-48.08-57.22-48.08-4.84 0-9.53.5-14.02 1.45C-46.42-41.37-28.05-22.49-28.05 0c0 36.26-16.86 68.59-43.19 89.55.18.15.37.3.56.45 7.89 6.2 19.04 6.2 26.93 0C-17.11 69.05 0 36.52 0 0" style="fill-opacity:1;fill-rule:nonzero;stroke:none" transform="translate(313.22 395.87)" fill="#fb2b3b" data-original="#fb2b3b"></path><path d="M0 0h.113" style="stroke-width:15;stroke-linecap:round;stroke-linejoin:round;stroke-miterlimit:10;stroke-dasharray:none;stroke-opacity:1" transform="translate(226.816 404.851)" fill="none" stroke="#000000" stroke-width="15" stroke-linecap="round" stroke-linejoin="round" stroke-miterlimit="10" stroke-dasharray="none" stroke-opacity="" data-original="#000000"></path><path d="M0 0h.113" style="stroke-width:15;stroke-linecap:round;stroke-linejoin:round;stroke-miterlimit:10;stroke-dasharray:none;stroke-opacity:1" transform="translate(255.936 404.851)" fill="none" stroke="#000000" stroke-width="15" stroke-linecap="round" stroke-linejoin="round" stroke-miterlimit="10" stroke-dasharray="none" stroke-opacity="" data-original="#000000"></path><path d="M0 0h.113" style="stroke-width:15;stroke-linecap:round;stroke-linejoin:round;stroke-miterlimit:10;stroke-dasharray:none;stroke-opacity:1" transform="translate(285.058 404.851)" fill="none" stroke="#000000" stroke-width="15" stroke-linecap="round" stroke-linejoin="round" stroke-miterlimit="10" stroke-dasharray="none" stroke-opacity="" data-original="#000000"></path><path d="M0 0h.113" style="stroke-width:15;stroke-linecap:round;stroke-linejoin:round;stroke-miterlimit:10;stroke-dasharray:none;stroke-opacity:1" transform="translate(255.936 460.207)" fill="none" stroke="#000000" stroke-width="15" stroke-linecap="round" stroke-linejoin="round" stroke-miterlimit="10" stroke-dasharray="none" stroke-opacity="" data-original="#000000"></path><path d="M0 0h.113" style="stroke-width:15;stroke-linecap:round;stroke-linejoin:round;stroke-miterlimit:10;stroke-dasharray:none;stroke-opacity:1" transform="translate(241.376 432.53)" fill="none" stroke="#000000" stroke-width="15" stroke-linecap="round" stroke-linejoin="round" stroke-miterlimit="10" stroke-dasharray="none" stroke-opacity="" data-original="#000000"></path><path d="M0 0h.113" style="stroke-width:15;stroke-linecap:round;stroke-linejoin:round;stroke-miterlimit:10;stroke-dasharray:none;stroke-opacity:1" transform="translate(270.497 432.53)" fill="none" stroke="#000000" stroke-width="15" stroke-linecap="round" stroke-linejoin="round" stroke-miterlimit="10" stroke-dasharray="none" stroke-opacity="" data-original="#000000"></path><path d="M0 0c0 36.521 17.112 69.044 43.753 89.997 7.889 6.204 19.04 6.205 26.929.002C97.331 69.045 114.434 36.521 114.434 0c0-26.556-25.617-48.084-57.217-48.084C25.617-48.084 0-26.556 0 0Z" style="stroke-width:15;stroke-linecap:round;stroke-linejoin:round;stroke-miterlimit:10;stroke-dasharray:none;stroke-opacity:1" transform="translate(198.783 395.87)" fill="none" stroke="#000000" stroke-width="15" stroke-linecap="round" stroke-linejoin="round" stroke-miterlimit="10" stroke-dasharray="none" stroke-opacity="" data-original="#000000"></path><path d="M0 0c0-22.445-18.195-40.641-40.641-40.641-22.445 0-40.641 18.196-40.641 40.641 0 22.446 18.196 40.641 40.641 40.641C-18.195 40.641 0 22.446 0 0" style="fill-opacity:1;fill-rule:nonzero;stroke:none" transform="translate(190.409 343.228)" fill="#aa6a50" data-original="#aa6a50"></path><path d="M0 0c0-22.45-18.2-40.64-40.64-40.64-5.54 0-10.82 1.11-15.64 3.11C-41.59-31.4-31.27-16.91-31.27 0c0 16.9-10.32 31.4-25.01 37.53 4.82 2 10.1 3.11 15.64 3.11C-18.2 40.64 0 22.44 0 0" style="fill-opacity:1;fill-rule:nonzero;stroke:none" transform="translate(190.41 343.23)" fill="#935b44" data-original="#935b44"></path><path d="M0 0c0-22.445-18.195-40.641-40.641-40.641-22.445 0-40.641 18.196-40.641 40.641 0 22.446 18.196 40.641 40.641 40.641C-18.195 40.641 0 22.446 0 0Z" style="stroke-width:15;stroke-linecap:round;stroke-linejoin:round;stroke-miterlimit:10;stroke-dasharray:none;stroke-opacity:1" transform="translate(190.409 343.228)" fill="none" stroke="#000000" stroke-width="15" stroke-linecap="round" stroke-linejoin="round" stroke-miterlimit="10" stroke-dasharray="none" stroke-opacity="" data-original="#000000"></path><path d="M0 0c0-22.445-18.196-40.641-40.641-40.641-22.446 0-40.641 18.196-40.641 40.641 0 22.446 18.195 40.641 40.641 40.641C-18.196 40.641 0 22.446 0 0" style="fill-opacity:1;fill-rule:nonzero;stroke:none" transform="translate(261.23 343.228)" fill="#aa6a50" data-original="#aa6a50"></path><path d="M0 0c0-22.45-18.2-40.64-40.64-40.64-5.54 0-10.82 1.11-15.64 3.11C-41.59-31.4-31.27-16.91-31.27 0c0 16.9-10.32 31.4-25.01 37.53 4.82 2 10.1 3.11 15.64 3.11C-18.2 40.64 0 22.44 0 0" style="fill-opacity:1;fill-rule:nonzero;stroke:none" transform="translate(261.23 343.23)" fill="#935b44" data-original="#935b44"></path><path d="M0 0c0-22.445-18.196-40.641-40.641-40.641-22.446 0-40.641 18.196-40.641 40.641 0 22.446 18.195 40.641 40.641 40.641C-18.196 40.641 0 22.446 0 0Z" style="stroke-width:15;stroke-linecap:round;stroke-linejoin:round;stroke-miterlimit:10;stroke-dasharray:none;stroke-opacity:1" transform="translate(261.23 343.228)" fill="none" stroke="#000000" stroke-width="15" stroke-linecap="round" stroke-linejoin="round" stroke-miterlimit="10" stroke-dasharray="none" stroke-opacity="" data-original="#000000"></path><path d="M0 0c0-22.445-18.195-40.641-40.641-40.641-22.445 0-40.641 18.196-40.641 40.641 0 22.446 18.196 40.641 40.641 40.641C-18.195 40.641 0 22.446 0 0" style="fill-opacity:1;fill-rule:nonzero;stroke:none" transform="translate(332.052 343.228)" fill="#aa6a50" data-original="#aa6a50"></path><path d="M0 0c0-22.45-18.19-40.64-40.64-40.64-5.54 0-10.82 1.11-15.63 3.12C-41.58-31.4-31.26-16.91-31.26 0c0 16.9-10.32 31.39-25.01 37.52a40.442 40.442 0 0 0 15.63 3.12C-18.19 40.64 0 22.44 0 0" style="fill-opacity:1;fill-rule:nonzero;stroke:none" transform="translate(332.05 343.23)" fill="#935b44" data-original="#935b44"></path><path d="M0 0c0-22.445-18.195-40.641-40.641-40.641-22.445 0-40.641 18.196-40.641 40.641 0 22.446 18.196 40.641 40.641 40.641C-18.195 40.641 0 22.446 0 0Z" style="stroke-width:15;stroke-linecap:round;stroke-linejoin:round;stroke-miterlimit:10;stroke-dasharray:none;stroke-opacity:1" transform="translate(332.052 343.228)" fill="none" stroke="#000000" stroke-width="15" stroke-linecap="round" stroke-linejoin="round" stroke-miterlimit="10" stroke-dasharray="none" stroke-opacity="" data-original="#000000"></path><path d="M0 0c0-22.445-18.196-40.641-40.641-40.641-22.446 0-40.641 18.196-40.641 40.641 0 22.446 18.195 40.641 40.641 40.641C-18.196 40.641 0 22.446 0 0" style="fill-opacity:1;fill-rule:nonzero;stroke:none" transform="translate(402.873 343.228)" fill="#aa6a50" data-original="#aa6a50"></path><path d="M0 0c0-22.45-18.19-40.64-40.64-40.64-5.54 0-10.82 1.11-15.63 3.11C-41.59-31.4-31.26-16.91-31.26 0c0 16.9-10.33 31.4-25.01 37.53 4.81 2 10.09 3.11 15.63 3.11C-18.19 40.64 0 22.44 0 0" style="fill-opacity:1;fill-rule:nonzero;stroke:none" transform="translate(402.87 343.23)" fill="#935b44" data-original="#935b44"></path><path d="M0 0c0-22.445-18.196-40.641-40.641-40.641-22.446 0-40.641 18.196-40.641 40.641 0 22.446 18.195 40.641 40.641 40.641C-18.196 40.641 0 22.446 0 0Z" style="stroke-width:15;stroke-linecap:round;stroke-linejoin:round;stroke-miterlimit:10;stroke-dasharray:none;stroke-opacity:1" transform="translate(402.873 343.228)" fill="none" stroke="#000000" stroke-width="15" stroke-linecap="round" stroke-linejoin="round" stroke-miterlimit="10" stroke-dasharray="none" stroke-opacity="" data-original="#000000"></path><path d="M0 0c0-9.248 5.643-17.724 14.355-20.823C30.29-26.49 45.182-14.829 45.182.311c0 12.75 10.563 23.033 23.415 22.576 12.241-.435 21.767-10.868 21.767-23.118v-47.838c0-12.249 9.525-22.682 21.767-23.118 12.852-.457 23.414 9.827 23.414 22.577v73.3c0 12.249 9.526 22.683 21.767 23.118 12.853.457 23.415-9.827 23.415-22.577 0-12.476 10.115-22.59 22.591-22.59 12.477 0 22.591 10.114 22.591 22.59 0 12.75 10.563 23.034 23.415 22.577 12.241-.435 21.767-10.869 21.767-23.118V5.259c0-16.663 9.525-27.09 21.767-27.525 12.852-.457 23.415 9.827 23.415 22.577 0 12.75 10.562 23.033 23.414 22.576 12.242-.435 21.768-10.868 21.768-23.118v-47.838c0-12.249 9.525-22.682 21.767-23.118 12.852-.457 23.414 9.827 23.414 22.577v97.3c0 12.249 9.526 22.683 21.767 23.118 12.852.457 23.415-9.827 23.415-22.577V.852c0-12.249 9.525-22.683 21.767-23.118C486.437-22.723 497-12.439 497 .311v89.567c0 13.808-11.193 25-25 25H25c-13.807 0-25-11.192-25-25z" style="fill-opacity:1;fill-rule:nonzero;stroke:none" transform="translate(7.5 218.89)" fill="#ffe7c7" data-original="#ffe7c7"></path><path d="M0 0v-89.57c0-12.75-10.56-23.03-23.41-22.58-6.85.25-12.85 3.62-16.79 8.68 3 3.83 4.79 8.66 4.79 13.9V0c0 13.81-11.19 25-25 25H-25C-11.19 25 0 13.81 0 0" style="fill-opacity:1;fill-rule:nonzero;stroke:none" transform="translate(504.5 308.77)" fill="#ffd693" data-original="#ffd693"></path><path d="M0 0h-317.215c-13.807 0-25-11.193-25-25v-89.878c0-9.248 5.643-17.725 14.356-20.823 15.934-5.667 30.826 5.994 30.826 21.133 0 12.75 10.562 23.033 23.415 22.576 12.242-.435 21.767-10.868 21.767-23.117v-47.838c0-12.25 9.525-22.683 21.767-23.118 12.852-.457 23.415 9.826 23.415 22.576v73.301c0 12.25 9.525 22.682 21.767 23.117 12.852.457 23.415-9.825 23.415-22.576 0-12.477 10.114-22.591 22.591-22.591 12.476 0 22.59 10.114 22.59 22.591 0 12.751 10.563 23.033 23.415 22.576 12.242-.435 21.767-10.868 21.767-23.117v-19.431c0-16.663 9.525-27.09 21.767-27.525 12.852-.457 23.415 9.826 23.415 22.576s10.563 23.033 23.415 22.576c12.241-.435 21.767-10.868 21.767-23.117v-47.838c0-12.25 9.525-22.683 21.767-23.118 12.852-.457 23.414 9.826 23.414 22.576v97.301c0 12.25 9.526 22.682 21.767 23.117 12.853.457 23.416-9.825 23.416-22.576v-48.379c0-12.25 9.524-22.683 21.767-23.118 12.852-.457 23.414 9.826 23.414 22.576V-25c0 13.807-11.193 25-25 25H32.991" style="stroke-width:15;stroke-linecap:round;stroke-linejoin:round;stroke-miterlimit:10;stroke-dasharray:none;stroke-opacity:1" transform="translate(349.715 333.769)" fill="none" stroke="#000000" stroke-width="15" stroke-linecap="round" stroke-linejoin="round" stroke-miterlimit="10" stroke-dasharray="none" stroke-opacity="" data-original="#000000"></path></g></g></svg>