<svg xmlns="http://www.w3.org/2000/svg" version="1.1" xmlns:xlink="http://www.w3.org/1999/xlink" width="512" height="512" x="0" y="0" viewBox="0 0 60 60" style="enable-background:new 0 0 512 512" xml:space="preserve" class=""><g><path fill="#ce326b" d="M12.73 55.2 3.2 58.89a1.621 1.621 0 0 1-2.09-2.09l3.69-9.53z" opacity="1" data-original="#ce326b" class=""></path><path fill="#f2ce36" d="M49.259 10.067c1.2-1.966 1.2-3.168 0-5.133a.493.493 0 0 1 .674-.686c1.966 1.2 3.168 1.2 5.133 0a.5.5 0 0 1 .686.686c-1.2 1.965-1.2 3.167 0 5.133a.493.493 0 0 1-.686.674c-1.965-1.2-3.167-1.2-5.133 0a.487.487 0 0 1-.674-.674zM54.55 33.845a3.582 3.582 0 0 0 0 4.493.433.433 0 0 1-.6.6 3.581 3.581 0 0 0-4.492 0 .433.433 0 0 1-.6-.6 3.582 3.582 0 0 0 0-4.493.432.432 0 0 1 .6-.595 3.581 3.581 0 0 0 4.492 0 .432.432 0 0 1 .6.595z" opacity="1" data-original="#f2ce36"></path><path fill="#ce326b" d="M58.919 22.77a.493.493 0 0 1-.674.686c-1.965-1.2-3.167-1.2-5.133 0a.5.5 0 0 1-.685-.686c1.2-1.965 1.2-3.167 0-5.133a.493.493 0 0 1 .685-.674c1.966 1.2 3.168 1.2 5.133 0a.488.488 0 0 1 .674.674c-1.202 1.963-1.202 3.168 0 5.133z" opacity="1" data-original="#ce326b" class=""></path><path fill="#5e4ef9" d="M43.037 6.888a.493.493 0 0 1-.674.685c-1.966-1.2-3.168-1.2-5.133 0a.5.5 0 0 1-.686-.685c1.2-1.966 1.2-3.168 0-5.133a.493.493 0 0 1 .686-.674c1.965 1.2 3.167 1.2 5.133 0a.488.488 0 0 1 .674.674c-1.202 1.965-1.202 3.167 0 5.133z" opacity="1" data-original="#5e4ef9"></path><path fill="#ce326b" d="M26.75 6.046a3.581 3.581 0 0 0 0 4.492.432.432 0 0 1-.595.6 3.582 3.582 0 0 0-4.493 0 .433.433 0 0 1-.6-.6 3.581 3.581 0 0 0 0-4.492.433.433 0 0 1 .6-.6 3.582 3.582 0 0 0 4.493 0 .432.432 0 0 1 .595.6z" opacity="1" data-original="#ce326b" class=""></path><path fill="#f2ce36" d="m19.54 52.57-6.81 2.63a49.506 49.506 0 0 1-4.18-3.75 49.506 49.506 0 0 1-3.75-4.18l2.63-6.81z" opacity="1" data-original="#f2ce36"></path><path fill="#ce326b" d="m26.48 49.89-6.94 2.68A49.752 49.752 0 0 1 7.43 40.46l2.68-6.94z" opacity="1" data-original="#ce326b" class=""></path><path fill="#f2ce36" d="M33.8 47.05v.01l-7.32 2.83a52.42 52.42 0 0 1-16.37-16.37l2.83-7.32h.01z" opacity="1" data-original="#f2ce36"></path><path fill="#ce326b" d="M33.8 47.06v-.01a49.306 49.306 0 0 1-12-8.85 49.306 49.306 0 0 1-8.85-12h-.01L16.5 17 43 43.5z" opacity="1" data-original="#ce326b" class=""></path><path fill="#b52862" d="M43 43.5s-5.3 0-15.9-10.594S16.5 17 16.5 17s5.3 0 15.891 10.607S43 43.5 43 43.5z" opacity="1" data-original="#b52862"></path><path fill="#5e4ef9" d="M36.615 24.385a1 1 0 0 1-.707-1.707l9.531-9.532a1 1 0 1 1 1.415 1.415l-9.532 9.531a1 1 0 0 1-.707.293z" opacity="1" data-original="#5e4ef9"></path><path fill="#ce326b" d="M51.705 29.944a.992.992 0 0 1-.551-.166 10.45 10.45 0 0 0-9.38-.71 1 1 0 0 1-.787-1.838 12.47 12.47 0 0 1 11.274.882 1 1 0 0 1-.556 1.832z" opacity="1" data-original="#ce326b" class=""></path><path fill="#f2ce36" d="M31.851 19.619a.979.979 0 0 1-.394-.081 1 1 0 0 1-.525-1.312 10.438 10.438 0 0 0-.71-9.38 1 1 0 0 1 1.666-1.107 12.472 12.472 0 0 1 .882 11.274 1 1 0 0 1-.919.606z" opacity="1" data-original="#f2ce36"></path><path fill="#ce326b" d="M45.352 23.59a1 1 0 0 1-.213-1.977l.173-.038a1 1 0 1 1 .428 1.953l-.174.038a.982.982 0 0 1-.214.024z" opacity="1" data-original="#ce326b" class=""></path><path fill="#f2ce36" d="M37.411 15.647a1 1 0 0 1-.977-1.213l.038-.174a1 1 0 1 1 1.953.428l-.038.173a1 1 0 0 1-.976.786zM27.084 16.442a1 1 0 0 1-.971-.763l-.034-.141a1 1 0 0 1 1.943-.473l.035.141a1 1 0 0 1-.736 1.208.965.965 0 0 1-.237.028z" opacity="1" data-original="#f2ce36"></path><path fill="#ce326b" d="M44.7 33.949a1.016 1.016 0 0 1-.237-.028l-.141-.034a1 1 0 0 1 .473-1.944l.141.035a1 1 0 0 1-.236 1.971z" opacity="1" data-original="#ce326b" class=""></path></g></svg>