<svg xmlns="http://www.w3.org/2000/svg" version="1.1" xmlns:xlink="http://www.w3.org/1999/xlink" width="512" height="512" x="0" y="0" viewBox="0 0 512.002 512.002" style="enable-background:new 0 0 512 512" xml:space="preserve" class=""><g><path d="M61.963 197.735c18.603-3.055 36.164 9.557 39.219 28.16l-67.379 11.059c-3.055-18.611 9.557-36.164 28.16-39.219z" style="" fill="#4398d1" data-original="#4398d1"></path><path d="M52.154 172.204h17.067v35.831H52.154z" style="" transform="rotate(170.716 60.687 190.12)" fill="#4398d1" data-original="#4398d1"></path><path d="m101.037 277.744 25.386-56.055L8.535 241.051l41.976 44.987 2.765 16.845 50.526-8.294z" style="" fill="#3685ba" data-original="#3685ba"></path><path d="m143.012 322.74-5.529-33.681-33.681 5.53-50.526 8.294-33.681 5.53 5.529 33.681 33.681-5.53 50.526-8.294zM127.302 437.761l-50.5 8.269c-23.253 3.823-38.997 25.762-35.183 49.015l1.357 8.422L177.7 481.349l-1.382-8.422c-3.832-23.245-25.771-38.98-49.016-35.166z" style="" fill="#4398d1" data-original="#4398d1"></path><path d="m109.331 328.27-50.526 8.294 9.558 110.848 67.362-11.059z" style="" fill="#3685ba" data-original="#3685ba"></path><path d="m312.006 137.883-15.471-7.211 15.224-33.331 15.462 7.219zM312.288 257.674l14.438-30.934-30.933-14.43-46.404-21.649-30.934-14.43-14.429 30.934 30.933 14.43 46.404 21.649zM234.464 343.775l-46.404-21.649c-21.359-9.958-46.746-.725-56.704 20.634l-3.61 7.731 123.733 57.719 3.61-7.731c9.958-21.35.725-46.737-20.625-56.704z" style="" fill="#e8594a" data-original="#e8594a"></path><path d="m281.363 243.244-46.404-21.649-54.631 96.93 61.867 28.86zM325.122 169.516c8.081-17.033.819-37.393-16.213-45.466-17.033-8.081-37.393-.819-45.466 16.213a34.157 34.157 0 0 0-1.903 24.277l-12.194 26.129 46.404 21.649 12.186-26.138a33.853 33.853 0 0 0 17.186-16.664z" style="" fill="#d95345" data-original="#d95345"></path><path d="M426.669 8.534h-135.68a34.132 34.132 0 0 0-28.066 14.703l-45.517 65.758c-10.684 15.437-6.835 36.608 8.602 47.292a32.85 32.85 0 0 0 2.492 1.57c15.514 8.866 35.243 4.207 45.158-10.658l33.545-50.398h85.333c18.85 0 34.133 15.283 34.133 34.133s-15.283 34.133-34.133 34.133H359.87c-17.937-.299-33.22 12.971-35.439 30.78-1.852 18.756 11.853 35.473 30.618 37.325 1.109.111 2.236.162 3.354.162h153.6V8.534h-85.334z" style="" fill="#fec9a3" data-original="#fec9a3"></path><path d="M.002 494.934h512v17.067h-512z" style="" fill="#87ced9" data-original="#87ced9"></path><path d="M151.58 162.143h38.16v17.066h-38.16z" style="" transform="scale(-1) rotate(-63.435 -276.168 276.142)" fill="#87ced9" data-original="#87ced9"></path><path d="M119.46 151.588h17.066v38.16H119.46z" style="" transform="scale(-1) rotate(-26.565 -722.982 542.206)" fill="#87ced9" data-original="#87ced9"></path><path d="m277.805 450.834-9.472-14.199a48.858 48.858 0 0 0 21.803-40.687v-3.413h17.067v3.413a65.883 65.883 0 0 1-29.398 54.886z" style="" fill="#87ced9" data-original="#87ced9"></path><path d="M269.903 28.101a25.606 25.606 0 0 1 21.086-11.034h221.013V.001H290.989a42.666 42.666 0 0 0-35.081 18.381l-45.559 65.749c-13.372 19.319-8.542 45.815 10.778 59.187.998.691 2.031 1.34 3.089 1.946a42.14 42.14 0 0 0 27.708 4.873 43 43 0 0 0 .657 13.508l-7.322 15.676-23.194-10.82c-4.267-1.997-9.344-.145-11.341 4.122l-14.455 30.933c-1.997 4.267-.154 9.344 4.113 11.349h.009l22.579 10.53-47.625 84.48a51.315 51.315 0 0 0-25.19 3.772l-4.267-26.018a8.464 8.464 0 0 0-9.677-7.049.63.63 0 0 1-.119.017l-25.267 4.147-.973-5.879 24.329-53.7c1.946-4.292.051-9.353-4.241-11.298a8.524 8.524 0 0 0-4.915-.649l-17.698 2.901a42.808 42.808 0 0 0-38.204-27.418l-2.901-17.698-16.836 2.765 2.901 17.698a42.798 42.798 0 0 0-27.443 38.212l-17.69 2.91a8.542 8.542 0 0 0-7.04 9.805 8.494 8.494 0 0 0 2.185 4.437l40.209 43.102.964 5.871-25.259 4.147c-4.634.759-7.782 5.129-7.04 9.771l5.538 33.681a8.53 8.53 0 0 0 8.405 7.151c.469 0 .93-.034 1.391-.119l24.593-4.019 8.329 96.64C40.698 453.206 30.184 473.84 33 494.934H.002v17.067h512v-17.067H147.629l31.471-5.12c4.651-.759 7.799-5.154 7.04-9.805l-1.382-8.422c-3.575-21.547-20.403-38.468-41.933-42.155l-17.212-70.485 122.274 57.037c4.267 1.997 9.344.145 11.341-4.122l3.61-7.731c9.344-19.746 4.941-43.264-10.914-58.3l34.193-90.914 22.571 10.47a8.65 8.65 0 0 0 3.61.794c.99 0 1.98-.171 2.91-.512a8.565 8.565 0 0 0 4.821-4.412l14.43-30.933c1.988-4.275.145-9.353-4.13-11.341l-23.194-10.769 7.313-15.676c1.058-.572 2.014-1.297 3.021-1.946 4.924 18.534 21.76 31.403 40.934 31.275h153.6V204.8h-153.6a25.675 25.675 0 0 1-18.953-8.388 25.369 25.369 0 0 1-6.519-19.755c1.801-13.423 13.397-23.347 26.94-23.057h32.666c23.561 0 42.667-19.106 42.667-42.667s-19.106-42.667-42.667-42.667h-85.333a8.545 8.545 0 0 0-7.1 3.797L266.5 122.469c-.188.29-.444.521-.649.802a42.322 42.322 0 0 0-3.908 4.207 25.445 25.445 0 0 1-29.252 2.97c-12.194-6.989-16.418-22.545-9.421-34.748.358-.623.751-1.237 1.161-1.835l45.472-65.764zM63.328 206.107a25.599 25.599 0 0 1 26.59 12.937l-32.64 5.385-14.993 2.458a25.61 25.61 0 0 1 21.043-20.78zm-37.675 40.78 43.213-7.1 33.681-5.53 9.515-1.562-18.773 41.532a8.55 8.55 0 0 0-.649 4.898l1.382 8.422-21.675 3.567-12.006 1.971-1.382-8.431a8.548 8.548 0 0 0-2.176-4.437l-31.13-33.33zm103.032 199.262c18.603-3.021 36.156 9.566 39.253 28.16L50.007 493.671c-3.055-18.611 9.549-36.181 28.16-39.253l25.259-4.147 25.259-4.122zM67.987 343.707l31.932-5.248 2.995-.486 22.332 91.452-49.169 8.081-8.09-93.799zm55.637-4.557-1.869 4.011-1.946-7.962 6.537-1.075a51.05 51.05 0 0 0-2.722 5.026zm-91.46-6.827-2.765-16.836 101.052-16.597 2.756 16.845-101.043 16.588zm215.194 64.58-108.262-50.534c7.962-17.084 28.271-24.482 45.363-16.512l46.404 21.649c17.084 7.97 24.474 28.279 16.503 45.363l-.008.034zm-9.907-61.115-22.579-10.573-22.588-10.53 46.225-82.014 32.085 14.967-33.143 88.15zm77.926-104.883-7.211 15.462-23.151-10.846-46.404-21.649-23.177-10.812 7.211-15.471 92.732 43.316zm-3.61-145.571h80.768c14.14 0 25.6 11.46 25.6 25.6s-11.46 25.6-25.6 25.6H359.87a44.828 44.828 0 0 0-24.644 7.492 42.809 42.809 0 0 0-15.505-23.04l7.501-16.427-15.462-7.219-7.492 16.393a44.355 44.355 0 0 0-10.667-1.143l18.166-27.256zm-42.453 82.774a8.45 8.45 0 0 0 .461-5.973 25.243 25.243 0 0 1 1.263-17.92 26.205 26.205 0 0 1 2.679-4.489 40.932 40.932 0 0 0 3.951-4.122c10.726-9.182 26.854-7.927 36.036 2.799a25.544 25.544 0 0 1 3.729 27.452 25.327 25.327 0 0 1-12.902 12.493 8.523 8.523 0 0 0-4.267 4.198l-8.585 18.398-30.933-14.438 8.568-18.398z" fill="#000000" opacity="1" data-original="#000000" class=""></path><path d="m186.832 157.425-17.065 34.13-15.264-7.632 17.065-34.13zM144.164 183.92 128.9 191.55l-17.065-34.13 15.264-7.632zM268.333 436.635l9.472 14.199a65.88 65.88 0 0 0 29.397-54.886v-3.413h-17.067v3.413a48.857 48.857 0 0 1-21.802 40.687z" fill="#000000" opacity="1" data-original="#000000" class=""></path></g></svg>