<svg xmlns="http://www.w3.org/2000/svg" version="1.1" xmlns:xlink="http://www.w3.org/1999/xlink" width="512" height="512" x="0" y="0" viewBox="0 0 64 64" style="enable-background:new 0 0 512 512" xml:space="preserve" class=""><g><path fill="#b18068" d="M61 62H3v-4h58z" opacity="1" data-original="#b18068"></path><path fill="#a46b4f" d="M5 58h56v4H5z" opacity="1" data-original="#a46b4f"></path><path fill="#d8d2d4" d="M61 58H3V18h58z" opacity="1" data-original="#d8d2d4"></path><path fill="#c9c0c3" d="M5 18h56v40H5z" opacity="1" data-original="#c9c0c3"></path><path fill="#c9c0c3" d="M61 18H3v5.639A5.157 5.157 0 0 0 4.875 24a5.556 5.556 0 0 0 3.875-1.664A5.556 5.556 0 0 0 12.625 24a5.56 5.56 0 0 0 3.875-1.664 5.344 5.344 0 0 0 7.75 0 5.344 5.344 0 0 0 7.75 0 5.344 5.344 0 0 0 7.75 0 5.344 5.344 0 0 0 7.75 0 5.344 5.344 0 0 0 7.75 0A5.56 5.56 0 0 0 59.125 24 5.157 5.157 0 0 0 61 23.639z" opacity="1" data-original="#c9c0c3"></path><path fill="#baafb3" d="M61 18H5v6a5.565 5.565 0 0 0 3.75-1.659A5.556 5.556 0 0 0 12.625 24a5.56 5.56 0 0 0 3.875-1.664 5.344 5.344 0 0 0 7.75 0 5.344 5.344 0 0 0 7.75 0 5.344 5.344 0 0 0 7.75 0 5.344 5.344 0 0 0 7.75 0 5.344 5.344 0 0 0 7.75 0A5.56 5.56 0 0 0 59.125 24 5.157 5.157 0 0 0 61 23.639z" opacity="1" data-original="#baafb3"></path><path fill="#fcde91" d="M25 28h32v30H25z" opacity="1" data-original="#fcde91"></path><path fill="#feedb2" d="M28 31h29v27H28z" opacity="1" data-original="#feedb2" class=""></path><path fill="#996047" d="M21 34H7v-6h14z" opacity="1" data-original="#996047"></path><path fill="#a46b4f" d="M21 34H10v-3h11z" opacity="1" data-original="#a46b4f"></path><path fill="#fffad2" d="M3 6h58v6H3z" opacity="1" data-original="#fffad2" class=""></path><path fill="#feedb2" d="M5 8h56v4H5zM7 34h14v28H7z" opacity="1" data-original="#feedb2" class=""></path><path fill="#ff778b" d="M61 12H3a2 2 0 0 0-2 2v5c2.14 4 5.61 4 7.75 0 2.14 4 5.61 4 7.75 0 2.14 4 5.61 4 7.75 0 2.14 4 5.61 4 7.75 0 2.14 4 5.61 4 7.75 0 2.14 4 5.61 4 7.75 0 2.14 4 5.61 4 7.75 0 2.14 4 5.61 4 7.75 0v-5a2 2 0 0 0-2-2z" opacity="1" data-original="#ff778b" class=""></path><path fill="#f04f6b" d="M3 15v6.372c1.939 1.318 4.2.535 5.75-2.372 2.14 4 5.61 4 7.75 0 2.14 4 5.61 4 7.75 0 2.14 4 5.61 4 7.75 0 2.14 4 5.61 4 7.75 0 2.14 4 5.61 4 7.75 0 2.14 4 5.61 4 7.75 0 2.14 4 5.61 4 7.75 0v-5H4a1 1 0 0 0-1 1z" opacity="1" data-original="#f04f6b" class=""></path><path fill="#eef6f6" d="M44 24H20V2h24z" opacity="1" data-original="#eef6f6" class=""></path><path fill="#fafcfc" d="M44 24H23V5h21z" opacity="1" data-original="#fafcfc" class=""></path><path fill="#88747c" d="M40 10v1h-3v9H27v-9h-3v-1a4 4 0 0 1 4-4h8a4 4 0 0 1 4 4z" opacity="1" data-original="#88747c" class=""></path><path fill="#7b636b" d="M40 10a3.961 3.961 0 0 0-.36-1.64A3.961 3.961 0 0 0 38 8h-9a3 3 0 0 0-3 3h3v9h8v-9h3z" opacity="1" data-original="#7b636b" class=""></path><path fill="#7b636b" d="M32 10a2 2 0 0 0 2-2V6h-4v2a2 2 0 0 0 2 2z" opacity="1" data-original="#7b636b" class=""></path><path fill="#6d555c" d="M32 10a2 2 0 0 0 2-2h-4a2 2 0 0 0 2 2z" opacity="1" data-original="#6d555c"></path><path fill="#88747c" d="M44.5 32h4v2l1 4h-6l1-4z" opacity="1" data-original="#88747c" class=""></path><path fill="#7b636b" d="M48.5 33h-2v5h3l-1-4z" opacity="1" data-original="#7b636b" class=""></path><path fill="#88747c" d="M31.5 32h4v2l1 4h-6l1-4z" opacity="1" data-original="#88747c" class=""></path><path fill="#7b636b" d="M33.5 33v5h3l-1-4v-1z" opacity="1" data-original="#7b636b" class=""></path><path fill="#ff778b" d="m40 53 3.5-12-1.2-2.888a3 3 0 0 1 1.945-4.038L44.5 34v.5a2 2 0 0 0 2 2 2 2 0 0 0 2-2V34l.258.074a3 3 0 0 1 1.942 4.038L49.5 41 53 53z" opacity="1" data-original="#ff778b" class=""></path><path fill="#f04f6b" d="M50.7 38.112a3 3 0 0 0-1.945-4.038L48.5 34v.5a2 2 0 0 1-3.864.712 2.985 2.985 0 0 0-.339 2.9L45.5 41 42 53h11l-3.5-12z" opacity="1" data-original="#f04f6b" class=""></path><path fill="#d8d2d4" d="M29.5 48v-7l-.767-3.578A2.83 2.83 0 0 1 31.5 34v.5a2 2 0 0 0 2 2 2 2 0 0 0 2-2V34a2.83 2.83 0 0 1 2.767 3.422L37.5 41v7z" opacity="1" data-original="#d8d2d4"></path><path fill="#c9c0c3" d="M38.267 37.422A2.83 2.83 0 0 0 35.5 34v.5a2 2 0 0 1-3.968.319 2.805 2.805 0 0 0-.8 2.6L31.5 41v7h6v-7z" opacity="1" data-original="#c9c0c3"></path><path d="M36 5h-8a5.006 5.006 0 0 0-5 5v1a1 1 0 0 0 1 1h2v8a1 1 0 0 0 1 1h10a1 1 0 0 0 1-1v-8h2a1 1 0 0 0 1-1v-1a5.006 5.006 0 0 0-5-5zm-5 2h2v1a1 1 0 0 1-2 0zm6 3a1 1 0 0 0-1 1v8h-8v-8a1 1 0 0 0-1-1h-2a3 3 0 0 1 3-3h1v1a3 3 0 0 0 6 0V7h1a3 3 0 0 1 3 3z" fill="#000000" opacity="1" data-original="#000000" class=""></path><path d="M63.882 19.472A1.01 1.01 0 0 0 64 19v-5a3 3 0 0 0-2-2.816V6a1 1 0 0 0-1-1H45V2a1 1 0 0 0-1-1H20a1 1 0 0 0-1 1v3H3a1 1 0 0 0-1 1v5.184A3 3 0 0 0 0 14v5a1.01 1.01 0 0 0 .118.472A8.048 8.048 0 0 0 2 21.869V61H1a1 1 0 0 0 0 2h62a1 1 0 0 0 0-2h-1V21.869a8.048 8.048 0 0 0 1.882-2.397zM45 7h15v4H45zM21 3h22v20H21zM4 7h15v4H4zM2 18.742V14a1 1 0 0 1 1-1h16v7.506a5.645 5.645 0 0 1-1.618-1.978 1.042 1.042 0 0 0-1.764 0C14.778 20.1 13.687 21 12.625 21s-2.153-.9-2.993-2.472a1.042 1.042 0 0 0-1.764 0C7.028 20.1 5.937 21 4.875 21 3.862 21 2.823 20.181 2 18.742zM6 61H4v-2h2zm7 0H8v-5h5zm0-7H8v-5h5zm0-7H8v-5h5zm0-7H8v-5h5zm7 21h-5v-5h5zm0-7h-5v-5h5zm0-7h-5v-5h5zm0-7h-5v-5h5zm0-7H8v-4h12zm40 28H22v-2h38zM44.423 40.616l-1.2-2.888a1.974 1.974 0 0 1 .044-1.637 2 2 0 0 1 .426-.574 2.983 2.983 0 0 0 5.621 0 2.016 2.016 0 0 1 .426.574 1.978 1.978 0 0 1 .044 1.637l-1.2 2.888a1 1 0 0 0-.037.664L51.667 52H41.333l3.127-10.72a1 1 0 0 0-.037-.664zM45.5 34.5V33h2v1.5a1 1 0 0 1-2 0zm2 19.5H53a1 1 0 0 0 .96-1.28l-3.4-11.661 1.066-2.559a4 4 0 0 0-2.126-5.222V32a1 1 0 0 0-1-1h-4a1 1 0 0 0-1 1v1.278a4 4 0 0 0-2.126 5.222l1.068 2.562-3.4 11.661A1 1 0 0 0 40 54h5.5v3h-11v-8h3a1 1 0 0 0 1-1v-6.9l.744-3.473a3.83 3.83 0 0 0-2.744-4.5V32a1 1 0 0 0-1-1h-4a1 1 0 0 0-1 1v1.132a3.83 3.83 0 0 0-2.744 4.5l.744 3.473V48a1 1 0 0 0 1 1h3v8H26V29h30v28h-8.5zM30.478 40.79l-.767-3.578a1.8 1.8 0 0 1 .894-1.968 2.985 2.985 0 0 0 5.79 0 1.8 1.8 0 0 1 .894 1.968l-.767 3.578a1.062 1.062 0 0 0-.022.21v6h-6v-6a1.062 1.062 0 0 0-.022-.21zM32.5 34.5V33h2v1.5a1 1 0 0 1-2 0zM60 57h-2V28a1 1 0 0 0-1-1H25a1 1 0 0 0-1 1v29h-2V28a1 1 0 0 0-1-1H7a1 1 0 0 0-1 1v29H4V22.893a4.075 4.075 0 0 0 .875.107 4.955 4.955 0 0 0 3.875-2.161A4.953 4.953 0 0 0 12.625 23a4.961 4.961 0 0 0 3.875-2.164 5.685 5.685 0 0 0 2.5 1.907V24a1 1 0 0 0 1 1h24a1 1 0 0 0 1-1v-1.257a5.685 5.685 0 0 0 2.5-1.907 4.556 4.556 0 0 0 7.753 0A4.956 4.956 0 0 0 59.125 23a4.075 4.075 0 0 0 .875-.107zm-.875-36c-1.062 0-2.153-.9-2.993-2.472a1.042 1.042 0 0 0-1.764 0C53.528 20.1 52.437 21 51.375 21s-2.153-.9-2.993-2.472a1 1 0 0 0-1.764 0A5.645 5.645 0 0 1 45 20.506V13h16a1 1 0 0 1 1 1v4.742C61.177 20.181 60.138 21 59.125 21z" fill="#000000" opacity="1" data-original="#000000" class=""></path></g></svg>