<svg xmlns="http://www.w3.org/2000/svg" version="1.1" xmlns:xlink="http://www.w3.org/1999/xlink" width="512" height="512" x="0" y="0" viewBox="0 0 512 512" style="enable-background:new 0 0 512 512" xml:space="preserve" class=""><g><path fill="#d8ecfe" d="m404.813 133.505-4.671 64.558-13.454 186.261-6.137 84.819c-1.442 19.938-17.398 35.358-36.595 35.358H168.045c-19.197 0-35.154-15.419-36.595-35.358l-6.137-84.819-13.454-186.261-4.671-64.558z" opacity="1" data-original="#d8ecfe"></path><path fill="#b3dafe" d="m404.81 133.51-4.67 64.55-13.45 186.26-6.14 84.82c-1.44 19.94-17.4 35.36-36.59 35.36h-25c19.2 0 35.15-15.42 36.59-35.36l6.14-84.82 13.46-186.26 4.67-64.55z" opacity="1" data-original="#b3dafe"></path><path fill="#b57f5f" d="M429.809 133.505H82.191V85.012c0-7.002 5.676-12.678 12.678-12.678H417.13c7.002 0 12.678 5.676 12.678 12.678v48.493z" opacity="1" data-original="#b57f5f"></path><path fill="#9f6e50" d="M429.81 85.01v48.5h-25v-48.5c0-7-5.67-12.68-12.68-12.68h25c7 0 12.68 5.68 12.68 12.68z" opacity="1" data-original="#9f6e50"></path><path fill="#b57f5f" d="M411.037 72.333H100.963L125.041 7.5l268.296 17.174z" opacity="1" data-original="#b57f5f"></path><path fill="#9f6e50" d="M411.04 72.33h-24L368.76 23.1l24.58 1.57z" opacity="1" data-original="#9f6e50"></path><path fill="#e2a975" d="m410.666 198.063-13.089 186.261H114.423l-13.089-186.261z" opacity="1" data-original="#e2a975"></path><path fill="#b57f5f" d="m410.67 198.06-13.09 186.26h-25l13.09-186.26zM256 341.408c-21.55 0-39.02-17.47-39.02-39.02v-22.39c0-21.55 17.47-39.02 39.02-39.02 21.55 0 39.02 17.47 39.02 39.02v22.39c0 21.55-17.47 39.02-39.02 39.02z" opacity="1" data-original="#b57f5f"></path><path fill="#9f6e50" d="M295.02 280v22.39c0 21.55-17.47 39.02-39.02 39.02-4.37 0-8.57-.72-12.5-2.04 15.42-5.21 26.52-19.8 26.52-36.98V280c0-10.78-4.37-20.53-11.43-27.59a39.09 39.09 0 0 0-15.09-9.39c3.93-1.32 8.13-2.04 12.5-2.04 10.78 0 20.53 4.37 27.59 11.43s11.43 16.81 11.43 27.59z" opacity="1" data-original="#9f6e50"></path><path d="M417.13 64.833h-.878l-15.884-42.771a7.502 7.502 0 0 0-6.552-4.874L191.746 4.254c-4.125-.256-7.699 2.872-7.964 7.006s2.872 7.699 7.006 7.964l197.213 12.624 12.25 32.985H111.749l18.38-49.493 25.61 1.64a7.5 7.5 0 1 0 .958-14.97L125.52.015a7.496 7.496 0 0 0-7.51 4.874L95.748 64.833h-.878c-11.126 0-20.178 9.052-20.178 20.178v48.494a7.5 7.5 0 0 0 7.5 7.5h18.019l3.586 49.558c-4.857-.408-10.361 2.086-9.943 8.026l13.089 186.261a7.5 7.5 0 0 0 7.481 6.974h264.202l-5.555 76.777C371.919 484.526 359.13 497 343.956 497H168.044c-15.174 0-27.963-12.474-29.115-28.399l-3.505-48.448a7.5 7.5 0 0 0-14.96 1.082l3.505 48.448C125.685 493.412 145.045 512 168.044 512h175.911c23 0 42.36-18.588 44.076-42.316l5.634-77.86c4.842.723 10.991-1.241 11.393-6.974l7.931-112.858a7.5 7.5 0 0 0-14.963-1.051l-7.441 105.884h-269.17L109.38 205.564h293.241l-2.039 29.018a7.5 7.5 0 0 0 6.956 8.007 7.495 7.495 0 0 0 8.007-6.956l2.603-37.043c.418-5.94-5.086-8.434-9.943-8.026l3.586-49.558h18.019a7.5 7.5 0 0 0 7.5-7.5V85.012c-.001-11.127-9.053-20.179-20.18-20.179zm-23.965 125.73h-274.33l-3.586-49.558H396.75zm29.144-64.558H89.691V85.012a5.184 5.184 0 0 1 5.178-5.178H417.13a5.184 5.184 0 0 1 5.178 5.178v40.993z" fill="#000000" opacity="1" data-original="#000000"></path><path d="m256.064 233.48-.064-.002c-25.651 0-46.52 20.869-46.52 46.52v22.39c0 25.648 20.863 46.515 46.51 46.52h.01c25.651 0 46.52-20.869 46.52-46.52v-22.39c0-25.597-20.781-46.427-46.358-46.515-.033-.001-.065-.003-.098-.003zm-31.584 68.908v-22.39c0-12.208 6.982-22.81 17.158-28.043-4.084 12.311-4.266 28.553 8.594 44.031 13.149 15.826 6.005 31.416 2.07 37.698-15.644-1.838-27.822-15.167-27.822-31.296zm63.04-22.39v22.39c0 12.209-6.982 22.81-17.158 28.043 4.084-12.311 4.266-28.553-8.594-44.031-13.139-15.815-6.016-31.393-2.066-37.697 15.641 1.839 27.818 15.168 27.818 31.295z" fill="#000000" opacity="1" data-original="#000000"></path></g></svg>