<svg xmlns="http://www.w3.org/2000/svg" version="1.1" xmlns:xlink="http://www.w3.org/1999/xlink" width="512" height="512" x="0" y="0" viewBox="0 0 512 512" style="enable-background:new 0 0 512 512" xml:space="preserve" class=""><g><path fill="#a79ba7" fill-rule="evenodd" d="M166.872 382.104h138.299v81.848H166.872z" clip-rule="evenodd" opacity="1" data-original="#a79ba7"></path><path fill="#837683" fill-rule="evenodd" d="M293.243 382.104h11.927v81.848h-11.927z" clip-rule="evenodd" opacity="1" data-original="#837683"></path><path fill="#eceff1" fill-rule="evenodd" d="M91.114 496.001h289.814a4.592 4.592 0 0 0 4.584-4.583v-18.467c0-12.678-12.982-23.05-28.849-23.05H115.379c-15.867 0-28.848 10.372-28.848 23.05v18.467a4.592 4.592 0 0 0 4.583 4.583z" clip-rule="evenodd" opacity="1" data-original="#eceff1"></path><path fill="#d1d1d6" fill-rule="evenodd" d="M91.114 496.001h289.814a4.592 4.592 0 0 0 4.584-4.583v-18.467c0-7.534-4.585-14.254-11.636-18.467 1.585 2.848 2.468 5.995 2.468 9.299v18.467a4.593 4.593 0 0 1-4.584 4.584H86.531v4.584a4.592 4.592 0 0 0 4.583 4.583z" clip-rule="evenodd" opacity="1" data-original="#d1d1d6"></path><path fill="#eceff1" fill-rule="evenodd" d="M49.828 95.771h372.386c18.606 0 33.829 15.223 33.829 33.829v232.726c0 18.606-15.223 33.829-33.829 33.829H49.828C31.223 396.155 16 380.932 16 362.326V129.6c0-18.606 15.222-33.829 33.828-33.829z" clip-rule="evenodd" opacity="1" data-original="#eceff1"></path><path fill="#d1d1d6" fill-rule="evenodd" d="M441.084 101.562c9.008 6.094 14.959 16.405 14.959 28.038v232.726c0 18.606-15.223 33.829-33.829 33.829H49.828c-11.633 0-21.944-5.951-28.038-14.959a33.578 33.578 0 0 0 18.87 5.791h372.386c18.605 0 33.829-15.223 33.829-33.829V120.432a33.58 33.58 0 0 0-5.791-18.87z" clip-rule="evenodd" opacity="1" data-original="#d1d1d6"></path><path fill="#d8ecfe" fill-rule="evenodd" d="M48.98 124.06h374.083a4.706 4.706 0 0 1 4.692 4.692v210.419H44.288v-210.42a4.705 4.705 0 0 1 4.692-4.691z" clip-rule="evenodd" opacity="1" data-original="#d8ecfe"></path><path fill="#c4e2ff" fill-rule="evenodd" d="M408.603 124.06h14.459a4.706 4.706 0 0 1 4.692 4.692v210.42h-19.151z" clip-rule="evenodd" opacity="1" data-original="#c4e2ff"></path><path fill="#ffe177" fill-rule="evenodd" d="M254.193 31.951a82.157 82.157 0 0 1 24.056 9.973l15.632-6.942 18.423 18.423-6.94 15.627a82.17 82.17 0 0 1 9.975 24.062l15.948 6.139v26.054l-15.952 6.14a82.157 82.157 0 0 1-9.973 24.056l6.942 15.632-18.423 18.423-15.627-6.94a82.14 82.14 0 0 1-24.062 9.974l-6.139 15.948h-26.054l-6.14-15.952a82.169 82.169 0 0 1-24.056-9.973l-15.631 6.942-18.423-18.423 6.94-15.627a82.168 82.168 0 0 1-9.974-24.062l-15.948-6.138V99.232l15.951-6.14a82.17 82.17 0 0 1 9.973-24.058l-6.941-15.63 18.423-18.424 15.632 6.943a82.157 82.157 0 0 1 24.056-9.973l6.14-15.952h26.054z" clip-rule="evenodd" opacity="1" data-original="#ffe177"></path><path fill="#ffd064" fill-rule="evenodd" d="m288.631 37.312 5.249-2.331 18.424 18.423-6.94 15.627a82.17 82.17 0 0 1 9.975 24.062l15.948 6.139v26.054l-15.952 6.14a82.157 82.157 0 0 1-9.973 24.056l6.942 15.631-18.423 18.424-5.249-2.331 16.092-16.092-6.942-15.631a82.185 82.185 0 0 0 9.973-24.056l15.952-6.14V99.231l-15.948-6.139a82.195 82.195 0 0 0-9.974-24.062l6.94-15.627zm-114.791 0 2.331-2.332 15.632 6.943a82.42 82.42 0 0 0-3.274 1.913zm80.353-5.361a82.157 82.157 0 0 1 24.056 9.973l-4.307 1.913c-7.439-4.58-18.83-9.863-27.329-11.886l-6.14-15.952h7.58zm-62.39 150.643-15.631 6.942-2.331-2.331 14.689-6.524a83.103 83.103 0 0 0 3.273 1.913zm86.451.002a82.156 82.156 0 0 1-24.062 9.974l-6.139 15.948h-7.58l6.138-15.948c8.501-2.023 19.895-7.305 27.335-11.887z" clip-rule="evenodd" opacity="1" data-original="#ffd064"></path><circle cx="235.026" cy="112.258" r="51.615" fill="#eceff1" fill-rule="evenodd" clip-rule="evenodd" transform="rotate(-10.89 235.185 112.282)" opacity="1" data-original="#eceff1"></circle><path fill="#d1d1d6" fill-rule="evenodd" d="M235.026 60.644c1.175 0 2.34.043 3.496.12-26.875 1.798-48.119 24.164-48.119 51.494s21.244 49.696 48.119 51.494c-1.155.077-2.32.12-3.496.12-28.505 0-51.615-23.109-51.615-51.615 0-28.504 23.11-51.613 51.615-51.613z" clip-rule="evenodd" opacity="1" data-original="#d1d1d6"></path><path fill="#9facba" fill-rule="evenodd" d="M168.612 278.014c-5.448 13.486-18.268 22.958-33.215 22.958-12.151 0-22.896-6.26-29.418-15.847-.642-.944-.705-2.084-.171-3.093s1.513-1.599 2.654-1.599h31.005l9.391-16.915-9.391-16.915h-31.005c-1.142 0-2.12-.59-2.654-1.599s-.471-2.149.172-3.093c6.522-9.587 17.266-15.846 29.417-15.847 14.947 0 27.767 9.471 33.215 22.958H301.44c5.448-13.487 18.268-22.958 33.215-22.957 12.152-.001 22.896 6.26 29.418 15.847.642.944.705 2.085.171 3.094s-1.513 1.598-2.654 1.598h-31.005l-9.39 16.916 9.391 16.915h31.005c1.142 0 2.12.589 2.654 1.598s.471 2.15-.171 3.094c-6.521 9.588-17.266 15.847-29.418 15.847-14.947 0-27.767-9.471-33.215-22.957H168.612z" clip-rule="evenodd" opacity="1" data-original="#9facba"></path><path fill="#8d9ca8" fill-rule="evenodd" d="M168.612 278.014c-5.448 13.486-18.268 22.958-33.215 22.958a35 35 0 0 1-5.003-.359c12.764-1.843 23.388-10.642 28.218-22.598h10zm-38.218-51.593a35 35 0 0 1 5.003-.359c14.947 0 27.767 9.471 33.215 22.958h-10c-4.83-11.956-15.454-20.755-28.218-22.599zm199.265.001a34.916 34.916 0 0 1 4.997-.359c12.152-.001 22.896 6.26 29.418 15.847.642.944.705 2.085.171 3.094s-1.513 1.598-2.654 1.598h-9.992a2.939 2.939 0 0 0 2.646-1.598 2.938 2.938 0 0 0-.171-3.094c-5.612-8.248-14.347-14.033-24.415-15.488zm.926 20.179h-10l-9.39 16.916 9.391 16.915h10l-9.391-16.915zm21.005 33.831h10c1.142 0 2.12.589 2.654 1.598s.471 2.15-.171 3.094c-6.521 9.588-17.266 15.847-29.418 15.847-1.695 0-3.363-.123-4.996-.359 10.068-1.456 18.804-7.24 24.414-15.488a2.938 2.938 0 0 0 .171-3.094 2.94 2.94 0 0 0-2.654-1.598z" clip-rule="evenodd" opacity="1" data-original="#8d9ca8"></path><path fill="#ffe177" fill-rule="evenodd" d="M383.457 252.44c4.036-6.99 11.278-11.171 19.349-11.171s15.313 4.181 19.349 11.171l69.514 120.402c4.036 6.99 4.036 15.353 0 22.342-4.036 6.99-11.277 11.171-19.349 11.171H333.292c-8.072 0-15.313-4.181-19.349-11.171s-4.036-15.352 0-22.342z" clip-rule="evenodd" opacity="1" data-original="#ffe177"></path><path fill="#fe646f" fill-rule="evenodd" d="M402.806 371.444c-5.88 0-10.646 4.766-10.646 10.646s4.767 10.646 10.646 10.646c5.88 0 10.646-4.766 10.646-10.646s-4.767-10.646-10.646-10.646zm0-19.005a8.311 8.311 0 0 0 8.305-8.01l2.101-58.172c.085-2.34-.698-4.384-2.324-6.069-1.625-1.685-3.64-2.541-5.981-2.541h-4.202c-2.341 0-4.356.856-5.981 2.541s-2.408 3.73-2.324 6.069l2.101 58.172a8.312 8.312 0 0 0 8.305 8.01z" clip-rule="evenodd" opacity="1" data-original="#fe646f"></path><path fill="#ffd064" fill-rule="evenodd" d="M398.315 241.712a22.823 22.823 0 0 1 4.491-.443c8.071 0 15.313 4.181 19.349 11.171l69.514 120.402c4.036 6.991 4.036 15.353 0 22.342-4.036 6.99-11.277 11.171-19.349 11.171h-8.981c8.071 0 15.313-4.181 19.349-11.171s4.036-15.352 0-22.342L413.173 252.44c-3.269-5.663-8.643-9.482-14.858-10.728z" clip-rule="evenodd" opacity="1" data-original="#ffd064"></path><path fill="#242222" fill-rule="evenodd" d="M400.051 379.227c-.988 0-1.788-.81-1.788-1.798 0-.993.8-1.788 1.788-1.788.993 0 1.803.795 1.803 1.788a1.806 1.806 0 0 1-1.803 1.798zm0-19.587c-9.808 0-17.789 7.982-17.789 17.79 0 9.822 7.982 17.799 17.789 17.799 9.812 0 17.799-7.977 17.799-17.799 0-9.808-7.987-17.79-17.799-17.79zm1.572-70.301-1.572 43.358-1.558-43.358zm-1.572 68.809a15.59 15.59 0 0 0 15.639-15.079l1.934-53.519c.16-4.353-1.36-8.302-4.372-11.431-3.021-3.13-6.918-4.781-11.271-4.781h-3.859c-4.349 0-8.25 1.652-11.257 4.781-3.021 3.13-4.532 7.078-4.382 11.431l1.93 53.519a15.597 15.597 0 0 0 15.638 15.079zm85.074 31.659c3.812-6.636 3.812-14.566 0-21.206l-63.962-110.779c-3.84-6.64-10.702-10.603-18.373-10.603-7.657 0-14.528 3.963-18.359 10.603L320.474 368.6c-3.84 6.641-3.84 14.57 0 21.206 3.826 6.64 10.697 10.603 18.359 10.603h127.938c7.624.001 14.495-3.962 18.354-10.602zM174.859 441.9v-37.739h122.3V441.9zm202.645 31.046v15.055H94.524v-15.055c0-8.156 9.539-15.046 20.849-15.046H356.65c11.3.001 20.854 6.89 20.854 15.046zM23.993 362.327V129.601c0-14.241 11.577-25.833 25.818-25.833h80.942v12.292H48.964c-6.993 0-12.693 5.699-12.693 12.688v210.419c0 4.419 3.591 8.001 8 8.001H314.36l-7.747 13.431c-4.941 8.561-6.24 18.349-3.911 27.56H49.811c-14.241.001-25.818-11.591-25.818-25.832zm133.59-261.768-10.829 4.17v15.069l10.82 4.16a7.992 7.992 0 0 1 4.908 5.61 74.104 74.104 0 0 0 9.008 21.719 8.005 8.005 0 0 1 .504 7.44l-4.711 10.613L177.932 180l10.608-4.72a8.015 8.015 0 0 1 7.44.499 74.22 74.22 0 0 0 21.719 9.012 7.997 7.997 0 0 1 5.614 4.899l4.17 10.829h15.06l4.17-10.82a8.017 8.017 0 0 1 5.61-4.909 74.211 74.211 0 0 0 21.719-9.003 7.984 7.984 0 0 1 7.45-.499L292.091 180l10.66-10.659-4.706-10.613a7.988 7.988 0 0 1 .485-7.44 74.005 74.005 0 0 0 9.012-21.705 8.002 8.002 0 0 1 4.908-5.624l10.824-4.17v-15.06l-10.824-4.17a8.022 8.022 0 0 1-4.908-5.61 74.215 74.215 0 0 0-8.998-21.719 7.954 7.954 0 0 1-.499-7.441l4.706-10.608-10.66-10.664-10.608 4.72a8.004 8.004 0 0 1-7.44-.499 73.702 73.702 0 0 0-21.71-8.998 8.015 8.015 0 0 1-5.619-4.913l-4.17-10.829h-15.06l-4.17 10.829a8.026 8.026 0 0 1-5.614 4.913 73.798 73.798 0 0 0-21.719 8.998 8.003 8.003 0 0 1-7.44.499l-10.608-4.72-10.65 10.664 4.711 10.608c1.068 2.41.88 5.2-.504 7.441a74.205 74.205 0 0 0-9.008 21.719 7.973 7.973 0 0 1-4.899 5.61zm216.847 143.77c6.989-8.297 17.192-13.112 28.359-13.112 6.062 0 11.822 1.421 16.952 4.033V132.062h-84.25a7.177 7.177 0 0 1-1.351.687l-12.128 4.668a89.952 89.952 0 0 1-7.69 18.561l5.28 11.888a8.007 8.007 0 0 1-1.652 8.904l-18.43 18.42a7.982 7.982 0 0 1-8.899 1.656l-11.893-5.28a89.668 89.668 0 0 1-18.557 7.69l-4.668 12.132a7.997 7.997 0 0 1-7.464 5.13h-26.058a8.004 8.004 0 0 1-7.459-5.13l-4.669-12.132a89.74 89.74 0 0 1-18.552-7.69l-11.902 5.28a8 8 0 0 1-8.899-1.656l-18.42-18.42a8.017 8.017 0 0 1-1.661-8.904l5.28-11.888a90.251 90.251 0 0 1-7.69-18.561l-12.128-4.668a7.493 7.493 0 0 1-1.351-.687H52.272v199.105h271.331l12.857-22.256c-.607.019-1.21.056-1.817.056-16.001 0-30.501-8.848-38.261-22.947H173.64c-7.756 14.1-22.246 22.947-38.257 22.947-16.73 0-31.8-9.587-39.33-25.028a8.044 8.044 0 0 1 .409-7.751 7.998 7.998 0 0 1 6.777-3.76h31.503l4.946-8.909-4.946-8.923H103.24a8.002 8.002 0 0 1-6.777-3.756 8.022 8.022 0 0 1-.409-7.742c7.53-15.441 22.599-25.042 39.33-25.042 16.011 0 30.501 8.862 38.257 22.962h122.742c7.76-14.1 22.251-22.962 38.261-22.962 16.726 0 31.8 9.601 39.33 25.042.188.403.339.812.456 1.231zm-16.919 28.101H335.28l-4.947-8.909 4.947-8.923h31.503c.358 0 .72-.019 1.068-.066zm-9.93 17.219a26.894 26.894 0 0 1-12.937 3.322c-11.262 0-21.39-7.045-25.799-17.954a7.984 7.984 0 0 0-7.412-4.998H168.6a7.986 7.986 0 0 0-7.417 4.998c-4.41 10.909-14.533 17.954-25.799 17.954-5.421 0-10.579-1.623-14.97-4.541h19.042a8.006 8.006 0 0 0 6.998-4.109l9.389-16.923a7.989 7.989 0 0 0 0-7.761l-9.389-16.919a8.004 8.004 0 0 0-6.998-4.118h-19.042c4.391-2.913 9.549-4.541 14.97-4.541 11.267 0 21.39 7.05 25.799 17.959a8 8 0 0 0 7.417 4.998h132.833a7.997 7.997 0 0 0 7.412-4.998c4.41-10.909 14.538-17.959 25.799-17.959 5.417 0 10.58 1.629 14.966 4.541h-19.037a7.981 7.981 0 0 0-6.989 4.118l-9.394 16.919a7.937 7.937 0 0 0 0 7.761l9.394 16.923a7.978 7.978 0 0 0 6.989 4.109h17.71zM448.04 129.601v142.758l-12.297-21.281V128.749c0-6.989-5.699-12.688-12.693-12.688h-83.78v-12.292h82.933c14.236 0 25.837 11.591 25.837 25.832zM498.961 360.6l-34.92-60.522V129.601c0-23.061-18.778-41.829-41.838-41.829h-98.43l-1.76-.673a89.975 89.975 0 0 0-7.69-18.561l5.28-11.888a7.998 7.998 0 0 0-1.652-8.899l-18.43-18.42a7.999 7.999 0 0 0-8.899-1.661l-11.893 5.28a89.942 89.942 0 0 0-18.557-7.69l-4.668-12.133a8.006 8.006 0 0 0-7.464-5.125h-26.058a8 8 0 0 0-7.459 5.125l-4.669 12.133a90.296 90.296 0 0 0-18.561 7.69L179.4 27.67a8 8 0 0 0-8.899 1.661l-18.42 18.42a8.008 8.008 0 0 0-1.661 8.899l5.28 11.888a90.753 90.753 0 0 0-7.69 18.561l-1.76.673H49.811c-23.06 0-41.82 18.768-41.82 41.829v232.726c0 23.06 18.759 41.833 41.82 41.833h109.052v37.74h-43.49c-20.321 0-36.85 13.93-36.85 31.047v23.056a7.996 7.996 0 0 0 8.001 7.996h298.98c4.41 0 8.001-3.577 8.001-7.996v-23.056c0-17.117-16.533-31.047-36.854-31.047h-43.49v-35.739c6.791 6.528 15.85 10.25 25.672 10.25h127.938c13.413 0 25.461-6.951 32.19-18.603 6.73-11.649 6.73-25.56 0-37.208zM235.014 69.639c-23.503 0-42.624 19.121-42.624 42.619s19.121 42.619 42.624 42.619c23.498 0 42.619-19.121 42.619-42.619s-19.121-42.619-42.619-42.619zm0 101.24c32.317 0 58.616-26.298 58.616-58.62 0-32.317-26.298-58.62-58.616-58.62-32.322 0-58.62 26.303-58.62 58.62-.001 32.322 26.298 58.62 58.62 58.62z" clip-rule="evenodd" opacity="1" data-original="#242222"></path></g></svg>