<svg xmlns="http://www.w3.org/2000/svg" version="1.1" xmlns:xlink="http://www.w3.org/1999/xlink" width="512" height="512" x="0" y="0" viewBox="0 0 64 64" style="enable-background:new 0 0 512 512" xml:space="preserve" class=""><g><circle cx="32" cy="35" r="2" fill="#64ddf3" opacity="1" data-original="#64ddf3"></circle><circle cx="47" cy="26" r="2" fill="#64ddf3" opacity="1" data-original="#64ddf3"></circle><circle cx="17" cy="15" r="4" fill="#ffd56c" opacity="1" data-original="#ffd56c"></circle><path fill="#f42b4a" d="M52 59c1.1 0 2 .9 2 2 0 .55-.22 1.05-.59 1.41-.36.37-.86.59-1.41.59H12c-1.1 0-2-.9-2-2 0-.55.22-1.05.59-1.41.36-.37.86-.59 1.41-.59h38z" opacity="1" data-original="#f42b4a"></path><path fill="#cc0033" d="M54 61c0 .55-.22 1.05-.59 1.41-.36.37-.86.59-1.41.59H12c-1.1 0-2-.9-2-2z" opacity="1" data-original="#cc0033"></path><path fill="#ffd56c" d="M50 55v4H14v-4c0-.67.04-1.34.11-1.99C15.1 44.01 22.73 37 32 37c9.94 0 18 8.06 18 18z" opacity="1" data-original="#ffd56c"></path><path fill="#ffe6a7" d="M34.44 37.17c-.05.91-.23 1.82-.54 2.7-2.14 6.02-9.82 8.97-18.19 7.48C18.58 41.24 24.79 37 32 37c.83 0 1.64.06 2.44.17z" opacity="1" data-original="#ffe6a7"></path><path fill="#64ddf3" d="m14 53 .11.01c-.07.65-.11 1.32-.11 1.99v4h-2c-.55 0-1.05.22-1.41.59-.37.36-.59.86-.59 1.41 0 1.1.9 2 2 2H2c-.55 0-1-.45-1-1v-8h5c1.1 0 2-.9 2-2v-6c0-1.1-.9-2-2-2H1v-2.5c0-1.56.32-3.1.93-4.53L2 37s2.5-.5 8-6l.3-.02c.33 1.46.92 2.85 1.76 4.11 1.26 1.9 1.94 4.13 1.94 6.41z" opacity="1" data-original="#64ddf3"></path><path fill="#3bb0ee" d="M14.11 53.01c-.07.65-.11 1.32-.11 1.99v4h-2c-.55 0-1.05.22-1.41.59-.37.36-.59.86-.59 1.41V43.215a9.39 9.39 0 0 0-.99-4.196 2.257 2.257 0 0 1 1.01-3.029 2.257 2.257 0 0 1 3.09 1.136c.46 1.092.89 2.483.89 3.874v12z" opacity="1" data-original="#3bb0ee"></path><path fill="#fcfcfc" d="M63 63H53c1.38 0 2.63-.56 3.54-1.46.9-.91 1.46-2.16 1.46-3.54 0 2.76 2.24 5 5 5z" opacity="1" data-original="#fcfcfc"></path><path fill="#f42b4a" d="M62.36 39.97 63 47c0 2.76-2.24 5-5 5-1.38 0-2.63-.56-3.54-1.46-.9-.91-1.46-2.16-1.46-3.54l.64-7.03.36.03h8z" opacity="1" data-original="#f42b4a"></path><path fill="#fcfcfc" d="m62 36 .36 3.97L62 40h-8l-.36-.03L54 36h4z" opacity="1" data-original="#fcfcfc"></path><path fill="#cc0033" d="M63 47c0 2.76-2.24 5-5 5-1.38 0-2.63-.56-3.54-1.46a5.03 5.03 0 0 1-1.25-2.11c.56.37 1.16.57 1.79.57 2.76 0 5-3.81 5-8.5 0-.17 0-.34-.02-.5H62l.36-.03z" opacity="1" data-original="#cc0033"></path><path fill="#d4d4d4" d="M62.36 39.97 62 40h-2.02c-.04-1.46-.31-2.83-.74-4H62z" opacity="1" data-original="#d4d4d4"></path><path fill="#f42b4a" d="M54.38 13.58s3.91-.35 3.55 2.84c-.43 3.9-7.45 1.07-7.45 1.07s-2.83-7.02 1.06-7.46c3.2-.35 2.84 3.55 2.84 3.55z" opacity="1" data-original="#f42b4a"></path><path fill="#f2a24c" d="M50 55v4H14v-4a18.662 18.662 0 0 1 .3-3.29c1.56.99 3.3 1.84 5.18 2.51 9.88 3.52 19.92.67 22.42-6.35.94-2.65.68-5.51-.55-8.24C46.54 42.78 50 48.49 50 55z" opacity="1" data-original="#f2a24c"></path><path fill="#f42b4a" d="M40.96 3c4.88 6.1-9 12-9 12s-13.88-5.9-9-12c4-5 9 1 9 1s5-6 9-1z" opacity="1" data-original="#f42b4a"></path><path fill="#cc0033" d="M31.96 15s-9-3.83-9.95-8.51a8.425 8.425 0 0 0 6.16 4.4c.43.08.88.11 1.33.11A8.5 8.5 0 0 0 38 2.59V2.5c0-.49-.04-.98-.12-1.45 1.03.14 2.08.71 3.08 1.95 4.88 6.1-9 12-9 12z" opacity="1" data-original="#cc0033"></path><path fill="#ffd56c" d="M11 21v4H4v-4h6zM10.3 30.98 10 31c-5.5 5.5-8 6-8 6l-.07-.03c.28-.65.61-1.28 1.01-1.88C4.28 33.08 5 30.71 5 28.29V25h5v3.29c0 .91.1 1.81.3 2.69z" opacity="1" data-original="#ffd56c"></path><path fill="#f2a24c" d="M8 21h3v4H8zM10.3 30.98 10 31c-5.5 5.5-8 6-8 6l-.07-.03c.28-.65.61-1.28 1.01-1.88 1.02-1.54 1.69-3.28 1.94-5.1A3.242 3.242 0 0 0 8 26.75V25h2v3.29c0 .91.1 1.81.3 2.69z" opacity="1" data-original="#f2a24c"></path><path fill="#f42b4a" d="M5 17h5v4H5z" opacity="1" data-original="#f42b4a"></path><path fill="#cc0033" d="M8 17h2v4H8z" opacity="1" data-original="#cc0033"></path><path fill="#fcfcfc" d="M8 46v6c0 1.1-.9 2-2 2H1V44h5c1.1 0 2 .9 2 2z" opacity="1" data-original="#fcfcfc"></path><g fill="#f88092"><circle cx="57.75" cy="42.583" r=".583" fill="#f88092" opacity="1" data-original="#f88092"></circle><circle cx="57.75" cy="46.667" r=".583" fill="#f88092" opacity="1" data-original="#f88092"></circle><circle cx="59.5" cy="44.917" r=".583" fill="#f88092" opacity="1" data-original="#f88092"></circle><circle cx="56.292" cy="44.625" r=".292" fill="#f88092" opacity="1" data-original="#f88092"></circle><circle cx="59.792" cy="42.292" r=".292" fill="#f88092" opacity="1" data-original="#f88092"></circle><circle cx="56.875" cy="48.708" r=".292" fill="#f88092" opacity="1" data-original="#f88092"></circle><circle cx="60.375" cy="48.125" r=".292" fill="#f88092" opacity="1" data-original="#f88092"></circle></g><g fill="#fcfcfc"><path d="M5.405 38.407c-.431-.394-1.096-.427-1.523 0l-.317.317c-.398.398-.43 1.13 0 1.523.431.394 1.096.427 1.523 0l.317-.317c.399-.399.43-1.131 0-1.523zM3.057 41.009c-.327-.327-.835.18-.508.508.327.326.835-.181.508-.508zM23.405 44.407c-.431-.394-1.096-.427-1.523 0l-.317.317c-.398.398-.43 1.13 0 1.523.431.394 1.096.427 1.523 0l.317-.317c.399-.399.43-1.131 0-1.523zM21.057 47.009c-.327-.327-.835.18-.508.508.327.326.835-.181.508-.508zM27.405 3.407c-.431-.394-1.096-.427-1.523 0l-.317.317c-.398.398-.43 1.13 0 1.523.431.394 1.096.427 1.523 0l.317-.317c.399-.399.43-1.131 0-1.523zM25.057 6.009c-.327-.327-.835.18-.508.508.327.326.835-.181.508-.508z" fill="#fcfcfc" opacity="1" data-original="#fcfcfc"></path></g><g fill="#333"><path d="M63 62c-2.206 0-4-1.794-4-4v-5.083c2.834-.479 5-2.958 4.996-6.007l-1-11A1 1 0 0 0 62 35h-8a1 1 0 0 0-.996.91L52 47a6.01 6.01 0 0 0 5 5.917V58c0 1.493-.832 2.782-2.047 3.469.024-.154.047-.308.047-.469 0-1.654-1.346-3-3-3h-1v-3c0-9.546-7.083-17.447-16.265-18.78.167-.374.265-.785.265-1.22a1 1 0 1 0-2 0 1.001 1.001 0 0 1-2 0c0-.551.448-1 1-1a1 1 0 1 0 0-2c-1.654 0-3 1.346-3 3 0 .498.134.961.349 1.375a.982.982 0 0 0-.343.846c.061.548.553.941 1.104.884A16.94 16.94 0 0 1 32 38c9.374 0 17 7.626 17 17v3H15v-3c0-7.532 5.049-14.25 12.277-16.335a1.001 1.001 0 0 0-.554-1.922C18.643 39.074 13 46.582 13 55v3h-1c-1.654 0-3 1.346-3 3 0 .352.072.686.184 1H2v-7h4c1.654 0 3-1.346 3-3v-6c0-1.654-1.346-3-3-3H2v-1.502c0-1.261.227-2.496.658-3.66.93-.346 3.223-1.494 7.087-5.191.366 1.05.857 2.058 1.483 2.997A10.522 10.522 0 0 1 13 41.498V45a1 1 0 1 0 2 0v-3.502c0-2.487-.729-4.895-2.108-6.963A11.227 11.227 0 0 1 11 28.287V26a1 1 0 0 0 1-1v-4a1 1 0 0 0-1-1v-3a1 1 0 0 0-1-1H5a1 1 0 0 0-1 1v3a1 1 0 0 0-1 1v4a1 1 0 0 0 1 1v2.287a11.23 11.23 0 0 1-1.892 6.249A12.506 12.506 0 0 0 0 41.498V62c0 .204.04.398.097.583A.99.99 0 0 0 0 63a1 1 0 0 0 1 1h62a1 1 0 1 0 0-2zM6 45c.552 0 1 .449 1 1v6c0 .551-.448 1-1 1H2v-8zM4.436 34.519A13.206 13.206 0 0 0 6 28.287V26h1a1 1 0 1 0 0-2H5v-2h5v2a1 1 0 0 0-1 1v3.287c0 .716.062 1.424.175 2.122-1.995 1.983-3.565 3.273-4.739 4.11zM6 18h3v2H6zm44 44H12a1.001 1.001 0 0 1 0-2h40a1.001 1.001 0 0 1 0 2zm11.087-25 .183 2h-6.538l.182-2zm-7.091 10.09L54.55 41h6.903L62 47c0 2.206-1.794 4-4 4s-4-1.794-4.004-3.91zM57.469 62c.192-.215.37-.445.531-.687.161.242.339.471.531.687zM31.568 15.92a.989.989 0 0 0 .784 0c.376-.16 9.229-3.976 10.492-8.988.404-1.604.033-3.137-1.103-4.557C40.499.822 39.03.027 37.375.01h-.051c-2.3 0-4.313 1.557-5.364 2.549C30.909 1.567 28.896.01 26.596.01h-.051c-1.655.017-3.124.812-4.366 2.365-1.136 1.42-1.507 2.953-1.103 4.557 1.264 5.013 10.116 8.828 10.492 8.988zM23.741 3.625c.858-1.074 1.78-1.602 2.818-1.614h.037c2.36 0 4.574 2.605 4.596 2.631.381.452 1.155.452 1.534 0 .022-.026 2.236-2.631 4.597-2.631h.037c1.038.012 1.96.54 2.818 1.614.735.918.973 1.839.727 2.818-.803 3.188-6.397 6.31-8.945 7.465-2.548-1.153-8.139-4.271-8.944-7.464-.247-.979-.01-1.901.725-2.819zM50.104 18.415c.356.144 2.721 1.063 4.918 1.063.888 0 1.749-.15 2.438-.562.842-.503 1.349-1.327 1.466-2.382.158-1.43-.375-2.308-.851-2.793-.782-.798-1.891-1.062-2.71-1.141-.078-.819-.343-1.928-1.141-2.71-.484-.476-1.37-1.01-2.792-.85-1.056.117-1.88.624-2.383 1.466-1.431 2.396.299 6.854.5 7.355.102.253.303.452.555.554zm.664-6.883c.12-.202.33-.442.886-.504.786-.085 1.073.195 1.169.288.563.548.596 1.789.563 2.177a1.003 1.003 0 0 0 1.087 1.087c.313-.03 1.608-.017 2.175.562.093.095.378.385.29 1.172-.062.555-.301.764-.503.885-1.073.644-3.586.089-5.181-.485-.514-1.445-1.148-4.075-.486-5.182zM47 29c1.654 0 3-1.346 3-3a1 1 0 1 0-2 0 1.001 1.001 0 0 1-2 0c0-.551.448-1 1-1a1 1 0 1 0 0-2c-1.654 0-3 1.346-3 3s1.346 3 3 3z" fill="#333333" opacity="1" data-original="#333333"></path><path d="M44.867 53.143a1 1 0 0 0 1.981-.285 14.927 14.927 0 0 0-1.296-4.287 1 1 0 0 0-1.807.86c.56 1.174.938 2.423 1.122 3.712zM32 40a1 1 0 1 0 0 2c3.841 0 7.468 1.692 9.95 4.644a1 1 0 0 0 1.532-1.288A14.98 14.98 0 0 0 32 40zM13 16h.75c1.24 0 2.25 1.009 2.25 2.25V19a1 1 0 1 0 2 0v-.75c0-1.241 1.01-2.25 2.25-2.25H21a1 1 0 1 0 0-2h-.75A2.253 2.253 0 0 1 18 11.75V11a1 1 0 1 0-2 0v.75c0 1.241-1.01 2.25-2.25 2.25H13a1 1 0 1 0 0 2zm4-1.544c.165.198.346.379.544.544a4.236 4.236 0 0 0-.544.544 4.236 4.236 0 0 0-.544-.544c.198-.165.379-.346.544-.544zM26 26v4a1 1 0 1 0 2 0v-4a1 1 0 1 0-2 0zM30 21a1 1 0 0 0-1 1c0 6.234 2.059 8.473 2.293 8.707.193.193.445.29.697.29.251 0 .503-.095.698-.284a1.007 1.007 0 0 0 .03-1.408C32.702 29.287 31 27.4 31 22a1 1 0 0 0-1-1zM38.65 16.241a1 1 0 0 0-1.409.108c-6.419 7.489-2.117 14.139-2.073 14.206a.993.993 0 0 0 .83.444 1.002 1.002 0 0 0 .837-1.549c-.146-.222-3.48-5.493 1.924-11.798a1 1 0 0 0-.109-1.411z" fill="#333333" opacity="1" data-original="#333333"></path></g></g></svg>