<svg
  xmlns="http://www.w3.org/2000/svg"
  version="1.1"
  xmlns:xlink="http://www.w3.org/1999/xlink"
  width="512"
  height="512"
  x="0"
  y="0"
  viewBox="0 0 128 128"
  style="enable-background: new 0 0 512 512"
  xml:space="preserve"
  class=""
>
  <g>
    <path
      fill="#51528c"
      d="M94.11 111.66a10.975 10.975 0 0 1-5.92 3.08l-13.34 2.33-2.13.37-2.71.47c-.03 0-.06.01-.09.01l-39.85 6.94c-5.99 1.04-11.69-2.97-12.73-8.96L3.14 34.27l-.03-.14c-1.04-5.98 2.97-11.68 8.96-12.72L70.19 11.3c5.99-1.05 11.68 2.96 12.73 8.95l4.03 23.17 2.73 15.69.02.15 1.36 7.81 1.21 6.94.35 2.03 4.52 25.98c.64 3.65-.6 7.19-3.03 9.64z"
      opacity="1"
      data-original="#51528c"
      class=""
    ></path>
    <path
      fill="#303256"
      d="m89.7 59.26-7.02 3.31-2.98 1.41-3.09 3.94c-.2.25-.49.38-.79.38-.22 0-.43-.07-.62-.21-.43-.35-.51-.97-.16-1.41l3.08-3.93 2.25-10.95 6.58-8.38 2.73 15.69zM94.11 111.66a10.975 10.975 0 0 1-5.92 3.08l-13.34 2.33A24.908 24.908 0 0 1 69 101c0-13.35 10.45-24.25 23.62-24.96l4.52 25.98c.64 3.65-.6 7.19-3.03 9.64z"
      opacity="1"
      data-original="#303256"
      class=""
    ></path>
    <path
      fill="#eceafd"
      d="M89.24 105.97a4.995 4.995 0 0 1-3.23 2.05l-15.08 2.62-2.46.43-38.62 6.72c-.29.05-.58.07-.87.07-1.02 0-2.01-.31-2.86-.91a4.957 4.957 0 0 1-2.05-3.23l-13.89-79.8c-.23-1.32.07-2.64.84-3.74a4.995 4.995 0 0 1 3.23-2.05l56.16-9.77c1.31-.22 2.64.07 3.73.84s1.82 1.92 2.05 3.23l4.94 28.4.32 1.82v.01l1.69 9.69 2.18 12.52.44 2.53 4.32 24.83c.23 1.32-.07 2.65-.84 3.74z"
      opacity="1"
      data-original="#eceafd"
    ></path>
    <g fill="#c3c0fd">
      <path
        d="m81.45 52.65-1.04-.81-.04-.04.76-.97z"
        fill="#c3c0fd"
        opacity="1"
        data-original="#c3c0fd"
        class=""
      ></path>
      <path
        d="m83.14 62.35-.46.22-2.98 1.41-3.09 3.94c-.2.25-.49.38-.79.38-.22 0-.43-.07-.62-.21-.43-.35-.51-.97-.16-1.41l3.08-3.93 2.25-10.95.04.04 1.04.81v.01zM89.24 105.97a4.995 4.995 0 0 1-3.23 2.05l-15.08 2.62A24.942 24.942 0 0 1 69 101c0-10.92 7-20.2 16.76-23.6l4.32 24.83c.23 1.32-.07 2.65-.84 3.74z"
        fill="#c3c0fd"
        opacity="1"
        data-original="#c3c0fd"
        class=""
      ></path>
    </g>
    <path
      fill="#fab342"
      d="m59.78 27.32-2.88.5-31.6 5.5c-1.09.19-2.12-.54-2.31-1.63L21.1 20.85c-.37-2.17 1.08-4.25 3.26-4.62l30.54-5.32a4.002 4.002 0 0 1 4.63 3.26L61.41 25c.19 1.09-.54 2.13-1.63 2.32z"
      opacity="1"
      data-original="#fab342"
      class=""
    ></path>
    <path
      fill="#fbc96e"
      d="m47.48 12.23-16.75 2.92-.26-1.48c-.52-3.01.6-5.92 2.72-7.8a8.45 8.45 0 0 1 4.2-2.03c.49-.09.99-.13 1.47-.13 4.05 0 7.64 2.91 8.36 7.04z"
      opacity="1"
      data-original="#fbc96e"
      class=""
    ></path>
    <path
      fill="#ef9a1d"
      d="m56.9 27.82-31.6 5.5c-1.09.19-2.12-.54-2.31-1.63L21.1 20.85c-.37-2.17 1.08-4.25 3.26-4.62 0 0 9.04 15.85 32.54 11.59zM47.48 12.23l-16.75 2.92-.26-1.48c-.52-3.01.6-5.92 2.72-7.8h.01s.41 8.83 14.28 6.36z"
      opacity="1"
      data-original="#ef9a1d"
    ></path>
    <ellipse
      cx="52.992"
      cy="16.581"
      fill="#fbc96e"
      rx="4.021"
      ry="2"
      transform="rotate(-8.1 52.828 16.602)"
      opacity="1"
      data-original="#fbc96e"
      class=""
    ></ellipse>
    <circle
      cx="45.049"
      cy="17.701"
      r="2"
      fill="#fbc96e"
      opacity="1"
      data-original="#fbc96e"
      class=""
    ></circle>
    <path
      fill="#51528c"
      d="M77.99 83.83c.09.54-.28 1.06-.82 1.16l-2.76.48-41.86 7.24c-.06.01-.11.01-.17.01-.48 0-.9-.34-.98-.83a.99.99 0 0 1 .81-1.15l44.41-7.69.21-.04c.55-.09 1.06.28 1.16.82z"
      opacity="1"
      data-original="#51528c"
      class=""
    ></path>
    <path
      fill="#303256"
      d="M77.99 83.83c.09.54-.28 1.06-.82 1.16l-2.76.48c.68-.86 1.42-1.67 2.21-2.42l.21-.04c.55-.09 1.06.28 1.16.82z"
      opacity="1"
      data-original="#303256"
      class=""
    ></path>
    <path
      fill="#51528c"
      d="M30.38 82.724a1 1 0 0 1-.166-1.986l45.619-7.724a1 1 0 0 1 .334 1.972L30.548 82.71a1.068 1.068 0 0 1-.168.014zM34.999 102.95a1 1 0 0 1-.171-1.986l21.55-3.75a1 1 0 0 1 .344 1.971l-21.55 3.75c-.059.01-.116.015-.173.015z"
      opacity="1"
      data-original="#51528c"
      class=""
    ></path>
    <path
      fill="#95c2ac"
      d="M65.149 51.299a16.899 16.899 0 0 1-3.357 12.985c-2.57 3.341-6.362 5.718-10.849 6.411s-8.819-.429-12.277-2.839a16.898 16.898 0 0 1-7.118-11.367c-1.433-9.28 4.926-17.962 14.206-19.396 9.279-1.434 17.962 4.926 19.395 14.206z"
      opacity="1"
      data-original="#95c2ac"
    ></path>
    <circle
      cx="48.043"
      cy="51.917"
      r="7"
      fill="#33907c"
      opacity="1"
      data-original="#33907c"
    ></circle>
    <path
      fill="#33907c"
      d="M61.792 64.283c-2.57 3.341-6.362 5.718-10.849 6.411s-8.819-.429-12.277-2.839c1.424-4.601 5.366-8.236 10.446-9.02 5.079-.785 9.933 1.491 12.68 5.448z"
      opacity="1"
      data-original="#33907c"
    ></path>
    <circle
      cx="98"
      cy="98"
      r="25"
      fill="#f66aa3"
      opacity="1"
      data-original="#f66aa3"
    ></circle>
    <path
      fill="#f04084"
      d="M102 119c-13.807 0-25-11.193-25-25a24.887 24.887 0 0 1 5.44-15.56C76.69 83.02 73 90.077 73 98c0 13.807 11.193 25 25 25 7.923 0 14.98-3.69 19.56-9.44A24.887 24.887 0 0 1 102 119z"
      opacity="1"
      data-original="#f04084"
    ></path>
    <path
      fill="#eceafd"
      d="M111 93h-8v-8a1 1 0 0 0-1-1h-8a1 1 0 0 0-1 1v8h-8a1 1 0 0 0-1 1v8a1 1 0 0 0 1 1h8v8a1 1 0 0 0 1 1h8a1 1 0 0 0 1-1v-8h8a1 1 0 0 0 1-1v-8a1 1 0 0 0-1-1z"
      opacity="1"
      data-original="#eceafd"
    ></path>
    <path
      fill="#5a7aed"
      d="m87.805 57.208-9.438-7.411 29.646-37.751a2 2 0 0 1 2.808-.338l6.292 4.941a2 2 0 0 1 .338 2.808z"
      opacity="1"
      data-original="#5a7aed"
    ></path>
    <path
      fill="#3762db"
      d="M95.1 47.92c13.43-18.53 9.82-31.94 9.82-31.94l9.44 7.41z"
      opacity="1"
      data-original="#3762db"
    ></path>
    <path
      fill="#51528c"
      d="m117.112 16.649-6.292-4.941 2.47-3.146a4 4 0 1 1 6.291 4.941z"
      opacity="1"
      data-original="#51528c"
      class=""
    ></path>
    <path
      fill="#3762db"
      d="m87.8 57.21-7.12 3.36-2.98 1.41-1.58-1.23 2.25-10.95.04.04z"
      opacity="1"
      data-original="#3762db"
    ></path>
    <path
      fill="#eceafd"
      d="m102.63 38.33-7.57 9.64-.01.01-3.54 4.51-9.44-7.41 11.12-14.16 8.15 6.4z"
      opacity="1"
      data-original="#eceafd"
    ></path>
    <path
      fill="#c3c0fd"
      d="m102.63 38.33-7.57 9.64c2.75-3.79 4.79-7.36 6.28-10.65z"
      opacity="1"
      data-original="#c3c0fd"
      class=""
    ></path>
    <path
      fill="#303256"
      d="M98 72c-1.703 0-3.367.17-4.98.484l-2.892-16.619 2.162-2.752.007-.006 11.116-14.156 11.737-14.943a3.97 3.97 0 0 1 1.5 2.668 3.97 3.97 0 0 1-.825 2.948l-9.508 12.107a7.725 7.725 0 0 0-1.267 7.191 1.001 1.001 0 0 0 1.901-.623 5.73 5.73 0 0 1 .938-5.333l9.508-12.107a5.957 5.957 0 0 0 1.239-4.422 5.96 5.96 0 0 0-2.251-4.001l1.851-2.357.002-.002a3 3 0 0 0 .163-3.45l1.967-2.505a4.968 4.968 0 0 0 1.032-3.685 4.965 4.965 0 0 0-1.877-3.335 4.965 4.965 0 0 0-3.685-1.032 4.968 4.968 0 0 0-3.335 1.876l-1.97 2.508c-1.172-.391-2.511-.043-3.312.98l-2.464 3.139-.003.003-.002.004-12.34 15.716c-.003.004-.008.005-.011.009L86.9 37.312l-3-17.237c-.55-3.158-2.296-5.913-4.917-7.757s-5.8-2.557-8.963-2.008l-10.27 1.787a4.978 4.978 0 0 0-5.022-2.171l-6.234 1.085-.086-.492a9.436 9.436 0 0 0-3.894-6.141 9.44 9.44 0 0 0-7.095-1.59 9.439 9.439 0 0 0-6.141 3.893 9.435 9.435 0 0 0-1.59 7.095l.086.492-5.588.972a5.003 5.003 0 0 0-3.995 3.74l-8.3 1.444C5.373 21.558.993 27.784 2.126 34.303l14.229 81.771c1.015 5.826 6.095 9.944 11.816 9.944.68 0 1.37-.058 2.063-.179l45.144-7.855a1 1 0 0 0-.344-1.971l-45.144 7.855c-5.43.946-10.62-2.705-11.565-8.137L4.1 33.961c-.945-5.432 2.705-10.621 8.138-11.566l7.881-1.371 2.229 12.807a1.001 1.001 0 0 0 1.157.814l38.422-6.686a1 1 0 0 0 .813-1.157l-2.228-12.807 9.852-1.714a9.933 9.933 0 0 1 7.468 1.673 9.934 9.934 0 0 1 4.098 6.464l3.308 19.01-3.952 5.032c-.005.006-.006.014-.01.02l-3.692 4.702a.997.997 0 0 0-.193.417l-2.25 10.95a.999.999 0 0 0 .364.988l-2.469 3.144a.998.998 0 1 0 1.572 1.235l2.474-3.151.004.003a1.002 1.002 0 0 0 1.041.115l10.1-4.77c.09-.043.157-.117.23-.184l2.613 15.015C80.088 75.987 72 86.063 72 98c0 14.336 11.663 26 26 26s26-11.664 26-26-11.663-26-26-26zM31.746 13.925l-.085-.492a7.45 7.45 0 0 1 1.255-5.602 7.443 7.443 0 0 1 4.849-3.073 7.45 7.45 0 0 1 5.601 1.255 7.448 7.448 0 0 1 3.073 4.848l.086.493-3.559.619zm-7.6 18.578-2.058-11.822a3.004 3.004 0 0 1 2.442-3.47l20.824-3.624 2.498-.435 7.22-1.256a2.982 2.982 0 0 1 2.24.502 2.978 2.978 0 0 1 1.229 1.939l2.058 11.822zM79.774 49.63l2.47-3.146 7.861 6.172-2.471 3.146zM93.36 32.327l7.862 6.175-9.882 12.581-7.861-6.172zm12.351-15.731 7.865 6.176-11.119 14.156-7.863-6.175zm8.366-7.417a2.979 2.979 0 0 1 2.001-1.125c.802-.096 1.582.125 2.212.619s1.029 1.206 1.125 2.001a2.981 2.981 0 0 1-.618 2.211l-1.854 2.359-4.719-3.706zm-5.28 3.487a1.004 1.004 0 0 1 1.406-.169l6.291 4.941c.434.338.509.968.169 1.405l-1.851 2.357-7.866-6.177zM77.829 60.813l-.604-.47 1.799-8.759 6.891 5.411zM98 122c-13.233 0-24-10.767-24-24s10.767-24 24-24 24 10.767 24 24-10.767 24-24 24z"
      opacity="1"
      data-original="#303256"
      class=""
    ></path>
  </g>
</svg>
