<svg xmlns="http://www.w3.org/2000/svg" version="1.1" xmlns:xlink="http://www.w3.org/1999/xlink" width="512" height="512" x="0" y="0" viewBox="0 0 64 64" style="enable-background:new 0 0 512 512" xml:space="preserve"><g><path fill="#eceff0" d="M12 40h41v-6H12a3 3 0 0 0-3 3 3 3 0 0 0 3 3z" opacity="1" data-original="#eceff0"></path><path fill="#dedfdf" d="M10.412 48a5.5 5.5 0 0 0-5.5 5.411 5.5 5.5 0 0 0 5.5 5.589S61 58.987 61 58.972V48.028C61 48.012 10.412 48 10.412 48z" opacity="1" data-original="#dedfdf"></path><path fill="#db3a3a" d="M4.823 53.5a5.5 5.5 0 0 1 5.5-5.5H61a2 2 0 0 0 2-2 2 2 0 0 0-2-2H10.5A9.5 9.5 0 0 0 1 53.5a9.5 9.5 0 0 0 9.5 9.5H61a2 2 0 0 0 2-2 2 2 0 0 0-2-2H10.323a5.5 5.5 0 0 1-5.5-5.5z" opacity="1" data-original="#db3a3a"></path><path fill="#5783e4" d="M12 40h41a2 2 0 0 1 2 2 2 2 0 0 1-2 2H12.024a7 7 0 0 1-7-7 7 7 0 0 1 7-7H53a2 2 0 0 1 2 2 2 2 0 0 1-2 2H12a3 3 0 0 0-3 3 3 3 0 0 0 3 3z" opacity="1" data-original="#5783e4"></path><path fill="#414141" d="M17 30s3.75 5 15 5 15-5 15-5V16H17z" opacity="1" data-original="#414141"></path><path fill="#5a5a5a" d="M32 2 7 12l25 10 25-10z" opacity="1" data-original="#5a5a5a"></path><path fill="#ffdc32" d="M50 36h6l-2-12h-2z" opacity="1" data-original="#ffdc32"></path><circle cx="53" cy="24" r="2.5" fill="#facd1e" opacity="1" data-original="#facd1e"></circle><path d="M62 58.184v-9.368A2.993 2.993 0 0 0 61 43h-5.184A2.963 2.963 0 0 0 56 42a2.995 2.995 0 0 0-2-2.816V37h3.18l-1.748-10.492A3.478 3.478 0 0 0 54 20.663v-4.352l-2.604-.992L59.692 12 32 .923 4.308 12 16 16.677V29h-4a7.991 7.991 0 0 0-4.661 14.488A10.5 10.5 0 0 0 10.5 64H61a2.993 2.993 0 0 0 1-5.816zM60 51H42v2h18v5H10.323a4.5 4.5 0 0 1 0-9H60zm-8-12H12a2 2 0 0 1 0-4h11.976A30.115 30.115 0 0 0 32 36a30.115 30.115 0 0 0 8.024-1h9.129l-.334 2H52zm-4.551-8h2.371l-.333 2H44.86a12.148 12.148 0 0 0 2.588-2zm7.37 4h-3.638l1.259-7.557a2.8 2.8 0 0 0 1.12 0zM54.5 24a1.5 1.5 0 1 1-1.5-1.5 1.502 1.502 0 0 1 1.5 1.5zM52 17.69v2.974a3.478 3.478 0 0 0-1.432 5.845L50.153 29H48V16.677l.655-.262zM32 3.077 54.308 12l-5.67 2.268-16.282-6.203-.712 1.87 14.253 5.43L32 20.923 9.692 12zm0 20 14-5.6v12.144C45.104 30.55 41.155 34 32 34c-9.165 0-13.112-3.458-14-4.378V17.477zM6 37a6.007 6.007 0 0 1 6-6h4.551a12.148 12.148 0 0 0 2.588 2H12a4 4 0 0 0 0 8h41a1 1 0 0 1 0 2H12a6.007 6.007 0 0 1-6-6zm55 25H10.5a8.5 8.5 0 0 1 0-17H61a1 1 0 0 1 0 2H10.323a6.5 6.5 0 0 0 0 13H61a1 1 0 0 1 0 2z" fill="#000000" opacity="1" data-original="#000000"></path><path d="M10 54h28v2H10z" fill="#000000" opacity="1" data-original="#000000"></path></g></svg>