<svg xmlns="http://www.w3.org/2000/svg" version="1.1" xmlns:xlink="http://www.w3.org/1999/xlink" width="512" height="512" x="0" y="0" viewBox="0 0 512.748 512.748" style="enable-background:new 0 0 512 512" xml:space="preserve" class=""><g><path fill="#97da7b" d="m220.016 71.303-29.168 13.313a86.406 86.406 0 0 0-4.997 2.49V63.919a60.054 60.054 0 0 1 11.287-35.046l6.93-9.643c3.787-5.269-1.864-12.145-7.767-9.451l-20.443 9.33a60.055 60.055 0 0 0-35.119 54.633 60.056 60.056 0 0 0-35.119-54.633l-20.442-9.33c-5.903-2.694-11.554 4.182-7.767 9.451l6.93 9.643a60.05 60.05 0 0 1 11.286 35.046v23.187a85.768 85.768 0 0 0-4.997-2.49L61.462 71.303c-8.423-3.844-16.485 5.966-11.083 13.485l9.888 13.759a85.69 85.69 0 0 1 16.104 50.005v14.016h128.735v-14.016a85.69 85.69 0 0 1 16.104-50.005l9.888-13.759c5.404-7.519-2.659-17.33-11.082-13.485z" opacity="1" data-original="#97da7b"></path><path fill="#80d261" d="m90.628 84.614-29.17-13.31c-4.61-2.11-9.1-.12-11.34 3.34l21.85 9.97c13.45 5.43 22.03 3.01 23.66 2.49-1.63-.88-3.3-1.71-5-2.49zm14.99-65.5-20.44-9.33c-4.1-1.87-8.07.87-8.85 4.48l10.63 4.85c21.39 9.76 53.78 38.51 53.78 54.63 0-23.52-13.72-44.87-35.12-54.63zm90.68-9.33-9.81 4.48c.35 1.59.07 3.36-1.09 4.97l-6.93 9.64c-.07.1-.14.2-.22.31-10.87 15.33-9.95 36.12 1.84 50.76l5.76 7.16v-23.18c0-12.58 3.95-24.84 11.29-35.05l6.93-9.64c3.79-5.27-1.86-12.15-7.77-9.45zm23.72 61.52-7.32 3.34c1.87 2.86 2.18 6.74-.27 10.14l-9.88 13.76a85.7 85.7 0 0 0-16.11 50.01v14.01h18.67v-14.01a85.69 85.69 0 0 1 16.1-50.01l9.89-13.76c5.4-7.51-2.66-17.33-11.08-13.48z" opacity="1" data-original="#80d261"></path><path fill="#ffd15b" d="M140.455 446.021c-51.431 0-97.361-32.193-114.906-80.539l-.85-2.343a235.923 235.923 0 0 1 0-160.966l.85-2.343c17.545-48.346 63.475-80.539 114.906-80.539h1.164c51.14 0 96.875 31.835 114.633 79.793a235.92 235.92 0 0 1 1.028 161.013l-1.66 4.664c-17.335 48.72-63.452 81.26-115.165 81.26z" opacity="1" data-original="#ffd15b"></path><path fill="#ffc344" d="M270.928 281.004c0 26.75-4.55 53.5-13.65 79.09l-1.66 4.67c-17.33 48.72-63.45 81.26-115.16 81.26-5.02 0-9.99-.31-14.88-.91 45.5-5.58 84.6-36.37 100.24-80.35l1.66-4.67a235.81 235.81 0 0 0 13.65-79.1c0-27.75-4.89-55.49-14.67-81.91-16.08-43.43-55.1-73.63-100.3-78.95 4.71-.56 9.48-.84 14.3-.84h1.16c51.14 0 96.88 31.83 114.63 79.79a235.742 235.742 0 0 1 14.68 81.92z" opacity="1" data-original="#ffc344"></path><path fill="#97da7b" d="M434.761 72.451c93.982 93.982 93.983 246.37 0 340.352s-246.37 93.982-340.352 0l27.664-27.664L281.748 249.2l125.338-149.074z" opacity="1" data-original="#97da7b"></path><path fill="#80d261" d="M434.758 412.804c-50.66 50.66-118.3 74.01-184.6 70.06 56.69-3.39 112.41-26.75 155.72-70.06 89.12-89.12 93.73-230.76 13.84-325.31l15.04-15.04c93.99 93.98 93.99 246.37 0 340.35z" opacity="1" data-original="#80d261"></path><path fill="#ee6161" d="M407.097 100.115c78.709 78.709 78.709 206.316 0 285.024s-206.315 78.709-285.024 0l142.512-142.512z" opacity="1" data-original="#ee6161"></path><circle cx="246.665" cy="411.552" r="92.021" fill="#ffd15b" opacity="1" data-original="#ffd15b"></circle><path fill="#ffc344" d="M338.688 411.554c0 50.82-41.2 92.02-92.02 92.02-4.41 0-8.76-.31-13-.92 44.67-6.31 79.02-44.69 79.02-91.1s-34.35-84.79-79.02-91.1c4.24-.61 8.59-.92 13-.92 50.82 0 92.02 41.2 92.02 92.02z" opacity="1" data-original="#ffc344"></path><path fill="#f79595" d="m116.947 500.607-1.194-.384a32.85 32.85 0 0 0-20.188 0c-36.476 11.722-74.462-12.368-83.823-53.159l-.102-.443a134.597 134.597 0 0 1 0-60.049l.412-1.796c9.242-40.274 46.442-64.368 82.639-53.527l1.528.458a32.77 32.77 0 0 0 18.879 0l2.706-.81c35.74-10.704 72.558 12.652 82.33 52.226l.326 1.322a134.553 134.553 0 0 1 0 64.303c-9.899 40.088-47.495 63.434-83.513 51.859z" opacity="1" data-original="#f79595"></path><path fill="#f47c7c" d="M200.458 448.744c-7.32 29.63-29.76 50.12-55.52 54.11 14.96-12.17 26.28-32.41 31.64-54.11 5.2-21.04 5.2-43.25 0-64.3l-.32-1.32c-6.24-25.28-20.04-45.94-38.51-54.78 28.6 1.13 54.44 22.59 62.39 54.78l.32 1.32c5.2 21.05 5.2 43.26 0 64.3z" opacity="1" data-original="#f47c7c"></path><path d="M512.748 242.627c0-66.288-25.813-128.608-72.684-175.479a7.502 7.502 0 0 0-10.607 0L167.684 328.92c-19.465-10.278-37.254-7.297-57.66-3.724-9.261-33.415-32.482-46.356-33.706-47.015-3.647-1.965-8.195-.599-10.159 3.048s-.6 8.195 3.048 10.159c.217.116 15.958 8.904 24.389 31.793-24.245-6.016-50.08 2.298-67.37 20.014-23.751-86.614 4.809-216.558 115.392-216.404 49.194 0 92.625 32.375 108.846 78.346a7.5 7.5 0 1 0 14.146-4.986c-9.497-26.966-26.814-50.253-50.612-66.266a78.46 78.46 0 0 1 13.303-30.961l9.888-13.759c9.496-13.216-5.177-31.574-20.287-24.686l-23.551 10.75c-.516-20.133 4.601-35.603 16.807-51.622 3.711-5.165 3.492-11.937-.546-16.85-4.038-4.915-10.64-6.439-16.426-3.802-20.973 9.573-41.202 18.072-52.447 39.91-11.16-21.673-31.582-30.387-52.447-39.91C82.507.313 75.904 1.843 71.867 6.756c-4.038 4.914-4.258 11.685-.547 16.851 12.145 16.034 17.37 31.451 16.808 51.622l-23.553-10.75c-14.803-6.755-29.976 11.199-20.286 24.686l9.888 13.759a78.446 78.446 0 0 1 13.385 31.408c-68.751 46.765-76.181 150.846-52.604 223.5-18.891 31.227-19.751 78.473-3.359 110.802a7.501 7.501 0 0 0 13.379-6.783C6.859 426.109 12.281 365.467 49.715 343.68c16.385-9.536 30.748-7.351 48.046-3.89a99.457 99.457 0 0 1 1.041 14.489c0 4.143 3.357 7.5 7.5 7.5s7.5-3.357 7.5-7.5c0-5.088-.309-9.873-.864-14.375 17.673-3.25 32.555-6.449 49.429 3.187 47.472 27.108 47.557 119.345-.173 145.972-13.124 7.321-29.915 9.296-44.148 4.021a40.286 40.286 0 0 0-24.778 0c-15.865 5.101-32.447 2.73-46.686-6.673a7.5 7.5 0 1 0-8.266 12.516c17.847 11.788 39.55 14.864 59.542 8.438a25.326 25.326 0 0 1 15.598 0c18.538 6.277 38.947 4.338 56.046-5.202 5.858-3.268 11.243-7.347 16.05-12.088a99.266 99.266 0 0 0 61.112 21c25.209 0 48.254-9.426 65.809-24.933 48.443-9.479 92.524-32.967 127.591-68.033 46.871-46.873 72.684-109.192 72.684-175.482zM66.358 94.17 56.47 80.411c-.547-1.725.079-2.487 1.877-2.285 11.218 5.12 22.859 9.745 33.729 15.586a7.499 7.499 0 0 0 11.051-6.606c0-25.734-.7-46.943-17.056-68.675 24.363 11.121 47.167 24.493 47.167 55.311 0 4.143 3.357 7.5 7.5 7.5s7.5-3.357 7.5-7.5c0-30.658 22.807-44.19 47.166-55.31-16.354 21.732-17.054 42.94-17.054 68.674a7.5 7.5 0 0 0 11.053 6.604c10.868-5.845 22.505-10.464 33.725-15.585 1.798-.202 2.424.56 1.878 2.285l-9.886 13.76c-6.855 9.54-11.844 20.35-14.702 31.719-18.142-9.25-38.165-14.098-58.799-14.098-20.97-.168-41.837 4.842-60.47 14.456-2.843-11.501-7.861-22.434-14.791-32.077zM195.17 478.558c24.648-35.704 23.508-96.516-4.261-130.505 15.418-13.592 34.958-21.022 55.756-21.022 46.604 0 84.521 37.916 84.521 84.521 0 46.604-37.916 84.521-84.521 84.521a84.306 84.306 0 0 1-51.495-17.515zm134.355-11.946a99.077 99.077 0 0 0 13.512-30.18c26.007-10.506 49.331-25.956 69.364-45.989 29.294-29.295 49.057-66.163 57.15-106.618a7.5 7.5 0 0 0-5.883-8.826 7.497 7.497 0 0 0-8.826 5.883c-7.511 37.543-25.854 71.761-53.049 98.955-16.387 16.387-35.144 29.464-55.876 39.014 4.137-56.807-42.264-106.82-99.252-106.82-24.304 0-47.16 8.599-65.249 24.372l225.581-225.582c33.896 36.547 52.176 83.83 51.619 133.97a7.5 7.5 0 0 0 7.417 7.583c4.136.04 7.537-3.275 7.583-7.417.6-54.209-19.246-105.309-56.016-144.739l17.078-17.078c40.731 43.37 63.07 99.71 63.07 159.487 0 62.282-24.253 120.835-68.291 164.872-28.069 28.069-62.281 48.246-99.932 59.113z" fill="#000000" opacity="1" data-original="#000000"></path><path d="M359.018 326.454a7.5 7.5 0 0 0-10.607 10.607l11.326 11.326c1.465 1.464 3.385 2.196 5.304 2.196s3.839-.732 5.304-2.196a7.5 7.5 0 0 0 0-10.607zM399.542 289.907l-14.599-6.505a7.5 7.5 0 0 0-9.903 3.798 7.5 7.5 0 0 0 3.798 9.903l14.599 6.505a7.501 7.501 0 0 0 6.105-13.701zM409.138 234.397l-15.876-.796a7.499 7.499 0 0 0-7.866 7.114 7.498 7.498 0 0 0 7.114 7.866l15.876.796a7.499 7.499 0 0 0 7.866-7.114 7.499 7.499 0 0 0-7.114-7.866zM385.197 198.497c.79 0 1.595-.126 2.385-.391l14.983-5.023a7.5 7.5 0 0 0-4.767-14.223l-14.983 5.023a7.5 7.5 0 0 0 2.382 14.614zM140.739 218.411a7.477 7.477 0 0 0 5.303-2.196l16.525-16.524a7.5 7.5 0 0 0-10.605-10.607l-11.223 11.222-11.223-11.222a7.5 7.5 0 0 0-10.606.001 7.498 7.498 0 0 0 .001 10.606l16.525 16.524a7.481 7.481 0 0 0 5.303 2.196zM208.382 218.411a7.477 7.477 0 0 0 5.303-2.196l16.525-16.524a7.498 7.498 0 0 0 .001-10.606 7.5 7.5 0 0 0-10.606-.001l-11.223 11.222-11.223-11.222a7.5 7.5 0 0 0-10.606.001 7.498 7.498 0 0 0 .001 10.606l16.525 16.524a7.481 7.481 0 0 0 5.303 2.196zM117.811 236.446l-11.222 11.223-11.221-11.222a7.5 7.5 0 0 0-10.606-.001 7.498 7.498 0 0 0-.001 10.606l16.524 16.525a7.5 7.5 0 0 0 10.608.001l16.525-16.525a7.5 7.5 0 0 0-10.607-10.607zM168.929 263.578a7.5 7.5 0 0 0 10.608.001l16.525-16.525a7.5 7.5 0 0 0-10.607-10.607l-11.222 11.223-11.221-11.222a7.5 7.5 0 0 0-10.606-.001 7.498 7.498 0 0 0-.001 10.606z" fill="#000000" opacity="1" data-original="#000000"></path><circle cx="263.447" cy="358.791" r="7.5" fill="#000000" opacity="1" data-original="#000000"></circle></g></svg>