<svg xmlns="http://www.w3.org/2000/svg" version="1.1" xmlns:xlink="http://www.w3.org/1999/xlink" width="512" height="512" x="0" y="0" viewBox="0 0 512 512" style="enable-background:new 0 0 512 512" xml:space="preserve" class=""><g><path d="M398.468 99.683v61.745c0 2.283-3.024 3.044-4.136 1.05-9.02-16.18-21.167-26.905-35.42-33.956-7.71-3.814-16.252-5.636-24.854-5.636h-156.07c-9.148 0-18.181 2.146-26.307 6.347-13.647 7.055-25.292 17.599-34.014 33.245-1.112 1.994-4.136 1.233-4.136-1.05V99.683H80.406v113.07c0 16.442 17.23 22.732 31.835 15.193 18.967-9.801 37.457-21.151 54.778-35.683 2.891-2.425 7.308-1.238 8.633 2.295a61.799 61.799 0 0 0 7.112 13.558c8.673 12.485 12.976 27.49 12.976 42.692v55.348h120.522v-55.348c0-15.202 4.303-30.207 12.976-42.692a61.799 61.799 0 0 0 7.112-13.558c1.325-3.533 5.742-4.72 8.633-2.295 17.321 14.532 35.811 25.882 54.778 35.683 14.605 7.539 31.835 1.249 31.835-15.193V99.683h-33.128z" style="" fill="#ffdfcf" data-original="#ffdfcf"></path><path d="M310.475 206.077c-8.083 19.597-12.474 47.156-12.875 100.079h18.661v-55.348c0-15.202 4.303-30.207 12.976-42.692a61.799 61.799 0 0 0 7.112-13.558c1.325-3.533 5.742-4.72 8.633-2.295-7.178-7.946-26.017-6.768-34.507 13.814zM201.525 122.887a48.441 48.441 0 0 0 16.31 31.936l10.611 9.291a30.668 30.668 0 0 0 20.203 7.594h14.701a30.674 30.674 0 0 0 20.203-7.594l10.611-9.291a48.441 48.441 0 0 0 16.31-31.936H201.525zM80.406 132.171a16.273 16.273 0 0 0 8.955 2.678h23.144c.347 0 .686-.031 1.027-.052V99.683H80.406v32.488zM398.468 134.797c.342.021.681.052 1.027.052h23.144c3.308 0 6.381-.99 8.955-2.678V99.683h-33.126v35.114z" style="" fill="#ffcebf" data-original="#ffcebf"></path><path d="M320.514 122.887h-37.852c5.056 8.964 8.104 20.511 8.104 33.119 0 28.51-15.565 51.622-34.766 51.622s-34.766-23.112-34.766-51.622c0-12.607 3.048-24.154 8.104-33.119h-37.852c1.653 25.177 3.319 61.319-7.238 87.463 7.677 12.021 11.491 26.152 11.491 40.458v55.348h120.522v-55.348c0-14.306 3.814-28.436 11.491-40.458-10.557-26.145-8.891-62.287-7.238-87.463z" style="" fill="#fea95c" data-original="#fea95c"></path><path d="M327.752 210.349c-2.409-5.966-4.176-12.455-5.457-19.213-4.58 2.887-8.839 7.713-11.82 14.94-8.083 19.597-12.474 47.156-12.875 100.079h18.661v-55.348c0-14.306 3.813-28.436 11.491-40.458zM290.735 157.826l3.43-3.003a48.441 48.441 0 0 0 16.31-31.936h-27.813c5.056 8.964 8.104 20.511 8.104 33.119 0 .61-.017 1.214-.031 1.82zM217.835 154.823l3.43 3.003c-.014-.605-.031-1.21-.031-1.82 0-12.607 3.048-24.154 8.104-33.119h-27.813a48.443 48.443 0 0 0 16.31 31.936z" style="" fill="#fe7d43" data-original="#fe7d43"></path><path d="M383.139 99.492V88.759c0-7 5.674-12.674 12.674-12.674h30.509c7 0 12.674 5.674 12.674 12.674v10.733c0 9.034-7.323 16.357-16.357 16.357h-23.144c-9.033 0-16.356-7.323-16.356-16.357z" style="" fill="#ffdfcf" data-original="#ffdfcf"></path><path d="M426.322 76.084h-21c7 0 12.674 5.675 12.674 12.674v10.733c0 9.034-7.323 16.357-16.357 16.357h21c9.034 0 16.357-7.323 16.357-16.357V88.759c0-7-5.674-12.675-12.674-12.675z" style="" fill="#ffcebf" data-original="#ffcebf"></path><path d="M128.861 99.492V88.759c0-7-5.674-12.674-12.674-12.674H85.678c-7 0-12.674 5.674-12.674 12.674v10.733c0 9.034 7.323 16.357 16.357 16.357h23.144c9.033 0 16.356-7.323 16.356-16.357z" style="" fill="#ffdfcf" data-original="#ffdfcf"></path><path d="M116.187 76.084h-21c7 0 12.674 5.675 12.674 12.674v10.733c0 9.034-7.323 16.357-16.357 16.357h21c9.034 0 16.357-7.323 16.357-16.357V88.759c0-7-5.674-12.675-12.674-12.675z" style="" fill="#ffcebf" data-original="#ffcebf"></path><path d="M259.975 40.973h-7.951c-23.915 0-43.303 19.387-43.303 43.303v23.471a41.876 41.876 0 0 0 14.291 31.507l9.171 8.03a26.505 26.505 0 0 0 17.462 6.564h12.706a26.51 26.51 0 0 0 17.462-6.564l9.172-8.03a41.878 41.878 0 0 0 14.291-31.507V84.276c.002-23.916-19.385-43.303-43.301-43.303z" style="" fill="#ffdfcf" data-original="#ffdfcf"></path><path d="M259.975 40.973h-7.951c-2.046 0-4.055.152-6.025.427 21.062 2.933 37.278 21.006 37.278 42.876v23.471a41.876 41.876 0 0 1-14.291 31.507l-9.172 8.03c-3.909 3.423-8.721 5.577-13.815 6.285 1.204.167 2.419.279 3.647.279h12.706a26.51 26.51 0 0 0 17.462-6.564l9.172-8.03a41.878 41.878 0 0 0 14.291-31.507V84.276c.001-23.916-19.386-43.303-43.302-43.303z" style="" fill="#ffcebf" data-original="#ffcebf"></path><path d="m345.624 320.113-7.275-64.717-17.98 1.564a39.779 39.779 0 0 0-32.062 21.703 13.788 13.788 0 0 1-12.308 7.575h-39.997a13.785 13.785 0 0 1-12.308-7.575 39.777 39.777 0 0 0-32.062-21.703l-17.98-1.564-7.275 64.717h10.94c11.865 19.865 33.569 33.175 58.389 33.175h40.589c24.82 0 46.525-13.309 58.389-33.175h10.94z" style="" fill="#678d98" data-original="#678d98"></path><path d="m366.796 313.944-5.161-39.81c-1.624-12.528-12.294-21.904-24.927-21.904s-23.303 9.376-24.927 21.904l-5.161 39.81a84.8 84.8 0 0 0 3.648 37.721 84.79 84.79 0 0 1 4.352 26.818v53.362h44.175v-53.362c0-9.115 1.47-18.171 4.352-26.818a84.787 84.787 0 0 0 3.649-37.721z" style="" fill="#ffdfcf" data-original="#ffdfcf"></path><path d="m366.796 313.944-5.161-39.81c-1.624-12.528-12.294-21.904-24.927-21.904-3.736 0-7.291.837-10.5 2.316 7.643 3.522 13.283 10.765 14.427 19.588l5.161 39.81a84.8 84.8 0 0 1-3.648 37.721 84.79 84.79 0 0 0-4.352 26.818v53.362h21v-53.362c0-9.115 1.47-18.171 4.352-26.818a84.8 84.8 0 0 0 3.648-37.721z" style="" fill="#ffcebf" data-original="#ffcebf"></path><path d="M358.796 431.847h-44.175l-6.861 39.059c-1.899 10.808 6.417 20.712 17.391 20.712h38.236c9.752 0 17.657-7.906 17.657-17.657 0-3.189-.864-6.318-2.499-9.056l-19.749-33.058z" style="" fill="#678d98" data-original="#678d98"></path><path d="m378.545 464.904-19.749-33.058h-21l19.749 33.058a17.663 17.663 0 0 1 2.499 9.056c0 9.752-7.906 17.657-17.657 17.657h21c9.752 0 17.657-7.906 17.657-17.657 0-3.189-.864-6.318-2.499-9.056z" style="" fill="#4e737c" data-original="#4e737c"></path><path d="m145.204 313.944 5.161-39.81c1.624-12.528 12.294-21.904 24.927-21.904s23.303 9.376 24.927 21.904l5.161 39.81a84.8 84.8 0 0 1-3.648 37.721 84.794 84.794 0 0 0-4.352 26.818v53.362h-44.175v-53.362c0-9.115-1.47-18.171-4.352-26.818a84.801 84.801 0 0 1-3.649-37.721z" style="" fill="#ffdfcf" data-original="#ffdfcf"></path><path d="m205.38 313.944-5.161-39.81c-1.624-12.528-12.294-21.904-24.927-21.904a25.06 25.06 0 0 0-11 2.534c7.392 3.603 12.808 10.737 13.927 19.37l5.161 39.81a84.8 84.8 0 0 1-3.648 37.721 84.79 84.79 0 0 0-4.352 26.818v53.362h22v-53.362a84.79 84.79 0 0 1 4.352-26.818 84.815 84.815 0 0 0 3.648-37.721z" style="" fill="#ffcebf" data-original="#ffcebf"></path><path d="M153.204 431.846h44.175l6.861 39.059c1.899 10.808-6.417 20.712-17.391 20.712h-38.236c-9.752 0-17.657-7.906-17.657-17.657 0-3.189.864-6.318 2.499-9.056l19.749-33.058z" style="" fill="#678d98" data-original="#678d98"></path><path d="m204.241 470.905-6.861-39.059h-22l6.861 39.059c1.899 10.808-6.417 20.713-17.391 20.713h22c10.973 0 19.289-9.905 17.391-20.713z" style="" fill="#4e737c" data-original="#4e737c"></path><path d="M462.115 30.882v131.725c0 5.799 4.701 10.5 10.5 10.5H494c5.799 0 10.5-4.701 10.5-10.5V30.882c0-5.799-4.701-10.5-10.5-10.5h-21.386c-5.798 0-10.499 4.701-10.499 10.5z" style="" fill="#678d98" data-original="#678d98"></path><path d="M494 20.382h-21c5.799 0 10.5 4.701 10.5 10.5v131.725c0 5.799-4.701 10.5-10.5 10.5h21c5.799 0 10.5-4.701 10.5-10.5V30.882c0-5.799-4.701-10.5-10.5-10.5z" style="" fill="#4e737c" data-original="#4e737c"></path><path d="M7.5 30.882v131.725c0 5.799 4.701 10.5 10.5 10.5h21.386c5.799 0 10.5-4.701 10.5-10.5V30.882c0-5.799-4.701-10.5-10.5-10.5H18c-5.799 0-10.5 4.701-10.5 10.5z" style="" fill="#678d98" data-original="#678d98"></path><path d="M39.386 20.382h-21c5.799 0 10.5 4.701 10.5 10.5v131.725c0 5.799-4.701 10.5-10.5 10.5h21c5.799 0 10.5-4.701 10.5-10.5V30.882c-.001-5.799-4.702-10.5-10.5-10.5z" style="" fill="#4e737c" data-original="#4e737c"></path><path d="M73 96.74H49.89M208.72 96.74h-79.86M383.14 96.74h-79.86M462.11 96.74H439M327.752 210.349c-10.557-26.144-8.891-62.286-7.238-87.463M191.486 122.887c1.653 25.177 3.319 61.319-7.238 87.463M288.9 139.33c1.22 5.23 1.87 10.84 1.87 16.68 0 28.51-15.57 51.62-34.77 51.62s-34.77-23.11-34.77-51.62c0-5.84.65-11.45 1.87-16.68" style="stroke-width:15;stroke-linecap:round;stroke-linejoin:round;stroke-miterlimit:10;" fill="none" stroke="#000000" stroke-width="15" stroke-linecap="round" stroke-linejoin="round" stroke-miterlimit="10" data-original="#000000"></path><path d="M431.59 113.18v99.57c0 16.44-17.23 22.73-31.83 15.2-18.97-9.81-37.46-21.16-54.78-35.69-2.89-2.42-7.31-1.24-8.63 2.3a61.902 61.902 0 0 1-7.11 13.56c-8.68 12.48-12.98 27.49-12.98 42.69v6.73M80.41 113.18v99.57c0 16.44 17.23 22.73 31.83 15.2 18.97-9.81 37.46-21.16 54.78-35.69 2.89-2.42 7.31-1.24 8.63 2.3 1.81 4.83 4.21 9.38 7.11 13.56 8.68 12.48 12.98 27.49 12.98 42.69v6.73" style="stroke-width:15;stroke-linecap:round;stroke-linejoin:round;stroke-miterlimit:10;" fill="none" stroke="#000000" stroke-width="15" stroke-linecap="round" stroke-linejoin="round" stroke-miterlimit="10" data-original="#000000"></path><path d="M113.53 115.82v45.61c0 2.28 3.03 3.04 4.14 1.05 8.72-15.65 20.37-26.19 34.01-33.25 8.13-4.2 17.16-6.34 26.31-6.34h33.57M398.47 115.82v45.61c0 2.28-3.03 3.04-4.14 1.05-9.02-16.18-21.16-26.91-35.42-33.96-7.71-3.81-16.25-5.63-24.85-5.63h-33.62" style="stroke-width:15;stroke-linecap:round;stroke-linejoin:round;stroke-miterlimit:10;" fill="none" stroke="#000000" stroke-width="15" stroke-linecap="round" stroke-linejoin="round" stroke-miterlimit="10" data-original="#000000"></path><path d="M383.139 99.492V88.759c0-7 5.674-12.674 12.674-12.674h30.509c7 0 12.674 5.674 12.674 12.674v10.733c0 9.034-7.323 16.357-16.357 16.357h-23.144c-9.033 0-16.356-7.323-16.356-16.357zM128.861 99.492V88.759c0-7-5.674-12.674-12.674-12.674H85.678c-7 0-12.674 5.674-12.674 12.674v10.733c0 9.034 7.323 16.357 16.357 16.357h23.144c9.033 0 16.356-7.323 16.356-16.357zM259.975 40.973h-7.951c-23.915 0-43.303 19.387-43.303 43.303v23.471a41.876 41.876 0 0 0 14.291 31.507l9.171 8.03a26.505 26.505 0 0 0 17.462 6.564h12.706a26.51 26.51 0 0 0 17.462-6.564c3.882-4.544 23.463-14.824 23.463-39.537V84.276c.002-23.916-19.385-43.303-43.301-43.303zM322.28 256.79l-1.91.17c-1.39.12-2.759.315-4.11.58-12.001 2.354-22.38 10.07-27.95 21.12a13.796 13.796 0 0 1-12.31 7.58h-40c-5.2 0-9.96-2.93-12.31-7.58-5.57-11.05-15.949-18.766-27.95-21.12a38.563 38.563 0 0 0-4.11-.58l-1.91-.17M203.6 345.23c9.56 5.14 20.49 8.06 32.11 8.06h40.58c11.62 0 22.55-2.92 32.11-8.06" style="stroke-width:15;stroke-linecap:round;stroke-linejoin:round;stroke-miterlimit:10;" fill="none" stroke="#000000" stroke-width="15" stroke-linecap="round" stroke-linejoin="round" stroke-miterlimit="10" data-original="#000000"></path><path d="M358.796 380.341v-1.857c0-9.115 1.47-18.171 4.352-26.818a84.802 84.802 0 0 0 3.648-37.721l-5.161-39.81c-1.624-12.528-12.294-21.904-24.927-21.904s-23.303 9.376-24.927 21.904l-5.161 39.81a84.8 84.8 0 0 0 3.648 37.721 84.79 84.79 0 0 1 4.352 26.818v53.362h44.175v-16.505M314.621 431.847l-6.861 39.059c-1.899 10.808 6.417 20.712 17.391 20.712h38.236c9.752 0 17.657-7.906 17.657-17.657 0-3.189-.864-6.318-2.499-9.056l-19.749-33.058M145.204 313.944l5.161-39.81c1.624-12.528 12.294-21.904 24.927-21.904s23.303 9.376 24.927 21.904l5.161 39.81a84.8 84.8 0 0 1-3.648 37.721 84.794 84.794 0 0 0-4.352 26.818v53.362h-44.175v-53.362c0-9.115-1.47-18.171-4.352-26.818a84.801 84.801 0 0 1-3.649-37.721zM197.379 431.846l6.861 39.059c1.899 10.808-6.417 20.712-17.391 20.712h-38.236c-9.752 0-17.657-7.906-17.657-17.657 0-3.189.864-6.318 2.499-9.056l19.749-33.058M462.115 30.882v131.725c0 5.799 4.701 10.5 10.5 10.5H494c5.799 0 10.5-4.701 10.5-10.5V30.882c0-5.799-4.701-10.5-10.5-10.5h-21.386c-5.798 0-10.499 4.701-10.499 10.5zM7.5 99.683v62.925c0 5.799 4.701 10.5 10.5 10.5h21.386c5.799 0 10.5-4.701 10.5-10.5V30.882c0-5.799-4.701-10.5-10.5-10.5H18c-5.799 0-10.5 4.701-10.5 10.5v33.801" style="stroke-width:15;stroke-linecap:round;stroke-linejoin:round;stroke-miterlimit:10;" fill="none" stroke="#000000" stroke-width="15" stroke-linecap="round" stroke-linejoin="round" stroke-miterlimit="10" data-original="#000000"></path></g></svg>