<svg xmlns="http://www.w3.org/2000/svg" version="1.1" xmlns:xlink="http://www.w3.org/1999/xlink" width="512" height="512" x="0" y="0" viewBox="0 0 512 512" style="enable-background:new 0 0 512 512" xml:space="preserve" class=""><g><path d="M278.28 70.302a40.889 40.889 0 0 0-44.589 0L8.835 216.695l-.283.202v275.515c0 6.65 5.426 12.12 12.14 12.12h470.587c6.654 0 12.15-5.452 12.15-12.12V216.886L278.28 70.302z" style="" fill="#eebf00" data-original="#eebf00"></path><path d="M503.432 216.888v275.526c0 6.669-5.496 12.115-12.155 12.115H20.694c-6.719 0-12.145-5.466-12.145-12.115V216.898c19.315 12.556 213.148 138.585 223.197 145.114a44.485 44.485 0 0 0 48.498 0c9.518-6.187 218.224-141.895 223.188-145.124z" style="" fill="#ffde55" data-original="#ffde55"></path><path d="M500.52 500.239c-.364.434-.757.838-1.181 1.211a12.162 12.162 0 0 1-3.585 2.222c-1.565.525-3.161.858-4.474.858H20.692c-.404 0-.828-.02-1.263-.071-.223-.02-.444-.05-.657-.08-.161-.02-.313-.05-.474-.081a12.212 12.212 0 0 1-6.695-3.868l3.06-2.474 191.275-152.715 25.805 16.776a44.496 44.496 0 0 0 48.498 0l26.056-16.937L498.41 498.462l2.11 1.777z" style="" fill="#ffeb99" data-original="#ffeb99"></path><path d="M460.088 175.159c-61.787 46.131-124.545 92.96-240.085 179.211-3.318-2.144-139.292-90.557-157.509-102.412h-.01c-3.988-2.589-15.351-9.969-23.527-15.294L338.872 12.806c10.721-8.003 25.884-5.807 33.887 4.914 98.895 132.472 92.614 123.981 93.387 125.237 6.568 10.5 4.175 24.522-6.058 32.202z" style="" fill="#5eac24" data-original="#5eac24"></path><path d="M412.873 131.996c-10.33 11.758-13.242 28.282-8.083 42.652 1.647 4.689-.08 9.765-3.951 12.656-14.145 10.557-121.956 91.015-142.276 106.183 0 .01-.01.01-.01.01-73.74 55.031 53.122-39.661-61.546 45.931A859235.815 859235.815 0 0 0 90.152 269.95a42.903 42.903 0 0 0 .421-30.026c-1.645-4.593.03-9.738 3.941-12.656l81.192-60.593L310.391 66.148c3.921-2.918 9.317-3.069 13.258-.181 12.526 9.18 29.095 10.843 43.193 4.372 4.844-2.236 10.59-.802 13.789 3.48l32.824 43.965c3.189 4.274 2.928 10.19-.582 14.212z" style="" fill="#4e901e" data-original="#4e901e"></path><path d="M469.344 238.821c-117.523 63.198-68.914 37.059-233.496 125.558-3.076-1.574-169.579-109.964-173.355-112.421h-.01c-.459-.299-20.156-13.09-20.549-13.358C301.616 98.977 194.51 156.564 373.361 60.392c11.784-6.338 26.455-1.936 32.794 9.848 78.579 146.116 73.438 136.488 73.921 137.623 5.159 11.818-.006 25.306-10.732 30.958z" style="" fill="#7ed63e" data-original="#7ed63e"></path><path d="M428.989 189.179c-12.25 10.444-17.188 26.366-14.271 40.987.943 4.794-1.464 9.627-5.766 11.944l-114.396 61.506h-.01l-34.689 18.653h-.01l-48.839 26.255c-18.894-12.181-118.293-76.909-118.478-77.03 2.776-7.575 3.285-15.688 1.785-23.036-.953-4.794 1.464-9.627 5.766-11.944l101.56-54.606 135.697-72.958c4.302-2.317 9.658-1.655 13.138 1.775 11.09 10.986 27.318 14.985 42.07 10.69 5.125-1.494 10.6.762 13.137 5.466l25.984 48.328c2.527 4.694 1.393 10.51-2.678 13.97z" style="" fill="#5eac24" data-original="#5eac24"></path><path d="M431.988 128.285c-3.45-10.039-12.837-16.347-22.895-16.347-4.901 0-8.298 1.519-8.915 1.685-5.393 1.855-358.858 123.393-359.937 123.884 1.319.847 9.91 6.444 22.243 14.451h.01c15.026 9.778 169.488 110.217 169.604 110.275 14.395 9.204 33.262 9.447 48.147-.221 5.554-3.607 185.357-120.522 189.711-123.352-19.07-55.445-17.971-52.253-37.968-110.375z" style="" fill="#a4e276" data-original="#a4e276"></path><path d="m440.221 235.993-17.841-51.888c-1.745-5.044-6.779-8.163-12.084-7.511-15.606 1.88-30.791-4.967-39.794-17.35-2.868-3.951-8.053-5.456-12.676-3.871l-255.68 87.941c-3.731 1.274-6.509 4.382-7.351 8.103-.81 3.394.838 9.316-3.099 19.536 1.114.742 126.161 82.011 136.64 88.844l117.445-40.395c107.549-69.937 48.09-31.264 70.732-45.981 3.018-9.833 9.62-18.542 18.814-24.069 4.573-2.759 6.629-8.315 4.894-13.359z" style="" fill="#5eac24" data-original="#5eac24"></path><circle cx="254.185" cy="272.458" r="52.874" style="" fill="#47821c" data-original="#47821c"></circle><path d="M161.205 316.141c-6.559-4.262-13.328-8.665-20.218-13.138 2.513-12.952 20.718-14.288 25.041-1.725a12.988 12.988 0 0 1-4.823 14.863z" style="" fill="#47821c" data-original="#47821c"></path><circle cx="350.49" cy="237.839" r="13.004" style="" fill="#47821c" data-original="#47821c"></circle><path d="M416.513 273.419a36.186 36.186 0 0 0-.652 2.327l-6.258 2.156c2.318-1.504 4.624-2.998 6.91-4.483z" style="" fill="#ffde55" data-original="#ffde55"></path><path d="M494.255 210.911c.02.01.04.02.05.03h-.01c-.009-.01-.029-.02-.04-.03zM494.306 210.941c.05.03.1.06.15.1-.01-.01-.02-.02-.04-.02-.02-.02-.03-.03-.04-.03-.03-.02-.05-.04-.07-.05zM494.546 211.092c.01.01.03.02.04.03-.01 0-.02-.01-.04-.02v-.01zM494.667 211.172c.04.03.09.06.13.09h-.01c-.051-.04-.09-.06-.12-.09zM494.797 211.262c.08.05.15.09.221.14-.06-.04-.12-.07-.171-.1-.02-.02-.04-.03-.05-.04zM500.984 215.284c.06.04.13.09.191.13-.05-.02-.09-.05-.13-.08-.02-.02-.041-.03-.061-.05z" style="" fill="#eebf00" data-original="#eebf00"></path><path d="M503.432 474.443v17.971c0 6.669-5.496 12.115-12.155 12.115H20.694c-6.719 0-12.145-5.466-12.145-12.115V216.898c3.981 2.587 15.394 10.009 31.089 20.218v225.213c0 6.649 5.425 12.115 12.145 12.115h451.649z" style="" fill="#ffd422" data-original="#ffd422"></path><path d="M494.255 210.911c.02.01.04.02.05.03h-.01c-.009-.01-.029-.02-.04-.03zM494.306 210.941c.05.03.1.06.15.1-.01-.01-.02-.02-.04-.02-.02-.02-.03-.03-.04-.03-.03-.02-.05-.04-.07-.05zM494.546 211.092c.01.01.03.02.04.03-.01 0-.02-.01-.04-.02v-.01zM494.667 211.172c.04.03.09.06.13.09h-.01c-.051-.04-.09-.06-.12-.09zM494.797 211.262c.08.05.15.09.221.14-.06-.04-.12-.07-.171-.1-.02-.02-.04-.03-.05-.04zM500.984 215.284c.06.04.13.09.191.13-.05-.02-.09-.05-.13-.08-.02-.02-.041-.03-.061-.05z" style="" fill="#eebf00" data-original="#eebf00"></path><path d="m498.407 498.462-30.086-24.019H51.783c-2.106 0-4.092-.542-5.817-1.474L14.667 497.96l-3.069 2.467c1.189 1.302 2.545 2.35 4.202 3.069.201.09.411.181.622.251.265.176 2.299.782 4.272.782h470.583c.171 0 .331 0 .501-.02.15-.01.301-.01.451-.03 1.053-.1 2.216-.371 3.38-.752.1-.04.211-.08.321-.13.04-.02.08-.03.13-.05.15-.07.311-.14.461-.221.15-.07.291-.14.431-.211a12 12 0 0 0 3.089-2.347c.171-.171.321-.351.481-.531l-2.115-1.775z" style="" fill="#ffeb99" data-original="#ffeb99"></path><path d="M500.523 500.237c-2.226 2.607-5.526 4.292-9.246 4.292H20.694c-2.126 0-4.072-.642-4.272-.782-1.414-.471-3.239-1.585-4.824-3.319a77024.618 77024.618 0 0 1 34.047-27.198v-.01c.01-.01.09-.07.15-.11.01-.02.03-.03.04-.04.01-.01.03-.02.06-.04l.04-.04c.01 0 .02-.01.03-.02a12.211 12.211 0 0 0 5.817 1.474h416.539c6.3 5.047-16.444-13.173 32.202 25.793z" style="" fill="#ffde55" data-original="#ffde55"></path><path d="M396.426 137.762c-3.941 1.986-5.927 6.609-4.483 10.911 1.52 4.561 6.437 7.294 11.423 5.706 4.74-1.568 7.293-6.707 5.706-11.423-1.574-4.732-7.776-7.694-12.646-5.194zM277.306 278.414c-4.563-13.679-15.003-14.893-21.983-15.183l.01-.01c-7.664-.441-12.972.499-14.792-4.934-.792-2.397-.501-4.242.943-5.817 2.312-2.514 8.022-4.818 14.16-3.871 1.294.201 2.517.391 3.801-.04 3.681-1.223 4.423-5.536 3.54-8.173-1.805-5.405-9.898-4.804-15.294-3.731l-.792-2.397c-1.123-3.37-4.784-5.195-8.153-4.072-3.36 1.123-5.185 4.784-4.062 8.153l1.053 3.149c-7.381 5.064-9.858 12.586-6.96 21.261 4.152 12.446 14.211 12.817 22.294 13.117 7.662.291 12.285.461 14.471 7.02 1.785 5.355-.241 8.925-6.198 10.911-9.427 3.149-11.322-3.731-16.186-2.106-3.219 1.073-4.593 5.285-3.62 8.193 1.454 4.362 8.504 7.973 17.951 6.789l.782 2.347a6.442 6.442 0 0 0 8.143 4.072 6.442 6.442 0 0 0 4.072-8.143l-.832-2.487c8.254-5.164 11.052-13.869 7.652-24.048zM363.653 224.189c-3.132-3.132-8.444-5.546-14.08-5.546-4.964 0-9.956 1.81-13.86 5.355-3.84 3.291-6.769 9.02-6.769 15.274 0 14.05 13.769 24.039 27.158 19.576 15.018-5.015 18.798-24.146 7.551-34.659zm-14.081 20.679c-3.119 0-5.586-2.537-5.586-5.596 0-3.109 2.537-5.586 5.586-5.586 3.119 0 5.596 2.537 5.596 5.596.001 2.407-2.537 5.586-5.596 5.586z" fill="#000000" opacity="1" data-original="#000000"></path><circle cx="379.132" cy="92.274" r="9.036" fill="#000000" opacity="1" data-original="#000000"></circle><circle cx="348.294" cy="42.784" r="9.036" fill="#000000" opacity="1" data-original="#000000"></circle><path d="M268.349 229.936a7.523 7.523 0 0 0 5.31-14.076c-54.211-20.45-102.623 40.829-70.676 88.882a7.522 7.522 0 0 0 12.52-8.34c-.36-.54-.71-1.09-1.048-1.647-21.772-35.914 14.131-79.819 53.894-64.819zM290.182 234.776a7.52 7.52 0 0 0-1.634 10.51c5.64 7.723 8.627 16.928 8.627 26.304 0 32.364-33.001 53.504-62.165 41.031a7.514 7.514 0 0 0-9.873 3.957 7.52 7.52 0 0 0 3.957 9.873c39.009 16.688 83.124-11.608 83.124-54.862 0-12.71-4.087-25.002-11.525-35.181a7.523 7.523 0 0 0-10.511-1.632zM460.263 235.834l-.004-.012.004.012z" fill="#000000" opacity="1" data-original="#000000"></path><path d="M508.978 211.162c-.491-.501 3.4 1.986-29.805-19.606l-7.612-14.712c8.745-11.042 9.337-26.806.602-38.67L380.04 12.986c-10.43-14.17-30.447-17.219-44.637-6.789-.852.622-29.966 22.053-69.96 51.477-20.338-3.584-34.859 5.321-38.7 7.822C-10.535 219.772 3.079 210.364 1.79 212.786a7.592 7.592 0 0 0-.973 3.691v275.877C.817 503.185 9.643 512 20.494 512H159.15a7.521 7.521 0 0 0 0-15.042H27.664L205.953 354.13c31.901 20.358 67.462 20.829 100.096 0l178.289 142.828H190.404a7.521 7.521 0 0 0 0 15.042h301.102c10.851 0 19.676-8.815 19.676-19.646V216.477c.002-1.981-.823-3.958-2.204-5.315zm-39.366-5.389c4.781 9.023 7.35 13.807 4.224 21.214v.01c-.02.04-.04.09-.06.13-.16.1-.311.211-.461.301l-9.246-27.719a16.388 16.388 0 0 1 5.543 6.064zm-9.564-58.684c2.938 3.991 3.881 8.805 2.989 13.288l-16.066-31.059 13.077 17.771zm-34.438-15.113 18.252 54.686v.01c.833 2.489-3.576-10.719 16.427 49.23-4.954 3.229-8.996 5.847-12.295 7.993 1.168-4.645-.911-8.29-18.332-60.493-2.798-8.404-11.252-13.789-20.067-12.786a35.643 35.643 0 0 1-32.994-14.742c-4.703-6.599-13.448-9.387-21.251-6.789l-224.491 74.914-.572.191-33.476 11.172c-7.802 2.597-13.117 10.079-12.917 18.182.03 1.083.01 2.166-.07 3.239-6.007-3.901-1.585-1.033-28.622-18.613 59.182-19.968 233.225-78.502 308.922-103.355l.1-.03a3481.473 3481.473 0 0 1 18.242-5.977c.04-.01.08-.03.12-.04 16.056-5.225 25.954-8.314 26.827-8.324 7.33-.071 13.89 4.632 16.197 11.532zm-140.15 13.107c19.055-9.803 52.549-27.177 52.65-27.278 8.982-4.634 5.257-2.411 15.243 4.623-17.929 5.979 25.171-8.388-67.893 22.655zm114.948-70.351 16.357 31.49c-10.66-2.467-15.113.1-42.782 9.327-6.448-1.595-12.265-4.884-16.908-9.627-5.754-5.882-14.825-7.155-22.043-3.42l-.077.04-141.717 73.309-66.66 22.254L313.06 101.61h.01l65.958-34.127c8.382-4.334 17.549-.122 21.38 7.249zm-136.379 34.85c5.479-3.996 41.076-30.086 41.739-30.748 15.504-11.544 9.337-8.368 21.782-2.236-.104.054-13.997 7.287-14.1 7.321h-.01c-.104.054-15.224 7.926-15.334 7.963a71454.536 71454.536 0 0 0-34.077 17.7zm90.277-94.55c5.195 0 10.319 2.377 13.619 6.87l21.16 28.742c-15.474-1.133-20.85 5.917-42.241 15.925-6.619-.562-12.877-2.898-18.202-6.86-6.509-4.844-15.685-4.814-22.314.07l-128.577 94.62-62.368 32.392C354.928 12.04 343.797 15.032 354.306 15.032zM24.485 214.431l9.226-5.476C245.011 72.013 235.159 76.845 243.209 74.05 229.74 83.962 50.19 216.078 36.62 226.084c-6.476-4.158-4.073-2.495-12.135-7.361-1.635-.962-1.635-3.329 0-4.292zM15.86 487.139V230.537c60.805 39.536 144.019 93.625 144.081 93.687h.02c.1.1-.774-.496 32.703 21.271L15.86 487.139zm134.604-187.033c2.287-.08 4.593 1.083 5.425 3.53-1.854-1.204-3.67-2.387-5.425-3.53zm128.798 50.554h-.01c-14.893 4.894-31.37 4.964-46.503 0h-.01c-11.924-3.901-15.966-7.261-62.769-37.838 0-.01.01-.01.01-.02 1.594-4.282 1.723-9.109.211-13.669-4.899-14.642-23.289-18.682-33.947-8.274-18.643-12.125-30.657-19.927-38.57-25.072a50.763 50.763 0 0 0 1.264-12.616c-.04-1.554 1.043-3.009 2.638-3.54 218.787-73.013 250.921-83.734 258.538-86.276 1.595-.532 3.329-.02 4.232 1.254 10.68 14.983 28.672 23.006 46.924 20.96 1.845-.221 3.54.852 4.122 2.597l17.51 52.46c.582 1.735-.13 3.61-1.735 4.553a50.612 50.612 0 0 0-20.488 22.875v.01c-.02.05-.04.09-.06.14-10.711 6.96-27.529 17.891-54.506 35.431v.01c-60.203 39.142-63.814 42.753-76.851 47.015zm216.879 136.479L319.336 345.495c.171-.111 87.023-56.586 176.805-114.958v256.602z" fill="#000000" opacity="1" data-original="#000000"></path></g></svg>