<svg xmlns="http://www.w3.org/2000/svg" version="1.1" xmlns:xlink="http://www.w3.org/1999/xlink" width="512" height="512" x="0" y="0" viewBox="0 0 512 512" style="enable-background:new 0 0 512 512" xml:space="preserve" class=""><g><path d="m495.077 395.861.648-.648L116.789 16.275l-43.186-.128c-3.474 3.474-60.588 60.588-71.374 71.372a7.611 7.611 0 1 0 10.764 10.765L68.22 43.057 79.113 53.95l-55.227 55.227a7.611 7.611 0 1 0 10.764 10.765l55.227-55.227 10.893 10.893-55.227 55.227A7.611 7.611 0 1 0 56.307 141.6l55.227-55.227 10.893 10.893-55.228 55.224a7.611 7.611 0 1 0 10.764 10.765l55.227-55.227 10.893 10.893-55.226 55.226a7.611 7.611 0 1 0 10.764 10.765l55.227-55.227 10.893 10.893-55.227 55.226a7.611 7.611 0 1 0 10.764 10.765l55.227-55.226 10.893 10.893-55.227 55.226a7.611 7.611 0 1 0 10.764 10.765l55.227-55.226 10.893 10.893-55.226 55.227a7.611 7.611 0 1 0 10.764 10.765l55.227-55.227 97.521 97.521-55.227 55.227a7.611 7.611 0 0 0 5.383 12.994 7.591 7.591 0 0 0 5.383-2.229l55.227-55.227L339 313.838l-55.226 55.226a7.611 7.611 0 0 0 5.383 12.994 7.591 7.591 0 0 0 5.383-2.229l55.226-55.226 10.892 10.892-55.226 55.226a7.611 7.611 0 0 0 5.383 12.994 7.591 7.591 0 0 0 5.383-2.229l55.226-55.226 10.893 10.893-55.227 55.227a7.611 7.611 0 0 0 5.383 12.994 7.591 7.591 0 0 0 5.383-2.229l55.227-55.227 10.892 10.892-55.227 55.227a7.611 7.611 0 0 0 5.383 12.994 7.593 7.593 0 0 0 5.383-2.229l55.227-55.227 10.892 10.892-55.227 55.227a7.611 7.611 0 0 0 5.383 12.994 7.591 7.591 0 0 0 5.383-2.229l55.227-55.227 10.892 10.892 43.187 10.894c10.07-10.079 11.603-25.462 4.599-37.157z" style="" fill="#ff5368" data-original="#ff5368"></path><path d="M495.339 384.062 127.423 16.146c-14.838-14.838-38.983-14.837-53.82.001l379.194 379.195.122.123c5.809 5.896 5.566 15.458-.287 21.312l-60.573 60.573a7.611 7.611 0 0 0 5.383 12.994 7.591 7.591 0 0 0 5.383-2.229l55.227-55.227 10.892 10.892-55.227 55.227a7.611 7.611 0 0 0 5.383 12.994 7.591 7.591 0 0 0 5.383-2.229l71.372-71.374c7.338-7.339 11.311-17.145 11.141-27.548-.165-10.087-4.524-19.654-11.657-26.788z" style="" fill="#c5324f" data-original="#c5324f"></path><path d="M507.456 4.543c-.001 0-.001 0 0 0l-.008.007-368.586 294.096s-14.595 12.784-23.003 20.394c-22.797-28.136-64.924-30.234-90.398-4.765-23.798 23.792-23.799 62.3 0 86.092 23.864 23.858 62.878 23.799 86.635-.551l100.774-26.222c.076.063.039.031 0 0 101.761-113.206 200.7-229.466 295.746-348.417 4.924-6.164 4.42-15.055-1.16-20.634zM90.044 378.845c-11.871 11.867-31.186 11.867-43.056 0-11.898-11.895-11.899-31.15 0-43.047 11.869-11.867 31.185-11.869 43.056 0 11.87 11.868 11.87 31.179 0 43.047z" style="" fill="#6c7a88" data-original="#6c7a88"></path><path d="M192.921 396.21c6.813-7.527 13.161-15.065 19.948-22.615-2.846-2.395-5.361-4.598-8.441-6.607-8.455-5.514-13.904-14.589-15.082-24.612l-.053-.444c-1.317-10.813 2.344-21.641 10.049-29.344L507.455 4.543c-5.581-5.579-14.473-6.082-20.638-1.157A7866.573 7866.573 0 0 0 161.17 278.325l-.01.009c-7.574 6.754-14.749 13.529-22.298 20.312.127.151-.126-.152 0 0 19.062 22.951 17.223 57.19-3.876 78.284l-22.892 22.887c-.178.182-.343.37-.524.551l-.013.013v.098l.015.015c-12.611 12.608-19.009 29.772-17.657 47.781.958 12.752 5.997 24.944 14.295 34.674 12.194 14.293 29.305 21.439 46.417 21.439 15.592 0 31.186-5.933 43.056-17.802 11.5-11.498 17.834-26.786 17.834-43.047 0-16.26-6.334-31.548-17.834-43.046a61.728 61.728 0 0 0-4.762-4.283zM133.1 465.065c-18.993-18.991-5.705-51.962 21.527-51.962 16.826 0 30.445 13.613 30.445 30.439.002 26.912-32.776 40.713-51.972 21.523z" style="" fill="#4d5967" data-original="#4d5967"></path></g></svg>